<?xml version="1.0" encoding="utf-8"?>
<!-- Generator: Adobe Illustrator 23.0.3, SVG Export Plug-In . SVG Version: 6.00 Build 0)  -->
<svg version="1.1" id="Layer_1" xmlns="http://www.w3.org/2000/svg" xmlns:xlink="http://www.w3.org/1999/xlink" x="0px" y="0px"
	 viewBox="0 0 451 216" style="enable-background:new 0 0 451 216;" xml:space="preserve">
<style type="text/css">
	.st0{fill:#353D42;}
	.st1{fill:#E0001B;}
	.st2{fill:#00AEEF;}
	.st3{fill:#FFFFFF;}
</style>
<g>
	<g>
		<g>
			<g>
				<path class="st0" d="M219.9,115.9l-76.9-25C154,57.1,184.3,35,219.9,35V115.9z"/>
			</g>
		</g>
		<g>
			<g>
				<path class="st1" d="M219.9,115.9l-62.8,50.9c-17.8-22-22.8-48.9-14.1-75.9L219.9,115.9z"/>
			</g>
		</g>
		<g>
			<g>
				<path class="st2" d="M219.9,115.9V35c44.7,0,80.9,36.2,80.9,80.8s-36.2,80.9-80.9,80.9c-25.3,0-46.9-10.3-62.8-30L219.9,115.9z"
					/>
			</g>
		</g>
	</g>
	<g>
		<g>
		</g>
		<g>
		</g>
		<g>
		</g>
	</g>
</g>
<g>
	<g>
		<circle class="st3" cx="220" cy="115" r="54"/>
	</g>
	<g>
		<path d="M197.3,106.4c2.1,0,3-1,3-2.4v-0.2c0-1.5-1.1-2.4-2.7-2.4c-1.6,0-2.7,0.8-3.5,2l-1.8-1.6c1-1.5,2.5-2.8,5.3-2.8
			c3.2,0,5.4,1.6,5.4,4.3c0,2.1-1.5,3.5-3.2,3.8v0.1c1.9,0.4,3.5,1.7,3.5,4.2c0,2.9-2.4,4.9-6,4.9c-3.1,0-4.7-1.5-5.7-3l2-1.6
			c0.8,1.3,1.8,2.3,3.7,2.3c2,0,3.2-1,3.2-2.8v-0.2c0-1.7-1.2-2.6-3.3-2.6h-1.8v-2.3H197.3z"/>
		<path d="M217.6,101.8h-7.4l-0.4,5.9h0.2c0.7-1.3,1.6-2.2,3.5-2.2c2.9,0,5.1,1.9,5.1,5.2c0,3.3-2.2,5.7-6,5.7c-3,0-4.5-1.5-5.5-3
			l2-1.6c0.8,1.3,1.8,2.3,3.6,2.3c2,0,3.1-1.2,3.1-3.1v-0.3c0-1.9-1.1-3.1-3.1-3.1c-1.4,0-2.2,0.6-2.8,1.3l-2.2-0.3l0.6-9.3h9.5
			V101.8z"/>
		<path d="M221,111.7c0-2.2,1.3-3.6,3.4-4.1v-0.2c-1.7-0.6-2.9-1.9-2.9-3.9c0-2.6,2-4.3,5.5-4.3s5.5,1.7,5.5,4.3
			c0,1.9-1.2,3.3-2.9,3.9v0.2c2,0.6,3.4,1.9,3.4,4.1c0,2.8-2.1,4.8-6,4.8C223.1,116.5,221,114.4,221,111.7z M230.2,111.7v-0.5
			c0-1.7-1.2-2.6-3.2-2.6c-2,0-3.2,1-3.2,2.6v0.5c0,1.7,1.2,2.6,3.2,2.6C229,114.3,230.2,113.3,230.2,111.7z M229.9,104.1v-0.4
			c0-1.5-1-2.4-2.9-2.4c-1.8,0-2.9,0.8-2.9,2.4v0.4c0,1.5,1,2.4,2.9,2.4C228.9,106.5,229.9,105.6,229.9,104.1z"/>
		<path d="M241.3,116.2h-3.6c3.8-2.8,6-5,6.8-8.6l-0.2,0c-0.7,1.3-1.8,2.4-3.9,2.4c-2.8,0-4.9-2-4.9-5.2c0-3.4,2.3-5.7,5.9-5.7
			c3.7,0,5.9,2.5,5.9,6.5C247.3,110.6,244,114.4,241.3,116.2z M244.5,104.8v-0.3c0-2-1.2-3.1-3.1-3.1c-1.9,0-3.1,1.1-3.1,3.1v0.3
			c0,2,1.2,3.1,3.1,3.1C243.3,107.9,244.5,106.8,244.5,104.8z"/>
	</g>
	<g>
		<path d="M188.6,134.2c-0.8,0-1.2-0.5-1.2-1.2V128h-1.2v-1h0.7c0.5,0,0.6-0.2,0.6-0.7V125h1v2h1.6v1h-1.6v5.3h1.5v1H188.6z"/>
		<path d="M191.3,130.6c0-2.3,1.3-3.8,3.3-3.8s3.3,1.5,3.3,3.8c0,2.3-1.3,3.8-3.3,3.8S191.3,132.9,191.3,130.6z M196.6,131.1v-1
			c0-1.5-0.9-2.3-2.1-2.3s-2.1,0.7-2.1,2.3v1c0,1.5,0.9,2.3,2.1,2.3S196.6,132.7,196.6,131.1z"/>
		<path d="M201.3,134.2c-0.8,0-1.2-0.5-1.2-1.2V128h-1.2v-1h0.7c0.5,0,0.6-0.2,0.6-0.7V125h1v2h1.6v1h-1.6v5.3h1.5v1H201.3z"/>
		<path d="M209.8,134.2c-0.8,0-1.2-0.5-1.2-1.2h-0.1c-0.3,0.9-1.1,1.3-2.1,1.3c-1.5,0-2.4-0.8-2.4-2.2c0-1.4,1-2.1,3.1-2.1h1.4v-0.7
			c0-1-0.6-1.6-1.7-1.6c-0.9,0-1.4,0.4-1.8,1.1l-0.7-0.6c0.4-0.8,1.3-1.4,2.6-1.4c1.7,0,2.8,0.9,2.8,2.4v4h0.8v1H209.8z
			 M208.5,132.1v-1.2H207c-1.3,0-1.8,0.4-1.8,1.1v0.3c0,0.7,0.6,1.1,1.4,1.1C207.7,133.4,208.5,132.9,208.5,132.1z"/>
		<path d="M213.2,134.2c-0.8,0-1.2-0.5-1.2-1.2v-9.2h1.1v9.4h1.1v1H213.2z"/>
		<path d="M220.8,134.2c-0.8,0-1.2-0.5-1.2-1.2V128h-1.2v-1h0.7c0.5,0,0.6-0.2,0.6-0.7V125h1v2h1.6v1h-1.6v5.3h1.5v1H220.8z"/>
		<path d="M223.3,127h1.1l0.8,3.1l0.8,3.2h0l0.9-3.2l0.9-3.1h1l0.9,3.1l0.9,3.2h0l0.7-3.2l0.8-3.1h1.1l-1.9,7.2h-1.4l-1-3.5
			l-0.6-2.2h0l-0.6,2.2l-1,3.5h-1.4L223.3,127z"/>
		<path d="M234.2,130.6c0-2.3,1.3-3.8,3.3-3.8c1.9,0,3.1,1.5,3.1,3.5v0.5h-5.2v0.3c0,1.2,0.8,2.2,2.1,2.2c0.9,0,1.6-0.4,2-1.2
			l0.8,0.6c-0.5,1-1.5,1.7-2.9,1.7C235.5,134.4,234.2,132.9,234.2,130.6z M235.4,130L235.4,130l4,0.1v-0.2c0-1.3-0.8-2.1-1.9-2.1
			C236.3,127.8,235.4,128.7,235.4,130z"/>
		<path d="M241.9,130.6c0-2.3,1.3-3.8,3.3-3.8c1.9,0,3.1,1.5,3.1,3.5v0.5h-5.2v0.3c0,1.2,0.8,2.2,2.1,2.2c0.9,0,1.6-0.4,2-1.2
			l0.8,0.6c-0.5,1-1.5,1.7-2.9,1.7C243.2,134.4,241.9,132.9,241.9,130.6z M243.1,130L243.1,130l4,0.1v-0.2c0-1.3-0.8-2.1-1.9-2.1
			C243.9,127.8,243.1,128.7,243.1,130z"/>
		<path d="M251.7,134.2c-0.8,0-1.2-0.5-1.2-1.2V128h-1.2v-1h0.7c0.5,0,0.6-0.2,0.6-0.7V125h1v2h1.6v1h-1.6v5.3h1.5v1H251.7z"/>
	</g>
</g>
<g>
	<path class="st2" d="M312.7,101.7v7.5h-1v-7.5h-2.7v-0.9h6.3v0.9H312.7z"/>
	<path class="st2" d="M315.6,103h0.9l0.7,2.7l0.7,2.7h0l0.8-2.7l0.8-2.7h0.9l0.8,2.7l0.8,2.7h0l0.6-2.7l0.7-2.7h0.9l-1.6,6.2h-1.2
		l-0.9-3l-0.5-1.9h0l-0.5,1.9l-0.9,3h-1.2L315.6,103z"/>
	<path class="st2" d="M324.9,106.1c0-2,1.1-3.2,2.8-3.2c1.7,0,2.7,1.3,2.7,3v0.5h-4.4v0.3c0,1.1,0.7,1.9,1.8,1.9
		c0.8,0,1.4-0.4,1.7-1.1l0.7,0.5c-0.4,0.8-1.3,1.4-2.4,1.4C326,109.4,324.9,108.1,324.9,106.1z M325.9,105.6L325.9,105.6l3.4,0.1
		v-0.1c0-1.1-0.7-1.8-1.6-1.8C326.7,103.7,325.9,104.5,325.9,105.6z"/>
	<path class="st2" d="M331.5,106.1c0-2,1.1-3.2,2.8-3.2c1.7,0,2.7,1.3,2.7,3v0.5h-4.4v0.3c0,1.1,0.7,1.9,1.8,1.9
		c0.8,0,1.4-0.4,1.7-1.1l0.7,0.5c-0.4,0.8-1.3,1.4-2.4,1.4C332.6,109.4,331.5,108.1,331.5,106.1z M332.5,105.6L332.5,105.6l3.4,0.1
		v-0.1c0-1.1-0.7-1.8-1.6-1.8C333.2,103.7,332.5,104.5,332.5,105.6z"/>
	<path class="st2" d="M339.9,109.2c-0.7,0-1-0.4-1-1v-4.3h-1V103h0.6c0.4,0,0.5-0.1,0.5-0.6v-1.2h0.9v1.7h1.4v0.8h-1.4v4.5h1.3v0.8
		H339.9z"/>
	<path class="st2" d="M342.2,108.2l0.7-0.6c0.5,0.6,1.1,0.9,1.8,0.9c0.8,0,1.3-0.4,1.3-1c0-0.5-0.3-0.9-1.1-1l-0.5-0.1
		c-1.1-0.2-2-0.6-2-1.8c0-1.2,0.9-1.8,2.2-1.8c1,0,1.7,0.4,2.2,1l-0.6,0.6c-0.3-0.4-0.8-0.8-1.6-0.8c-0.8,0-1.2,0.4-1.2,1
		c0,0.6,0.4,0.8,1.2,1l0.5,0.1c1.4,0.2,1.9,0.8,1.9,1.7c0,1.2-0.9,1.9-2.3,1.9C343.5,109.4,342.7,108.9,342.2,108.2z"/>
	<path class="st2" d="M352.5,109.2h-1v-8.4h3.3c1.5,0,2.3,0.9,2.3,2.4c0,1.2-0.6,2.1-1.7,2.3l1.9,3.7h-1.1l-1.8-3.6h-2V109.2z
		 M354.9,104.8c0.8,0,1.3-0.4,1.3-1.2v-0.6c0-0.8-0.5-1.2-1.3-1.2h-2.3v3H354.9z"/>
	<path class="st2" d="M358.5,106.1c0-2,1.1-3.2,2.8-3.2c1.7,0,2.7,1.3,2.7,3v0.5h-4.4v0.3c0,1.1,0.7,1.9,1.8,1.9
		c0.8,0,1.4-0.4,1.7-1.1l0.7,0.5c-0.4,0.8-1.3,1.4-2.4,1.4C359.6,109.4,358.5,108.1,358.5,106.1z M359.5,105.6L359.5,105.6l3.4,0.1
		v-0.1c0-1.1-0.7-1.8-1.6-1.8C360.2,103.7,359.5,104.5,359.5,105.6z"/>
	<path class="st2" d="M367.7,111.8c-1.9,0-2.7-0.6-2.7-1.5c0-0.7,0.4-1,1-1.2v-0.1c-0.3-0.2-0.6-0.4-0.6-0.9c0-0.6,0.4-0.9,1.1-1.1
		v0c-0.7-0.3-1.2-1-1.2-1.9c0-1.3,0.9-2.1,2.3-2.1c0.4,0,0.8,0.1,1.2,0.2V103c0-0.5,0.2-0.8,0.7-0.8h0.9v0.8h-1.2v0.4
		c0.4,0.4,0.7,0.9,0.7,1.6c0,1.3-0.9,2.1-2.3,2.1c-0.2,0-0.4,0-0.6-0.1c-0.4,0.1-0.8,0.3-0.8,0.7c0,0.4,0.4,0.5,0.9,0.5h1.3
		c1.5,0,2.2,0.6,2.2,1.6C370.7,111.2,369.7,111.8,367.7,111.8z M368.6,109.2h-2.1c-0.4,0.2-0.6,0.5-0.6,0.8c0,0.5,0.4,1,1.3,1h0.9
		c1.1,0,1.7-0.3,1.7-1C369.8,109.5,369.5,109.2,368.6,109.2z M369,105.2v-0.3c0-0.8-0.5-1.2-1.3-1.2s-1.3,0.4-1.3,1.2v0.3
		c0,0.8,0.5,1.2,1.3,1.2S369,106,369,105.2z"/>
	<path class="st2" d="M376.3,109.2c-0.7,0-1-0.4-1.1-1h-0.1c-0.3,0.8-0.9,1.2-1.8,1.2c-1.3,0-2.1-0.7-2.1-1.9c0-1.2,0.8-1.8,2.6-1.8
		h1.2v-0.6c0-0.9-0.5-1.4-1.5-1.4c-0.7,0-1.2,0.4-1.6,0.9l-0.6-0.5c0.3-0.7,1.1-1.2,2.2-1.2c1.5,0,2.4,0.8,2.4,2.1v3.4h0.7v0.8
		H376.3z M375.2,107.4v-1h-1.3c-1.1,0-1.6,0.3-1.6,0.9v0.3c0,0.6,0.5,1,1.2,1C374.5,108.6,375.2,108.1,375.2,107.4z"/>
	<path class="st2" d="M378.2,109.2V103h1v1.1h0.1c0.2-0.6,0.8-1.1,1.8-1.1h0.4v1h-0.6c-1,0-1.7,0.4-1.7,1v4.2H378.2z"/>
	<path class="st2" d="M386.5,108.2L386.5,108.2c-0.4,0.8-1,1.2-1.9,1.2c-1.5,0-2.5-1.3-2.5-3.2s1-3.2,2.5-3.2c0.9,0,1.5,0.4,1.8,1.2
		h0v-3.7h1v8.9h-1V108.2z M386.5,107.2v-2.3c0-0.7-0.7-1.2-1.6-1.2c-1.1,0-1.8,0.7-1.8,1.8v1.1c0,1.1,0.7,1.8,1.8,1.8
		C385.8,108.5,386.5,108.1,386.5,107.2z"/>
	<path class="st2" d="M389.4,101v-0.2c0-0.3,0.2-0.5,0.6-0.5c0.4,0,0.6,0.2,0.6,0.5v0.2c0,0.3-0.2,0.5-0.6,0.5
		C389.6,101.6,389.4,101.4,389.4,101z M389.5,103h1v6.2h-1V103z"/>
	<path class="st2" d="M392.5,109.2V103h1v1h0c0.3-0.7,0.8-1.2,1.8-1.2c1.3,0,2.1,0.9,2.1,2.4v4h-1v-3.8c0-1.1-0.5-1.7-1.4-1.7
		c-0.8,0-1.5,0.4-1.5,1.2v4.3H392.5z"/>
	<path class="st2" d="M401.6,111.8c-1.9,0-2.7-0.6-2.7-1.5c0-0.7,0.4-1,1-1.2v-0.1c-0.3-0.2-0.6-0.4-0.6-0.9c0-0.6,0.4-0.9,1.1-1.1
		v0c-0.7-0.3-1.2-1-1.2-1.9c0-1.3,0.9-2.1,2.3-2.1c0.4,0,0.8,0.1,1.2,0.2V103c0-0.5,0.2-0.8,0.7-0.8h0.9v0.8h-1.2v0.4
		c0.4,0.4,0.7,0.9,0.7,1.6c0,1.3-0.9,2.1-2.3,2.1c-0.2,0-0.4,0-0.6-0.1c-0.4,0.1-0.8,0.3-0.8,0.7c0,0.4,0.4,0.5,0.9,0.5h1.3
		c1.5,0,2.2,0.6,2.2,1.6C404.6,111.2,403.6,111.8,401.6,111.8z M402.4,109.2h-2.1c-0.4,0.2-0.6,0.5-0.6,0.8c0,0.5,0.4,1,1.3,1h0.9
		c1.1,0,1.7-0.3,1.7-1C403.7,109.5,403.3,109.2,402.4,109.2z M402.8,105.2v-0.3c0-0.8-0.5-1.2-1.3-1.2s-1.3,0.4-1.3,1.2v0.3
		c0,0.8,0.5,1.2,1.3,1.2S402.8,106,402.8,105.2z"/>
	<path class="st2" d="M408.2,105.1c0-2.8,1.3-4.4,3.4-4.4c1.4,0,2.4,0.7,2.9,1.8l-0.8,0.5c-0.3-0.9-1-1.4-2.1-1.4
		c-1.4,0-2.3,1.1-2.3,2.9v1.2c0,1.7,0.9,2.8,2.3,2.8c1.1,0,1.8-0.6,2.1-1.5l0.8,0.5c-0.5,1.2-1.5,1.9-2.9,1.9
		C409.4,109.4,408.2,107.9,408.2,105.1z"/>
	<path class="st2" d="M421.3,109.2l-0.8-2.5h-3.4l-0.8,2.5h-1l2.9-8.4h1.3l2.9,8.4H421.3z M418.8,101.8L418.8,101.8l-1.5,4.1h2.9
		L418.8,101.8z"/>
	<path class="st2" d="M429.2,109.2l-0.8-2.5h-3.4l-0.8,2.5h-1l2.9-8.4h1.3l2.9,8.4H429.2z M426.7,101.8L426.7,101.8l-1.5,4.1h2.9
		L426.7,101.8z"/>
</g>
<g>
	<path class="st1" d="M43.3,126.1c0-2.8,1.3-4.4,3.4-4.4c1.4,0,2.4,0.7,2.9,1.8l-0.8,0.5c-0.3-0.9-1-1.4-2.1-1.4
		c-1.4,0-2.3,1.1-2.3,2.9v1.2c0,1.7,0.9,2.8,2.3,2.8c1.1,0,1.8-0.6,2.1-1.5l0.8,0.5c-0.5,1.2-1.5,1.9-2.9,1.9
		C44.5,130.4,43.3,128.9,43.3,126.1z"/>
	<path class="st1" d="M52,130.2c-0.7,0-1-0.4-1-1v-7.9h1v8h0.9v0.8H52z"/>
	<path class="st1" d="M54.2,122v-0.2c0-0.3,0.2-0.5,0.6-0.5c0.4,0,0.6,0.2,0.6,0.5v0.2c0,0.3-0.2,0.5-0.6,0.5
		C54.4,122.6,54.2,122.4,54.2,122z M54.3,124h1v6.2h-1V124z"/>
	<path class="st1" d="M56.8,127.1c0-2,1-3.2,2.8-3.2c1.2,0,2,0.6,2.3,1.5l-0.8,0.4c-0.2-0.6-0.8-1-1.5-1c-1.1,0-1.7,0.8-1.7,1.9v1.1
		c0,1.1,0.6,1.9,1.7,1.9c0.8,0,1.3-0.4,1.7-1.1l0.7,0.5c-0.4,0.9-1.2,1.5-2.4,1.5C57.9,130.4,56.8,129.1,56.8,127.1z"/>
	<path class="st1" d="M63.3,121.4h1v5.6h0l0.9-1.1L67,124h1.2l-2.3,2.4l2.5,3.7h-1.2l-2.1-3.2l-0.9,0.9v2.2h-1V121.4z"/>
	<path class="st1" d="M69.7,121.4h1v3.7h0c0.3-0.8,1-1.2,1.8-1.2c1.5,0,2.5,1.3,2.5,3.2c0,2-1,3.2-2.5,3.2c-0.9,0-1.4-0.4-1.8-1.2h0
		v1h-1V121.4z M74,127.7v-1.1c0-1.1-0.7-1.8-1.8-1.8c-0.9,0-1.6,0.5-1.6,1.2v2.3c0,0.8,0.7,1.3,1.6,1.3
		C73.3,129.5,74,128.8,74,127.7z"/>
	<path class="st1" d="M81.1,130.2c-0.7,0-1-0.4-1.1-1H80c-0.3,0.8-0.9,1.2-1.8,1.2c-1.3,0-2.1-0.7-2.1-1.9c0-1.2,0.8-1.8,2.6-1.8H80
		v-0.6c0-0.9-0.5-1.4-1.5-1.4c-0.7,0-1.2,0.4-1.6,0.9l-0.6-0.5c0.3-0.7,1.1-1.2,2.2-1.2c1.5,0,2.4,0.8,2.4,2.1v3.4h0.7v0.8H81.1z
		 M80,128.4v-1h-1.3c-1.1,0-1.6,0.3-1.6,0.9v0.3c0,0.6,0.5,1,1.2,1C79.3,129.6,80,129.1,80,128.4z"/>
	<path class="st1" d="M82.9,122v-0.2c0-0.3,0.2-0.5,0.6-0.5c0.4,0,0.6,0.2,0.6,0.5v0.2c0,0.3-0.2,0.5-0.6,0.5
		C83.1,122.6,82.9,122.4,82.9,122z M83,124h1v6.2h-1V124z"/>
	<path class="st1" d="M87.4,130.2c-0.7,0-1-0.4-1-1v-4.3h-1V124h0.6c0.4,0,0.5-0.1,0.5-0.6v-1.2h0.9v1.7h1.4v0.8h-1.4v4.5h1.3v0.8
		H87.4z"/>
	<path class="st1" d="M96,122.7v7.5h-1v-7.5h-2.7v-0.9h6.3v0.9H96z"/>
	<path class="st1" d="M98.8,124h0.9l0.7,2.7l0.7,2.7h0l0.8-2.7l0.8-2.7h0.9l0.8,2.7l0.8,2.7h0l0.6-2.7l0.7-2.7h0.9l-1.6,6.2h-1.2
		l-0.9-3l-0.5-1.9h0l-0.5,1.9l-0.9,3h-1.2L98.8,124z"/>
	<path class="st1" d="M108.1,127.1c0-2,1.1-3.2,2.8-3.2c1.7,0,2.7,1.3,2.7,3v0.5h-4.4v0.3c0,1.1,0.7,1.9,1.8,1.9
		c0.8,0,1.4-0.4,1.7-1.1l0.7,0.5c-0.4,0.8-1.3,1.4-2.4,1.4C109.3,130.4,108.1,129.1,108.1,127.1z M109.2,126.6L109.2,126.6l3.4,0.1
		v-0.1c0-1.1-0.7-1.8-1.6-1.8C109.9,124.7,109.2,125.5,109.2,126.6z"/>
	<path class="st1" d="M114.7,127.1c0-2,1.1-3.2,2.8-3.2c1.7,0,2.7,1.3,2.7,3v0.5h-4.4v0.3c0,1.1,0.7,1.9,1.8,1.9
		c0.8,0,1.4-0.4,1.7-1.1l0.7,0.5c-0.4,0.8-1.3,1.4-2.4,1.4C115.8,130.4,114.7,129.1,114.7,127.1z M115.7,126.6L115.7,126.6l3.4,0.1
		v-0.1c0-1.1-0.7-1.8-1.6-1.8C116.5,124.7,115.7,125.5,115.7,126.6z"/>
	<path class="st1" d="M123.1,130.2c-0.7,0-1-0.4-1-1v-4.3h-1V124h0.6c0.4,0,0.5-0.1,0.5-0.6v-1.2h0.9v1.7h1.4v0.8h-1.4v4.5h1.3v0.8
		H123.1z"/>
	<path class="st1" d="M125.4,129.2l0.7-0.6c0.5,0.6,1.1,0.9,1.8,0.9c0.8,0,1.3-0.4,1.3-1c0-0.5-0.3-0.9-1.1-1l-0.5-0.1
		c-1.1-0.2-2-0.6-2-1.8c0-1.2,0.9-1.8,2.2-1.8c1,0,1.7,0.4,2.2,1l-0.6,0.6c-0.3-0.4-0.8-0.8-1.6-0.8c-0.8,0-1.2,0.4-1.2,1
		c0,0.6,0.4,0.8,1.2,1l0.5,0.1c1.4,0.2,1.9,0.8,1.9,1.7c0,1.2-0.9,1.9-2.3,1.9C126.7,130.4,126,129.9,125.4,129.2z"/>
</g>
<g>
	<path class="st1" d="M3,151.2v-1.7h3.5v-9.4H6.3l-2.9,3.1l-1.2-1.1l3.2-3.5h3.1v10.9h3.1v1.7H3z"/>
	<path class="st1" d="M21.3,140.4h-5.6l-0.3,4.4h0.1c0.6-1,1.2-1.6,2.6-1.6c2.2,0,3.8,1.5,3.8,3.9c0,2.5-1.6,4.3-4.5,4.3
		c-2.2,0-3.4-1.1-4.2-2.3l1.5-1.2c0.6,1,1.3,1.7,2.7,1.7c1.5,0,2.3-0.9,2.3-2.3v-0.2c0-1.4-0.8-2.3-2.3-2.3c-1.1,0-1.7,0.5-2.1,1
		l-1.7-0.2l0.5-7h7.1V140.4z"/>
	<path class="st1" d="M24.3,150.2V150c0-0.7,0.4-1.2,1.3-1.2c0.9,0,1.3,0.5,1.3,1.2v0.3c0,0.7-0.4,1.2-1.3,1.2
		C24.7,151.4,24.3,150.9,24.3,150.2z"/>
	<path class="st1" d="M29.1,147.8c0-1.7,1-2.7,2.5-3.1v-0.1c-1.3-0.5-2.1-1.5-2.1-2.9c0-1.9,1.5-3.2,4.1-3.2s4.1,1.3,4.1,3.2
		c0,1.4-0.9,2.4-2.1,2.9v0.1c1.5,0.4,2.5,1.4,2.5,3.1c0,2.1-1.6,3.6-4.5,3.6S29.1,149.9,29.1,147.8z M36,147.8v-0.4
		c0-1.2-0.9-2-2.4-2s-2.4,0.7-2.4,2v0.4c0,1.2,0.9,2,2.4,2S36,149.1,36,147.8z M35.7,142.2v-0.3c0-1.1-0.8-1.8-2.1-1.8
		s-2.1,0.6-2.1,1.8v0.3c0,1.1,0.8,1.8,2.1,1.8S35.7,143.3,35.7,142.2z"/>
	<path class="st1" d="M48.1,140.4h-5.6l-0.3,4.4h0.1c0.6-1,1.2-1.6,2.6-1.6c2.2,0,3.8,1.5,3.8,3.9c0,2.5-1.6,4.3-4.5,4.3
		c-2.2,0-3.4-1.1-4.2-2.3l1.5-1.2c0.6,1,1.3,1.7,2.7,1.7c1.5,0,2.3-0.9,2.3-2.3v-0.2c0-1.4-0.8-2.3-2.3-2.3c-1.1,0-1.7,0.5-2.1,1
		l-1.7-0.2l0.5-7h7.1V140.4z"/>
	<path class="st1" d="M50.6,145.1c0-1.5,0.7-2.4,1.9-2.4s1.9,0.8,1.9,2.4s-0.7,2.4-1.9,2.4S50.6,146.6,50.6,145.1z M53.5,145.4v-0.7
		c0-0.9-0.3-1.4-1-1.4s-1,0.5-1,1.4v0.7c0,0.9,0.3,1.4,1,1.4S53.5,146.4,53.5,145.4z M52,151.2l5.8-8.4h0.9l-5.8,8.4H52z M56.3,149
		c0-1.5,0.7-2.4,1.9-2.4c1.2,0,1.9,0.8,1.9,2.4s-0.7,2.4-1.9,2.4C57,151.4,56.3,150.5,56.3,149z M59.3,149.4v-0.7
		c0-0.9-0.3-1.4-1-1.4c-0.7,0-1,0.5-1,1.4v0.7c0,0.9,0.3,1.4,1,1.4C58.9,150.7,59.3,150.3,59.3,149.4z"/>
	<path class="st1" d="M66.9,142.1h0.9c-1.3,1.2-2.2,3.2-2.2,4.9v1c0,1.7,0.9,3.7,2.2,4.9h-0.9c-1.2-1-2.2-3-2.2-5.4
		C64.7,145.2,65.7,143.2,66.9,142.1z"/>
	<path class="st1" d="M73.7,143.7h-3.7l-0.2,3.2h0.1c0.4-0.6,0.8-0.9,1.7-0.9c1.4,0,2.5,1,2.5,2.6c0,1.6-1.1,2.8-2.8,2.8
		c-1.4,0-2.1-0.7-2.6-1.4l0.8-0.6c0.4,0.7,0.9,1.1,1.9,1.1c1.1,0,1.8-0.6,1.8-1.7v-0.1c0-1.1-0.6-1.7-1.8-1.7
		c-0.8,0-1.2,0.3-1.5,0.7l-0.9-0.1l0.3-4.6h4.5V143.7z"/>
	<path class="st1" d="M75.8,148.2c0-2.5,1.6-4.4,3-5.3H80c-1.8,1.3-2.8,2.4-3.2,4.3l0.1,0c0.4-0.7,1-1.2,2-1.2c1.4,0,2.5,1,2.5,2.6
		c0,1.6-1.1,2.8-2.8,2.8C76.8,151.4,75.8,150.1,75.8,148.2z M80.3,148.7L80.3,148.7c0-1.2-0.6-1.9-1.8-1.9s-1.8,0.6-1.8,1.8v0.1
		c0,1.1,0.6,1.8,1.8,1.8S80.3,149.9,80.3,148.7z"/>
	<path class="st1" d="M85.6,151.2h-1.3c1.8-1.3,2.8-2.4,3.2-4.3l-0.1,0c-0.4,0.7-1,1.2-2,1.2c-1.4,0-2.5-1-2.5-2.6
		c0-1.6,1.1-2.8,2.8-2.8c1.7,0,2.8,1.2,2.8,3.2C88.6,148.4,86.9,150.4,85.6,151.2z M87.5,145.4L87.5,145.4c0-1.2-0.6-1.9-1.8-1.9
		s-1.8,0.6-1.8,1.8v0.1c0,1.1,0.6,1.8,1.8,1.8S87.5,146.6,87.5,145.4z"/>
	<path class="st1" d="M94.6,151.2c-0.7,0-1-0.4-1-1v-4.3h-1V145h0.6c0.4,0,0.5-0.1,0.5-0.6v-1.2h0.9v1.7h1.4v0.8h-1.4v4.5h1.3v0.8
		H94.6z"/>
	<path class="st1" d="M96.8,145h0.9l0.7,2.7l0.7,2.7h0l0.8-2.7l0.8-2.7h0.9l0.8,2.7l0.8,2.7h0l0.6-2.7l0.7-2.7h0.9l-1.6,6.2h-1.2
		l-0.9-3l-0.5-1.9h0l-0.5,1.9l-0.9,3h-1.2L96.8,145z"/>
	<path class="st1" d="M106.1,148.1c0-2,1.1-3.2,2.8-3.2c1.7,0,2.7,1.3,2.7,3v0.5h-4.4v0.3c0,1.1,0.7,1.9,1.8,1.9
		c0.8,0,1.4-0.4,1.7-1.1l0.7,0.5c-0.4,0.8-1.3,1.4-2.4,1.4C107.2,151.4,106.1,150.1,106.1,148.1z M107.1,147.6L107.1,147.6l3.4,0.1
		v-0.1c0-1.1-0.7-1.8-1.6-1.8C107.9,145.7,107.1,146.5,107.1,147.6z"/>
	<path class="st1" d="M112.7,148.1c0-2,1.1-3.2,2.8-3.2c1.7,0,2.7,1.3,2.7,3v0.5h-4.4v0.3c0,1.1,0.7,1.9,1.8,1.9
		c0.8,0,1.4-0.4,1.7-1.1l0.7,0.5c-0.4,0.8-1.3,1.4-2.4,1.4C113.8,151.4,112.7,150.1,112.7,148.1z M113.7,147.6L113.7,147.6l3.4,0.1
		v-0.1c0-1.1-0.7-1.8-1.6-1.8C114.5,145.7,113.7,146.5,113.7,147.6z"/>
	<path class="st1" d="M121.1,151.2c-0.7,0-1-0.4-1-1v-4.3h-1V145h0.6c0.4,0,0.5-0.1,0.5-0.6v-1.2h0.9v1.7h1.4v0.8h-1.4v4.5h1.3v0.8
		H121.1z"/>
	<path class="st1" d="M123.4,150.2l0.7-0.6c0.5,0.6,1.1,0.9,1.8,0.9c0.8,0,1.3-0.4,1.3-1c0-0.5-0.3-0.9-1.1-1l-0.5-0.1
		c-1.1-0.2-2-0.6-2-1.8c0-1.2,0.9-1.8,2.2-1.8c1,0,1.7,0.4,2.2,1l-0.6,0.6c-0.3-0.4-0.8-0.8-1.6-0.8c-0.8,0-1.2,0.4-1.2,1
		c0,0.6,0.4,0.8,1.2,1l0.5,0.1c1.4,0.2,1.9,0.8,1.9,1.7c0,1.2-0.9,1.9-2.3,1.9C124.7,151.4,123.9,150.9,123.4,150.2z"/>
	<path class="st1" d="M129.6,152.9h-0.9c1.3-1.2,2.2-3.2,2.2-4.9v-1c0-1.7-0.9-3.7-2.2-4.9h0.9c1.2,1,2.2,3.1,2.2,5.4
		C131.8,149.8,130.8,151.9,129.6,152.9z"/>
</g>
<g>
	<path class="st2" d="M309.8,125.5c0-3.6,2.4-6.5,4.5-7.9h2.7c-2.8,2.1-4.5,3.7-5.1,6.4l0.1,0c0.5-1,1.4-1.8,2.9-1.8
		c2.1,0,3.7,1.5,3.7,3.9c0,2.5-1.7,4.3-4.4,4.3C311.5,130.4,309.8,128.6,309.8,125.5z M316.6,126.5v-0.3c0-1.5-0.9-2.3-2.3-2.3
		s-2.3,0.8-2.3,2.3v0.3c0,1.5,0.9,2.3,2.3,2.3S316.6,128,316.6,126.5z"/>
	<path class="st2" d="M326.1,130.2v-2.4h-5.8V126l5.1-8.4h2.7v8.5h1.7v1.6H328v2.4H326.1z M322,126.2h4.1v-6.7H326L322,126.2z"/>
	<path class="st2" d="M331.7,129.2V129c0-0.7,0.4-1.2,1.3-1.2s1.3,0.5,1.3,1.2v0.3c0,0.7-0.4,1.2-1.3,1.2S331.7,129.9,331.7,129.2z"
		/>
	<path class="st2" d="M345.4,130.2h-8.5v-1.9l4-3.6c1.3-1.1,2-2.1,2-3.3v-0.2c0-1.2-0.8-2-2-2c-1.4,0-2.1,0.9-2.4,2l-1.8-0.7
		c0.5-1.6,1.8-3.1,4.3-3.1c2.6,0,4,1.5,4,3.7c0,2-1.4,3.4-3,4.8l-3,2.5h6.3V130.2z"/>
	<path class="st2" d="M347.3,123.9c0-4.1,1.4-6.5,4.6-6.5s4.6,2.4,4.6,6.5c0,4.1-1.4,6.5-4.6,6.5S347.3,128,347.3,123.9z M354.2,125
		v-2.2c0-2.2-0.6-3.7-2.4-3.7s-2.4,1.5-2.4,3.7v2.2c0,2.2,0.6,3.7,2.4,3.7S354.2,127.2,354.2,125z"/>
	<path class="st2" d="M358,124.1c0-1.5,0.7-2.4,1.9-2.4s1.9,0.8,1.9,2.4s-0.7,2.4-1.9,2.4S358,125.6,358,124.1z M360.9,124.4v-0.7
		c0-0.9-0.3-1.4-1-1.4s-1,0.5-1,1.4v0.7c0,0.9,0.3,1.4,1,1.4S360.9,125.4,360.9,124.4z M359.4,130.2l5.8-8.4h0.9l-5.8,8.4H359.4z
		 M363.8,128c0-1.5,0.7-2.4,1.9-2.4c1.2,0,1.9,0.8,1.9,2.4s-0.7,2.4-1.9,2.4C364.5,130.4,363.8,129.5,363.8,128z M366.7,128.4v-0.7
		c0-0.9-0.3-1.4-1-1.4c-0.7,0-1,0.5-1,1.4v0.7c0,0.9,0.3,1.4,1,1.4C366.4,129.7,366.7,129.3,366.7,128.4z"/>
	<path class="st2" d="M374.4,121.1h0.9c-1.3,1.2-2.2,3.2-2.2,4.9v1c0,1.7,0.9,3.7,2.2,4.9h-0.9c-1.2-1-2.2-3-2.2-5.4
		C372.2,124.2,373.1,122.2,374.4,121.1z"/>
	<path class="st2" d="M381.6,130.2h-5.5v-1l2.7-2.5c0.8-0.7,1.4-1.6,1.4-2.4v-0.1c0-0.9-0.5-1.6-1.5-1.6c-1,0-1.5,0.6-1.7,1.4
		l-0.9-0.3c0.3-1,1.1-2,2.7-2c1.6,0,2.6,1,2.6,2.4c0,1.3-0.8,2.2-1.8,3.2l-2.3,2h4.4V130.2z"/>
	<path class="st2" d="M385.5,125.4c1.1,0,1.7-0.6,1.7-1.4v-0.1c0-0.9-0.6-1.3-1.5-1.3c-0.9,0-1.4,0.4-1.7,1l-0.7-0.6
		c0.4-0.7,1.2-1.4,2.5-1.4c1.4,0,2.5,0.8,2.5,2.1c0,1.1-0.7,1.7-1.6,2v0c0.9,0.2,1.8,0.9,1.8,2.1c0,1.4-1.1,2.4-2.8,2.4
		c-1.5,0-2.2-0.7-2.7-1.4l0.8-0.6c0.4,0.7,0.9,1.1,1.9,1.1c1.2,0,1.8-0.6,1.8-1.5v-0.1c0-1-0.6-1.5-1.8-1.5h-1v-0.9H385.5z"/>
	<path class="st2" d="M390.3,126c0-2.7,0.9-4.3,2.9-4.3s2.9,1.6,2.9,4.3s-0.9,4.3-2.9,4.3S390.3,128.8,390.3,126z M395,126.7v-1.4
		c0-1.6-0.5-2.8-1.8-2.8c-1.3,0-1.8,1.2-1.8,2.8v1.4c0,1.6,0.5,2.8,1.8,2.8C394.5,129.5,395,128.3,395,126.7z"/>
	<path class="st2" d="M401.3,130.2v-1.6h-4v-0.9l3.5-5.8h1.5v5.9h1.2v0.8h-1.2v1.6H401.3z M398.2,127.7h3.1v-5.1h-0.1L398.2,127.7z"
		/>
	<path class="st2" d="M409.2,130.2c-0.7,0-1-0.4-1-1v-4.3h-1V124h0.6c0.4,0,0.5-0.1,0.5-0.6v-1.2h0.9v1.7h1.4v0.8h-1.4v4.5h1.3v0.8
		H409.2z"/>
	<path class="st2" d="M411.4,124h0.9l0.7,2.7l0.7,2.7h0l0.8-2.7l0.8-2.7h0.9l0.8,2.7l0.8,2.7h0l0.6-2.7l0.7-2.7h0.9l-1.6,6.2h-1.2
		l-0.9-3l-0.5-1.9h0l-0.5,1.9l-0.9,3h-1.2L411.4,124z"/>
	<path class="st2" d="M420.8,127.1c0-2,1.1-3.2,2.8-3.2c1.7,0,2.7,1.3,2.7,3v0.5h-4.4v0.3c0,1.1,0.7,1.9,1.8,1.9
		c0.8,0,1.4-0.4,1.7-1.1l0.7,0.5c-0.4,0.8-1.3,1.4-2.4,1.4C421.9,130.4,420.8,129.1,420.8,127.1z M421.8,126.6L421.8,126.6l3.4,0.1
		v-0.1c0-1.1-0.7-1.8-1.6-1.8C422.5,124.7,421.8,125.5,421.8,126.6z"/>
	<path class="st2" d="M427.4,127.1c0-2,1.1-3.2,2.8-3.2c1.7,0,2.7,1.3,2.7,3v0.5h-4.4v0.3c0,1.1,0.7,1.9,1.8,1.9
		c0.8,0,1.4-0.4,1.7-1.1l0.7,0.5c-0.4,0.8-1.3,1.4-2.4,1.4C428.5,130.4,427.4,129.1,427.4,127.1z M428.4,126.6L428.4,126.6l3.4,0.1
		v-0.1c0-1.1-0.7-1.8-1.6-1.8C429.1,124.7,428.4,125.5,428.4,126.6z"/>
	<path class="st2" d="M435.8,130.2c-0.7,0-1-0.4-1-1v-4.3h-1V124h0.6c0.4,0,0.5-0.1,0.5-0.6v-1.2h0.9v1.7h1.4v0.8h-1.4v4.5h1.3v0.8
		H435.8z"/>
	<path class="st2" d="M438,129.2l0.7-0.6c0.5,0.6,1.1,0.9,1.8,0.9c0.8,0,1.3-0.4,1.3-1c0-0.5-0.3-0.9-1.1-1l-0.5-0.1
		c-1.1-0.2-2-0.6-2-1.8c0-1.2,0.9-1.8,2.2-1.8c1,0,1.7,0.4,2.2,1l-0.6,0.6c-0.3-0.4-0.8-0.8-1.6-0.8c-0.8,0-1.2,0.4-1.2,1
		c0,0.6,0.4,0.8,1.2,1l0.5,0.1c1.4,0.2,1.9,0.8,1.9,1.7c0,1.2-0.9,1.9-2.3,1.9C439.3,130.4,438.6,129.9,438,129.2z"/>
	<path class="st2" d="M444.3,131.9h-0.9c1.3-1.2,2.2-3.2,2.2-4.9v-1c0-1.7-0.9-3.7-2.2-4.9h0.9c1.2,1,2.2,3.1,2.2,5.4
		C446.5,128.8,445.5,130.9,444.3,131.9z"/>
</g>
<g>
	<path class="st0" d="M41.7,23.9V29c0,1.6,0.5,2.4,2,2.4s2-0.8,2-2.4v-5.2h1v4.9c0,2.4-0.8,3.6-3,3.6c-2.2,0-3-1.1-3-3.6v-4.9H41.7z
		"/>
	<path class="st0" d="M48.8,32.2V26h1v1h0c0.3-0.7,0.8-1.2,1.8-1.2c1.3,0,2.1,0.9,2.1,2.4v4h-1v-3.8c0-1.1-0.5-1.7-1.4-1.7
		c-0.8,0-1.5,0.4-1.5,1.2v4.3H48.8z"/>
	<path class="st0" d="M55.2,29.1c0-2,1-3.2,2.8-3.2c1.2,0,2,0.6,2.3,1.5l-0.8,0.4c-0.2-0.6-0.8-1-1.5-1c-1.1,0-1.7,0.8-1.7,1.9v1.1
		c0,1.1,0.6,1.9,1.7,1.9c0.8,0,1.3-0.4,1.7-1.1l0.7,0.5c-0.4,0.9-1.2,1.5-2.4,1.5C56.2,32.4,55.2,31.1,55.2,29.1z"/>
	<path class="st0" d="M66.2,32.2c-0.7,0-1-0.4-1.1-1h-0.1c-0.3,0.8-0.9,1.2-1.8,1.2c-1.3,0-2.1-0.7-2.1-1.9c0-1.2,0.8-1.8,2.6-1.8
		h1.2v-0.6c0-0.9-0.5-1.4-1.5-1.4c-0.7,0-1.2,0.4-1.6,0.9l-0.6-0.5c0.3-0.7,1.1-1.2,2.2-1.2c1.5,0,2.4,0.8,2.4,2.1v3.4h0.7v0.8H66.2
		z M65.1,30.4v-1h-1.3c-1.1,0-1.6,0.3-1.6,0.9v0.3c0,0.6,0.5,1,1.2,1C64.4,31.6,65.1,31.1,65.1,30.4z"/>
	<path class="st0" d="M69.5,32.2c-0.7,0-1-0.4-1-1v-4.3h-1V26H68c0.4,0,0.5-0.1,0.5-0.6v-1.2h0.9V26h1.4v0.8h-1.4v4.5h1.3v0.8H69.5z
		"/>
	<path class="st0" d="M71.8,29.1c0-2,1.1-3.2,2.8-3.2c1.7,0,2.7,1.3,2.7,3v0.5h-4.4v0.3c0,1.1,0.7,1.9,1.8,1.9
		c0.8,0,1.4-0.4,1.7-1.1L77,31c-0.4,0.8-1.3,1.4-2.4,1.4C72.9,32.4,71.8,31.1,71.8,29.1z M72.8,28.6L72.8,28.6l3.4,0.1v-0.1
		c0-1.1-0.7-1.8-1.6-1.8C73.5,26.7,72.8,27.5,72.8,28.6z"/>
	<path class="st0" d="M81.1,34.8c-1.9,0-2.7-0.6-2.7-1.5c0-0.7,0.4-1,1-1.2v-0.1c-0.3-0.2-0.6-0.4-0.6-0.9c0-0.6,0.4-0.9,1.1-1.1v0
		c-0.7-0.3-1.2-1-1.2-1.9c0-1.3,0.9-2.1,2.3-2.1c0.4,0,0.8,0.1,1.2,0.2V26c0-0.5,0.2-0.8,0.7-0.8h0.9V26h-1.2v0.4
		c0.4,0.4,0.7,0.9,0.7,1.6c0,1.3-0.9,2.1-2.3,2.1c-0.2,0-0.4,0-0.6-0.1c-0.4,0.1-0.8,0.3-0.8,0.7c0,0.4,0.4,0.5,0.9,0.5h1.3
		c1.5,0,2.2,0.6,2.2,1.6C84.1,34.2,83.1,34.8,81.1,34.8z M81.9,32.2h-2.1c-0.4,0.2-0.6,0.5-0.6,0.8c0,0.5,0.4,1,1.3,1h0.9
		c1.1,0,1.7-0.3,1.7-1C83.2,32.5,82.8,32.2,81.9,32.2z M82.3,28.2v-0.3c0-0.8-0.5-1.2-1.3-1.2c-0.8,0-1.3,0.4-1.3,1.2v0.3
		c0,0.8,0.5,1.2,1.3,1.2C81.8,29.4,82.3,29,82.3,28.2z"/>
	<path class="st0" d="M84.7,29.1c0-2,1.1-3.2,2.8-3.2s2.8,1.3,2.8,3.2s-1.1,3.2-2.8,3.2S84.7,31.1,84.7,29.1z M89.2,29.6v-0.9
		c0-1.3-0.7-1.9-1.8-1.9s-1.8,0.6-1.8,1.9v0.9c0,1.3,0.7,1.9,1.8,1.9S89.2,30.9,89.2,29.6z"/>
	<path class="st0" d="M91.8,32.2V26h1v1.1h0.1c0.2-0.6,0.8-1.1,1.8-1.1H95v1h-0.6c-1,0-1.7,0.4-1.7,1v4.2H91.8z"/>
	<path class="st0" d="M96.1,24v-0.2c0-0.3,0.2-0.5,0.6-0.5c0.4,0,0.6,0.2,0.6,0.5V24c0,0.3-0.2,0.5-0.6,0.5
		C96.3,24.6,96.1,24.4,96.1,24z M96.2,26h1v6.2h-1V26z"/>
	<path class="st0" d="M98.6,32.2v-0.8l3.5-4.5h-3.4V26h4.6v0.7l-3.6,4.6h3.7v0.8H98.6z"/>
	<path class="st0" d="M104.2,29.1c0-2,1.1-3.2,2.8-3.2c1.7,0,2.7,1.3,2.7,3v0.5h-4.4v0.3c0,1.1,0.7,1.9,1.8,1.9
		c0.8,0,1.4-0.4,1.7-1.1l0.7,0.5c-0.4,0.8-1.3,1.4-2.4,1.4C105.3,32.4,104.2,31.1,104.2,29.1z M105.2,28.6L105.2,28.6l3.4,0.1v-0.1
		c0-1.1-0.7-1.8-1.6-1.8C106,26.7,105.2,27.5,105.2,28.6z"/>
	<path class="st0" d="M115.2,31.2L115.2,31.2c-0.4,0.8-1,1.2-1.9,1.2c-1.5,0-2.5-1.3-2.5-3.2s1-3.2,2.5-3.2c0.9,0,1.5,0.4,1.8,1.2h0
		v-3.7h1v8.9h-1V31.2z M115.2,30.2v-2.3c0-0.7-0.7-1.2-1.6-1.2c-1.1,0-1.8,0.7-1.8,1.8v1.1c0,1.1,0.7,1.8,1.8,1.8
		C114.5,31.5,115.2,31.1,115.2,30.2z"/>
	<path class="st0" d="M124,24.7v7.5h-1v-7.5h-2.7v-0.9h6.3v0.9H124z"/>
	<path class="st0" d="M126.8,26h0.9l0.7,2.7l0.7,2.7h0l0.8-2.7l0.8-2.7h0.9l0.8,2.7l0.8,2.7h0l0.6-2.7l0.7-2.7h0.9l-1.6,6.2h-1.2
		l-0.9-3l-0.5-1.9h0l-0.5,1.9l-0.9,3h-1.2L126.8,26z"/>
	<path class="st0" d="M136.1,29.1c0-2,1.1-3.2,2.8-3.2c1.7,0,2.7,1.3,2.7,3v0.5h-4.4v0.3c0,1.1,0.7,1.9,1.8,1.9
		c0.8,0,1.4-0.4,1.7-1.1l0.7,0.5c-0.4,0.8-1.3,1.4-2.4,1.4C137.3,32.4,136.1,31.1,136.1,29.1z M137.2,28.6L137.2,28.6l3.4,0.1v-0.1
		c0-1.1-0.7-1.8-1.6-1.8C137.9,26.7,137.2,27.5,137.2,28.6z"/>
	<path class="st0" d="M142.7,29.1c0-2,1.1-3.2,2.8-3.2c1.7,0,2.7,1.3,2.7,3v0.5h-4.4v0.3c0,1.1,0.7,1.9,1.8,1.9
		c0.8,0,1.4-0.4,1.7-1.1L148,31c-0.4,0.8-1.3,1.4-2.4,1.4C143.8,32.4,142.7,31.1,142.7,29.1z M143.7,28.6L143.7,28.6l3.4,0.1v-0.1
		c0-1.1-0.7-1.8-1.6-1.8C144.5,26.7,143.7,27.5,143.7,28.6z"/>
	<path class="st0" d="M151.1,32.2c-0.7,0-1-0.4-1-1v-4.3h-1V26h0.6c0.4,0,0.5-0.1,0.5-0.6v-1.2h0.9V26h1.4v0.8h-1.4v4.5h1.3v0.8
		H151.1z"/>
	<path class="st0" d="M153.4,31.2l0.7-0.6c0.5,0.6,1.1,0.9,1.8,0.9c0.8,0,1.3-0.4,1.3-1c0-0.5-0.3-0.9-1.1-1l-0.5-0.1
		c-1.1-0.2-2-0.6-2-1.8c0-1.2,0.9-1.8,2.2-1.8c1,0,1.7,0.4,2.2,1l-0.6,0.6c-0.3-0.4-0.8-0.8-1.6-0.8c-0.8,0-1.2,0.4-1.2,1
		c0,0.6,0.4,0.8,1.2,1l0.5,0.1c1.4,0.2,1.9,0.8,1.9,1.7c0,1.2-0.9,1.9-2.3,1.9C154.7,32.4,154,31.9,153.4,31.2z"/>
</g>
<g>
	<path class="st0" d="M31,53.2v-1.7h3.5v-9.4h-0.1l-2.9,3.1l-1.2-1.1l3.2-3.5h3.1v10.9h3.1v1.7H31z"/>
	<path class="st0" d="M45.5,53.2h-2.7c2.8-2.1,4.5-3.7,5.1-6.4l-0.1,0c-0.5,1-1.4,1.8-2.9,1.8c-2.1,0-3.7-1.5-3.7-3.9
		c0-2.5,1.7-4.3,4.4-4.3c2.8,0,4.4,1.9,4.4,4.9C50,49,47.5,51.9,45.5,53.2z M47.9,44.7v-0.3c0-1.5-0.9-2.3-2.3-2.3
		c-1.5,0-2.3,0.8-2.3,2.3v0.3c0,1.5,0.9,2.3,2.3,2.3C47,47,47.9,46.2,47.9,44.7z"/>
	<path class="st0" d="M52.3,52.2V52c0-0.7,0.4-1.2,1.3-1.2c0.9,0,1.3,0.5,1.3,1.2v0.3c0,0.7-0.4,1.2-1.3,1.2
		C52.7,53.4,52.3,52.9,52.3,52.2z"/>
	<path class="st0" d="M61.5,53.2h-2.7c2.8-2.1,4.5-3.7,5.1-6.4l-0.1,0c-0.5,1-1.4,1.8-2.9,1.8c-2.1,0-3.7-1.5-3.7-3.9
		c0-2.5,1.7-4.3,4.4-4.3c2.8,0,4.4,1.9,4.4,4.9C66,49,63.6,51.9,61.5,53.2z M63.9,44.7v-0.3c0-1.5-0.9-2.3-2.3-2.3
		c-1.5,0-2.3,0.8-2.3,2.3v0.3c0,1.5,0.9,2.3,2.3,2.3C63,47,63.9,46.2,63.9,44.7z"/>
	<path class="st0" d="M76.1,42.4h-5.6l-0.3,4.4h0.1c0.6-1,1.2-1.6,2.6-1.6c2.2,0,3.8,1.5,3.8,3.9c0,2.5-1.6,4.3-4.5,4.3
		c-2.2,0-3.4-1.1-4.2-2.3l1.5-1.2c0.6,1,1.3,1.7,2.7,1.7c1.5,0,2.3-0.9,2.3-2.3v-0.2c0-1.4-0.8-2.3-2.3-2.3c-1.1,0-1.7,0.5-2.1,1
		l-1.7-0.2l0.5-7h7.1V42.4z"/>
	<path class="st0" d="M78.6,47.1c0-1.5,0.7-2.4,1.9-2.4s1.9,0.8,1.9,2.4s-0.7,2.4-1.9,2.4S78.6,48.6,78.6,47.1z M81.5,47.4v-0.7
		c0-0.9-0.3-1.4-1-1.4s-1,0.5-1,1.4v0.7c0,0.9,0.3,1.4,1,1.4S81.5,48.4,81.5,47.4z M80,53.2l5.8-8.4h0.9l-5.8,8.4H80z M84.3,51
		c0-1.5,0.7-2.4,1.9-2.4c1.2,0,1.9,0.8,1.9,2.4s-0.7,2.4-1.9,2.4C85,53.4,84.3,52.5,84.3,51z M87.3,51.4v-0.7c0-0.9-0.3-1.4-1-1.4
		c-0.7,0-1,0.5-1,1.4v0.7c0,0.9,0.3,1.4,1,1.4C86.9,52.7,87.3,52.3,87.3,51.4z"/>
	<path class="st0" d="M94.9,44.1h0.9c-1.3,1.2-2.2,3.2-2.2,4.9v1c0,1.7,0.9,3.7,2.2,4.9h-0.9c-1.2-1-2.2-3-2.2-5.4
		C92.7,47.2,93.7,45.2,94.9,44.1z"/>
	<path class="st0" d="M97.9,53.2l3.2-7.5h-3.6v1.6h-0.9v-2.4h5.5v0.9l-3.1,7.5H97.9z"/>
	<path class="st0" d="M104,53.2v-0.9h2.3v-6.7h-0.1l-2.1,2l-0.6-0.6l2.2-2.1h1.6v7.5h2.2v0.9H104z"/>
	<path class="st0" d="M111,50.2c0-2.5,1.6-4.4,3-5.3h1.3c-1.8,1.3-2.8,2.4-3.2,4.3l0.1,0c0.4-0.7,1-1.2,2-1.2c1.4,0,2.5,1,2.5,2.6
		c0,1.6-1.1,2.8-2.8,2.8C112,53.4,111,52.1,111,50.2z M115.5,50.7L115.5,50.7c0-1.2-0.6-1.9-1.8-1.9s-1.8,0.6-1.8,1.8v0.1
		c0,1.1,0.6,1.8,1.8,1.8S115.5,51.9,115.5,50.7z"/>
	<path class="st0" d="M122.6,53.2c-0.7,0-1-0.4-1-1v-4.3h-1V47h0.6c0.4,0,0.5-0.1,0.5-0.6v-1.2h0.9V47h1.4v0.8h-1.4v4.5h1.3v0.8
		H122.6z"/>
	<path class="st0" d="M124.8,47h0.9l0.7,2.7l0.7,2.7h0l0.8-2.7l0.8-2.7h0.9l0.8,2.7l0.8,2.7h0l0.6-2.7l0.7-2.7h0.9l-1.6,6.2h-1.2
		l-0.9-3l-0.5-1.9h0l-0.5,1.9l-0.9,3h-1.2L124.8,47z"/>
	<path class="st0" d="M134.1,50.1c0-2,1.1-3.2,2.8-3.2c1.7,0,2.7,1.3,2.7,3v0.5h-4.4v0.3c0,1.1,0.7,1.9,1.8,1.9
		c0.8,0,1.4-0.4,1.7-1.1l0.7,0.5c-0.4,0.8-1.3,1.4-2.4,1.4C135.2,53.4,134.1,52.1,134.1,50.1z M135.1,49.6L135.1,49.6l3.4,0.1v-0.1
		c0-1.1-0.7-1.8-1.6-1.8C135.9,47.7,135.1,48.5,135.1,49.6z"/>
	<path class="st0" d="M140.7,50.1c0-2,1.1-3.2,2.8-3.2c1.7,0,2.7,1.3,2.7,3v0.5h-4.4v0.3c0,1.1,0.7,1.9,1.8,1.9
		c0.8,0,1.4-0.4,1.7-1.1l0.7,0.5c-0.4,0.8-1.3,1.4-2.4,1.4C141.8,53.4,140.7,52.1,140.7,50.1z M141.7,49.6L141.7,49.6l3.4,0.1v-0.1
		c0-1.1-0.7-1.8-1.6-1.8C142.5,47.7,141.7,48.5,141.7,49.6z"/>
	<path class="st0" d="M149.1,53.2c-0.7,0-1-0.4-1-1v-4.3h-1V47h0.6c0.4,0,0.5-0.1,0.5-0.6v-1.2h0.9V47h1.4v0.8h-1.4v4.5h1.3v0.8
		H149.1z"/>
	<path class="st0" d="M151.4,52.2l0.7-0.6c0.5,0.6,1.1,0.9,1.8,0.9c0.8,0,1.3-0.4,1.3-1c0-0.5-0.3-0.9-1.1-1l-0.5-0.1
		c-1.1-0.2-2-0.6-2-1.8c0-1.2,0.9-1.8,2.2-1.8c1,0,1.7,0.4,2.2,1l-0.6,0.6c-0.3-0.4-0.8-0.8-1.6-0.8c-0.8,0-1.2,0.4-1.2,1
		c0,0.6,0.4,0.8,1.2,1l0.5,0.1c1.4,0.2,1.9,0.8,1.9,1.7c0,1.2-0.9,1.9-2.3,1.9C152.7,53.4,151.9,52.9,151.4,52.2z"/>
	<path class="st0" d="M157.6,54.9h-0.9c1.3-1.2,2.2-3.2,2.2-4.9v-1c0-1.7-0.9-3.7-2.2-4.9h0.9c1.2,1,2.2,3.1,2.2,5.4
		C159.8,51.8,158.8,53.9,157.6,54.9z"/>
</g>
</svg>
