<?xml version="1.0" encoding="utf-8"?>
<!-- Generator: Adobe Illustrator 23.0.3, SVG Export Plug-In . SVG Version: 6.00 Build 0)  -->
<svg version="1.1" id="Layer_1" xmlns="http://www.w3.org/2000/svg" xmlns:xlink="http://www.w3.org/1999/xlink" x="0px" y="0px"
	 viewBox="0 0 473 173.4" style="enable-background:new 0 0 473 173.4;" xml:space="preserve">
<style type="text/css">
	.st0{fill:#353D42;}
	.st1{fill:#E0001B;}
	.st2{fill:#00AEEF;}
	.st3{fill:#FFFFFF;}
</style>
<g>
	<g>
		<g>
			<g>
				<g>
					<path class="st0" d="M231.8,93l-76-26.2c11.3-32.9,41.1-54.2,76-54.2V93z"/>
				</g>
			</g>
		</g>
		<g>
			<g>
				<g>
					<path class="st1" d="M231.8,93l-62.5,50.6c-18.1-22.3-22.9-49.6-13.5-76.7L231.8,93z"/>
				</g>
			</g>
		</g>
		<g>
			<g>
				<g>
					<path class="st2" d="M231.8,93V12.6c44.4,0,80.4,36,80.4,80.4s-36,80.4-80.4,80.4c-25.2,0-46.6-10.2-62.5-29.8L231.8,93z"/>
				</g>
			</g>
		</g>
	</g>
</g>
<g>
	<g>
		<g>
			<g>
				<circle class="st3" cx="231" cy="93.7" r="54"/>
			</g>
		</g>
	</g>
	<g>
		<g>
			<g>
				<path d="M199.6,112.9c-0.8,0-1.2-0.5-1.2-1.2v-5h-1.2v-1h0.7c0.5,0,0.6-0.2,0.6-0.7v-1.3h1v2h1.6v1h-1.6v5.3h1.5v1h-1.4
					L199.6,112.9L199.6,112.9z"/>
			</g>
		</g>
		<g>
			<g>
				<path d="M202.3,109.3c0-2.3,1.3-3.8,3.3-3.8s3.3,1.5,3.3,3.8s-1.3,3.8-3.3,3.8S202.3,111.6,202.3,109.3z M207.6,109.8v-1
					c0-1.5-0.9-2.3-2.1-2.3s-2.1,0.7-2.1,2.3v1c0,1.5,0.9,2.3,2.1,2.3S207.6,111.4,207.6,109.8z"/>
			</g>
		</g>
		<g>
			<g>
				<path d="M212.3,112.9c-0.8,0-1.2-0.5-1.2-1.2v-5h-1.2v-1h0.7c0.5,0,0.6-0.2,0.6-0.7v-1.3h1v2h1.6v1h-1.6v5.3h1.5v1h-1.4
					L212.3,112.9L212.3,112.9z"/>
			</g>
		</g>
		<g>
			<g>
				<path d="M220.8,112.9c-0.8,0-1.2-0.5-1.2-1.2h-0.1c-0.3,0.9-1.1,1.3-2.1,1.3c-1.5,0-2.4-0.8-2.4-2.2s1-2.1,3.1-2.1h1.4V108
					c0-1-0.6-1.6-1.7-1.6c-0.9,0-1.4,0.4-1.8,1.1l-0.7-0.6c0.4-0.8,1.3-1.4,2.6-1.4c1.7,0,2.8,0.9,2.8,2.4v4h0.8v1H220.8z
					 M219.5,110.8v-1.2H218c-1.3,0-1.8,0.4-1.8,1.1v0.3c0,0.7,0.6,1.1,1.4,1.1C218.7,112.1,219.5,111.6,219.5,110.8z"/>
			</g>
		</g>
		<g>
			<g>
				<path d="M224.2,112.9c-0.8,0-1.2-0.5-1.2-1.2v-9.2h1.1v9.4h1.1v1H224.2z"/>
			</g>
		</g>
		<g>
			<g>
				<path d="M231.8,112.9c-0.8,0-1.2-0.5-1.2-1.2v-5h-1.2v-1h0.7c0.5,0,0.6-0.2,0.6-0.7v-1.3h1v2h1.6v1h-1.6v5.3h1.5v1h-1.4
					L231.8,112.9L231.8,112.9z"/>
			</g>
		</g>
		<g>
			<g>
				<path d="M234.3,105.7h1.1l0.8,3.1l0.8,3.2l0,0l0.9-3.2l0.9-3.1h1l0.9,3.1l0.9,3.2l0,0l0.7-3.2l0.8-3.1h1.1l-1.9,7.2h-1.4l-1-3.5
					l-0.6-2.2l0,0l-0.6,2.2l-1,3.5h-1.4L234.3,105.7z"/>
			</g>
		</g>
		<g>
			<g>
				<path d="M245.2,109.3c0-2.3,1.3-3.8,3.3-3.8c1.9,0,3.1,1.5,3.1,3.5v0.5h-5.2v0.3c0,1.2,0.8,2.2,2.1,2.2c0.9,0,1.6-0.4,2-1.2
					l0.8,0.6c-0.5,1-1.5,1.7-2.9,1.7C246.5,113.1,245.2,111.6,245.2,109.3z M246.4,108.7L246.4,108.7l4,0.1v-0.2
					c0-1.3-0.8-2.1-1.9-2.1C247.3,106.5,246.4,107.4,246.4,108.7z"/>
			</g>
		</g>
		<g>
			<g>
				<path d="M252.9,109.3c0-2.3,1.3-3.8,3.3-3.8c1.9,0,3.1,1.5,3.1,3.5v0.5h-5.2v0.3c0,1.2,0.8,2.2,2.1,2.2c0.9,0,1.6-0.4,2-1.2
					l0.8,0.6c-0.5,1-1.5,1.7-2.9,1.7C254.2,113.1,252.9,111.6,252.9,109.3z M254.1,108.7L254.1,108.7l4,0.1v-0.2
					c0-1.3-0.8-2.1-1.9-2.1C254.9,106.5,254.1,107.4,254.1,108.7z"/>
			</g>
		</g>
		<g>
			<g>
				<path d="M262.7,112.9c-0.8,0-1.2-0.5-1.2-1.2v-5h-1.2v-1h0.7c0.5,0,0.6-0.2,0.6-0.7v-1.3h1v2h1.6v1h-1.6v5.3h1.5v1h-1.4V112.9
					L262.7,112.9z"/>
			</g>
		</g>
	</g>
</g>
<g>
	<g>
		<g>
			<path class="st2" d="M320.5,83.8c0-2.8,1.3-4.4,3.4-4.4c1.4,0,2.4,0.7,2.9,1.8l-0.8,0.5c-0.3-0.9-1-1.4-2.1-1.4
				c-1.4,0-2.3,1.1-2.3,2.9v1.2c0,1.7,0.9,2.8,2.3,2.8c1.1,0,1.8-0.6,2.1-1.5l0.8,0.5c-0.5,1.2-1.5,1.9-2.9,1.9
				C321.8,88.1,320.5,86.6,320.5,83.8z"/>
		</g>
	</g>
	<g>
		<g>
			<path class="st2" d="M333.6,87.9l-0.8-2.5h-3.4l-0.8,2.5h-1l2.9-8.4h1.3l2.9,8.4H333.6z M331.1,80.5L331.1,80.5l-1.5,4.1h2.9
				L331.1,80.5z"/>
		</g>
	</g>
	<g>
		<g>
			<path class="st2" d="M341.5,87.9l-0.8-2.5h-3.4l-0.8,2.5h-1l2.9-8.4h1.3l2.9,8.4H341.5z M339,80.5L339,80.5l-1.5,4.1h2.9
				L339,80.5z"/>
		</g>
	</g>
	<g>
		<g>
			<path class="st2" d="M347.8,87.9h-1v-8.4h3.3c1.5,0,2.3,0.9,2.3,2.4c0,1.2-0.6,2.1-1.7,2.3l1.9,3.7h-1.1l-1.8-3.6h-2v3.6H347.8z
				 M350.1,83.5c0.8,0,1.3-0.4,1.3-1.2v-0.6c0-0.8-0.5-1.2-1.3-1.2h-2.3v3C347.8,83.5,350.1,83.5,350.1,83.5z"/>
		</g>
	</g>
	<g>
		<g>
			<path class="st2" d="M353.7,84.8c0-2,1.1-3.2,2.8-3.2c1.7,0,2.7,1.3,2.7,3v0.5h-4.4v0.3c0,1.1,0.7,1.9,1.8,1.9
				c0.8,0,1.4-0.4,1.7-1.1l0.7,0.5c-0.4,0.8-1.3,1.4-2.4,1.4C354.8,88.1,353.7,86.8,353.7,84.8z M354.7,84.3L354.7,84.3l3.4,0.1
				v-0.1c0-1.1-0.7-1.8-1.6-1.8C355.5,82.4,354.7,83.2,354.7,84.3z"/>
		</g>
	</g>
	<g>
		<g>
			<path class="st2" d="M361.8,87.9c-0.7,0-1-0.4-1-1V79h1v8h0.9v0.8L361.8,87.9L361.8,87.9z"/>
		</g>
	</g>
	<g>
		<g>
			<path class="st2" d="M368.5,87.9c-0.7,0-1-0.4-1.1-1h-0.1c-0.3,0.8-0.9,1.2-1.8,1.2c-1.3,0-2.1-0.7-2.1-1.9
				c0-1.2,0.8-1.8,2.6-1.8h1.2v-0.6c0-0.9-0.5-1.4-1.5-1.4c-0.7,0-1.2,0.4-1.6,0.9l-0.6-0.5c0.3-0.7,1.1-1.2,2.2-1.2
				c1.5,0,2.4,0.8,2.4,2.1v3.4h0.7v0.8H368.5z M367.4,86.1v-1h-1.3c-1.1,0-1.6,0.3-1.6,0.9v0.3c0,0.6,0.5,1,1.2,1
				C366.7,87.3,367.4,86.8,367.4,86.1z"/>
		</g>
	</g>
	<g>
		<g>
			<path class="st2" d="M371.8,87.9c-0.7,0-1-0.4-1-1v-4.3h-1v-0.9h0.6c0.4,0,0.5-0.1,0.5-0.6v-1.2h0.9v1.7h1.4v0.8h-1.4v4.5h1.3
				v0.8h-1.3V87.9z"/>
		</g>
	</g>
	<g>
		<g>
			<path class="st2" d="M374.1,84.8c0-2,1.1-3.2,2.8-3.2c1.7,0,2.7,1.3,2.7,3v0.5h-4.4v0.3c0,1.1,0.7,1.9,1.8,1.9
				c0.8,0,1.4-0.4,1.7-1.1l0.7,0.5c-0.4,0.8-1.3,1.4-2.4,1.4C375.3,88.1,374.1,86.8,374.1,84.8z M375.2,84.3L375.2,84.3l3.4,0.1
				v-0.1c0-1.1-0.7-1.8-1.6-1.8C375.9,82.4,375.2,83.2,375.2,84.3z"/>
		</g>
	</g>
	<g>
		<g>
			<path class="st2" d="M385.2,86.9L385.2,86.9c-0.4,0.8-1,1.2-1.9,1.2c-1.5,0-2.5-1.3-2.5-3.2s1-3.2,2.5-3.2c0.9,0,1.5,0.4,1.8,1.2
				l0,0v-3.7h1v8.9h-1v-1.2C385.1,86.9,385.2,86.9,385.2,86.9z M385.2,85.9v-2.3c0-0.7-0.7-1.2-1.6-1.2c-1.1,0-1.8,0.7-1.8,1.8v1.1
				c0,1.1,0.7,1.8,1.8,1.8C384.4,87.2,385.2,86.8,385.2,85.9z"/>
		</g>
	</g>
	<g>
		<g>
			<path class="st2" d="M393.9,80.4v7.5h-1v-7.5h-2.7v-0.9h6.3v0.9H393.9z"/>
		</g>
	</g>
	<g>
		<g>
			<path class="st2" d="M396.7,81.7h0.9l0.7,2.7l0.7,2.7l0,0l0.8-2.7l0.8-2.7h0.9l0.8,2.7l0.8,2.7l0,0l0.6-2.7l0.7-2.7h0.9l-1.6,6.2
				h-1.2l-0.9-3l-0.5-1.9l0,0l-0.5,1.9l-0.9,3h-1.2L396.7,81.7z"/>
		</g>
	</g>
	<g>
		<g>
			<path class="st2" d="M406.1,84.8c0-2,1.1-3.2,2.8-3.2c1.7,0,2.7,1.3,2.7,3v0.5h-4.4v0.3c0,1.1,0.7,1.9,1.8,1.9
				c0.8,0,1.4-0.4,1.7-1.1l0.7,0.5c-0.4,0.8-1.3,1.4-2.4,1.4C407.2,88.1,406.1,86.8,406.1,84.8z M407.1,84.3L407.1,84.3l3.4,0.1
				v-0.1c0-1.1-0.7-1.8-1.6-1.8C407.8,82.4,407.1,83.2,407.1,84.3z"/>
		</g>
	</g>
	<g>
		<g>
			<path class="st2" d="M412.7,84.8c0-2,1.1-3.2,2.8-3.2c1.7,0,2.7,1.3,2.7,3v0.5h-4.5v0.3c0,1.1,0.7,1.9,1.8,1.9
				c0.8,0,1.4-0.4,1.7-1.1l0.7,0.5c-0.4,0.8-1.3,1.4-2.4,1.4C413.8,88.1,412.7,86.8,412.7,84.8z M413.7,84.3L413.7,84.3l3.4,0.1
				v-0.1c0-1.1-0.7-1.8-1.6-1.8C414.4,82.4,413.7,83.2,413.7,84.3z"/>
		</g>
	</g>
	<g>
		<g>
			<path class="st2" d="M421.1,87.9c-0.7,0-1-0.4-1-1v-4.3h-1v-0.9h0.6c0.4,0,0.5-0.1,0.5-0.6v-1.2h0.9v1.7h1.4v0.8H421v4.5h1.3v0.8
				h-1.2L421.1,87.9L421.1,87.9z"/>
		</g>
	</g>
	<g>
		<g>
			<path class="st2" d="M423.3,86.9l0.7-0.6c0.5,0.6,1.1,0.9,1.8,0.9c0.8,0,1.3-0.4,1.3-1c0-0.5-0.3-0.9-1.1-1l-0.5-0.1
				c-1.1-0.2-2-0.6-2-1.8c0-1.2,0.9-1.8,2.2-1.8c1,0,1.7,0.4,2.2,1l-0.6,0.6c-0.3-0.4-0.8-0.8-1.6-0.8c-0.8,0-1.2,0.4-1.2,1
				s0.4,0.8,1.2,1l0.5,0.1c1.4,0.2,1.9,0.8,1.9,1.7c0,1.2-0.9,1.9-2.3,1.9C424.6,88.1,423.9,87.6,423.3,86.9z"/>
		</g>
	</g>
</g>
<g>
	<g>
		<g>
			<path class="st1" d="M54.3,104.8c0-2.8,1.3-4.4,3.4-4.4c1.4,0,2.4,0.7,2.9,1.8l-0.8,0.5c-0.3-0.9-1-1.4-2.1-1.4
				c-1.4,0-2.3,1.1-2.3,2.9v1.2c0,1.7,0.9,2.8,2.3,2.8c1.1,0,1.8-0.6,2.1-1.5l0.8,0.5c-0.5,1.2-1.5,1.9-2.9,1.9
				C55.5,109.1,54.3,107.6,54.3,104.8z"/>
		</g>
	</g>
	<g>
		<g>
			<path class="st1" d="M63,108.9c-0.7,0-1-0.4-1-1V100h1v8h0.9v0.8H63V108.9z"/>
		</g>
	</g>
	<g>
		<g>
			<path class="st1" d="M65.2,100.7v-0.2c0-0.3,0.2-0.5,0.6-0.5c0.4,0,0.6,0.2,0.6,0.5v0.2c0,0.3-0.2,0.5-0.6,0.5
				C65.4,101.3,65.2,101.1,65.2,100.7z M65.3,102.7h1v6.2h-1V102.7z"/>
		</g>
	</g>
	<g>
		<g>
			<path class="st1" d="M67.8,105.8c0-2,1-3.2,2.8-3.2c1.2,0,2,0.6,2.3,1.5l-0.8,0.4c-0.2-0.6-0.8-1-1.5-1c-1.1,0-1.7,0.8-1.7,1.9
				v1.1c0,1.1,0.6,1.9,1.7,1.9c0.8,0,1.3-0.4,1.7-1.1l0.7,0.5c-0.4,0.9-1.2,1.5-2.4,1.5C68.9,109.1,67.8,107.8,67.8,105.8z"/>
		</g>
	</g>
	<g>
		<g>
			<path class="st1" d="M74.3,100.1h1v5.6l0,0l0.9-1.1l1.8-1.9h1.2l-2.3,2.4l2.5,3.7h-1.2l-2.1-3.2l-0.9,0.9v2.2h-1v-8.6L74.3,100.1
				L74.3,100.1z"/>
		</g>
	</g>
	<g>
		<g>
			<path class="st1" d="M80.7,100.1h1v3.7l0,0c0.3-0.8,1-1.2,1.8-1.2c1.5,0,2.5,1.3,2.5,3.2c0,2-1,3.2-2.5,3.2
				c-0.9,0-1.4-0.4-1.8-1.2l0,0v1h-1V100.1z M85,106.4v-1.1c0-1.1-0.7-1.8-1.8-1.8c-0.9,0-1.6,0.5-1.6,1.2v2.3
				c0,0.8,0.7,1.3,1.6,1.3C84.3,108.2,85,107.5,85,106.4z"/>
		</g>
	</g>
	<g>
		<g>
			<path class="st1" d="M92.1,108.9c-0.7,0-1-0.4-1.1-1l0,0c-0.3,0.8-0.9,1.2-1.8,1.2c-1.3,0-2.1-0.7-2.1-1.9s0.8-1.8,2.6-1.8H91
				v-0.6c0-0.9-0.5-1.4-1.5-1.4c-0.7,0-1.2,0.4-1.6,0.9l-0.6-0.5c0.3-0.7,1.1-1.2,2.2-1.2c1.5,0,2.4,0.8,2.4,2.1v3.4h0.7v0.8H92.1z
				 M91,107.1v-1h-1.3c-1.1,0-1.6,0.3-1.6,0.9v0.3c0,0.6,0.5,1,1.2,1C90.3,108.3,91,107.8,91,107.1z"/>
		</g>
	</g>
	<g>
		<g>
			<path class="st1" d="M93.9,100.7v-0.2c0-0.3,0.2-0.5,0.6-0.5s0.6,0.2,0.6,0.5v0.2c0,0.3-0.2,0.5-0.6,0.5
				C94.1,101.3,93.9,101.1,93.9,100.7z M94,102.7h1v6.2h-1V102.7z"/>
		</g>
	</g>
	<g>
		<g>
			<path class="st1" d="M98.4,108.9c-0.7,0-1-0.4-1-1v-4.3h-1v-0.9H97c0.4,0,0.5-0.1,0.5-0.6v-1.2h0.9v1.7h1.4v0.8h-1.4v4.5h1.3v0.8
				h-1.3V108.9z"/>
		</g>
	</g>
	<g>
		<g>
			<path class="st1" d="M107,101.4v7.5h-1v-7.5h-2.7v-0.9h6.3v0.9H107z"/>
		</g>
	</g>
	<g>
		<g>
			<path class="st1" d="M109.8,102.7h0.9l0.7,2.7l0.7,2.7l0,0l0.8-2.7l0.8-2.7h0.9l0.8,2.7l0.8,2.7l0,0l0.6-2.7l0.7-2.7h0.9
				l-1.6,6.2h-1.2l-0.9-3l-0.5-1.9l0,0l-0.5,1.9l-0.9,3h-1.2L109.8,102.7z"/>
		</g>
	</g>
	<g>
		<g>
			<path class="st1" d="M119.1,105.8c0-2,1.1-3.2,2.8-3.2c1.7,0,2.7,1.3,2.7,3v0.5h-4.4v0.3c0,1.1,0.7,1.9,1.8,1.9
				c0.8,0,1.4-0.4,1.7-1.1l0.7,0.5c-0.4,0.8-1.3,1.4-2.4,1.4C120.3,109.1,119.1,107.8,119.1,105.8z M120.2,105.3L120.2,105.3
				l3.4,0.1v-0.1c0-1.1-0.7-1.8-1.6-1.8C120.9,103.4,120.2,104.2,120.2,105.3z"/>
		</g>
	</g>
	<g>
		<g>
			<path class="st1" d="M125.7,105.8c0-2,1.1-3.2,2.8-3.2c1.7,0,2.7,1.3,2.7,3v0.5h-4.4v0.3c0,1.1,0.7,1.9,1.8,1.9
				c0.8,0,1.4-0.4,1.7-1.1l0.7,0.5c-0.4,0.8-1.3,1.4-2.4,1.4C126.8,109.1,125.7,107.8,125.7,105.8z M126.7,105.3L126.7,105.3
				l3.4,0.1v-0.1c0-1.1-0.7-1.8-1.6-1.8C127.5,103.4,126.7,104.2,126.7,105.3z"/>
		</g>
	</g>
	<g>
		<g>
			<path class="st1" d="M134.1,108.9c-0.7,0-1-0.4-1-1v-4.3h-1v-0.9h0.6c0.4,0,0.5-0.1,0.5-0.6v-1.2h0.9v1.7h1.4v0.8h-1.4v4.5h1.3
				v0.8h-1.3V108.9z"/>
		</g>
	</g>
	<g>
		<g>
			<path class="st1" d="M136.4,107.9l0.7-0.6c0.5,0.6,1.1,0.9,1.8,0.9c0.8,0,1.3-0.4,1.3-1c0-0.5-0.3-0.9-1.1-1l-0.5-0.1
				c-1.1-0.2-2-0.6-2-1.8c0-1.2,0.9-1.8,2.2-1.8c1,0,1.7,0.4,2.2,1l-0.6,0.6c-0.3-0.4-0.8-0.8-1.6-0.8c-0.8,0-1.2,0.4-1.2,1
				s0.4,0.8,1.2,1l0.5,0.1c1.4,0.2,1.9,0.8,1.9,1.7c0,1.2-0.9,1.9-2.3,1.9C137.7,109.1,137,108.6,136.4,107.9z"/>
		</g>
	</g>
</g>
<g>
	<g>
		<g>
			<path class="st1" d="M61.6,123.8c0-1.5,0.7-2.4,1.9-2.4c1.2,0,1.9,0.8,1.9,2.4s-0.7,2.4-1.9,2.4
				C62.3,126.2,61.6,125.3,61.6,123.8z M64.5,124.1v-0.7c0-0.9-0.3-1.4-1-1.4c-0.7,0-1,0.5-1,1.4v0.7c0,0.9,0.3,1.4,1,1.4
				C64.2,125.5,64.5,125.1,64.5,124.1z M63,129.9l5.8-8.4h0.9l-5.8,8.4H63z M67.3,127.7c0-1.5,0.7-2.4,1.9-2.4
				c1.2,0,1.9,0.8,1.9,2.4s-0.7,2.4-1.9,2.4C68,130.1,67.3,129.2,67.3,127.7z M70.3,128.1v-0.7c0-0.9-0.3-1.4-1-1.4
				c-0.7,0-1,0.5-1,1.4v0.7c0,0.9,0.3,1.4,1,1.4C69.9,129.4,70.3,129,70.3,128.1z"/>
		</g>
	</g>
	<g>
		<g>
			<path class="st1" d="M77.9,120.8h0.9c-1.3,1.2-2.2,3.2-2.2,4.9v1c0,1.7,0.9,3.7,2.2,4.9h-0.9c-1.2-1-2.2-3-2.2-5.4
				C75.7,123.9,76.7,121.9,77.9,120.8z"/>
		</g>
	</g>
	<g>
		<g>
			<path class="st1" d="M105.6,129.9c-0.7,0-1-0.4-1-1v-4.3h-1v-0.9h0.6c0.4,0,0.5-0.1,0.5-0.6v-1.2h0.9v1.7h1.4v0.8h-1.4v4.5h1.3
				v0.8h-1.3V129.9z"/>
		</g>
	</g>
	<g>
		<g>
			<path class="st1" d="M107.8,123.7h0.9l0.7,2.7l0.7,2.7l0,0l0.8-2.7l0.8-2.7h0.9l0.8,2.7l0.8,2.7l0,0l0.6-2.7l0.7-2.7h0.9
				l-1.6,6.2h-1.2l-0.9-3l-0.5-1.9l0,0l-0.5,1.9l-0.9,3h-1.2L107.8,123.7z"/>
		</g>
	</g>
	<g>
		<g>
			<path class="st1" d="M117.1,126.8c0-2,1.1-3.2,2.8-3.2c1.7,0,2.7,1.3,2.7,3v0.5h-4.4v0.3c0,1.1,0.7,1.9,1.8,1.9
				c0.8,0,1.4-0.4,1.7-1.1l0.7,0.5c-0.4,0.8-1.3,1.4-2.4,1.4C118.2,130.1,117.1,128.8,117.1,126.8z M118.1,126.3L118.1,126.3
				l3.4,0.1v-0.1c0-1.1-0.7-1.8-1.6-1.8C118.9,124.4,118.1,125.2,118.1,126.3z"/>
		</g>
	</g>
	<g>
		<g>
			<path class="st1" d="M123.7,126.8c0-2,1.1-3.2,2.8-3.2c1.7,0,2.7,1.3,2.7,3v0.5h-4.4v0.3c0,1.1,0.7,1.9,1.8,1.9
				c0.8,0,1.4-0.4,1.7-1.1l0.7,0.5c-0.4,0.8-1.3,1.4-2.4,1.4C124.8,130.1,123.7,128.8,123.7,126.8z M124.7,126.3L124.7,126.3
				l3.4,0.1v-0.1c0-1.1-0.7-1.8-1.6-1.8C125.5,124.4,124.7,125.2,124.7,126.3z"/>
		</g>
	</g>
	<g>
		<g>
			<path class="st1" d="M132.1,129.9c-0.7,0-1-0.4-1-1v-4.3h-1v-0.9h0.6c0.4,0,0.5-0.1,0.5-0.6v-1.2h0.9v1.7h1.4v0.8h-1.4v4.5h1.3
				v0.8h-1.3V129.9z"/>
		</g>
	</g>
	<g>
		<g>
			<path class="st1" d="M134.4,128.9l0.7-0.6c0.5,0.6,1.1,0.9,1.8,0.9c0.8,0,1.3-0.4,1.3-1c0-0.5-0.3-0.9-1.1-1l-0.5-0.1
				c-1.1-0.2-2-0.6-2-1.8s0.9-1.8,2.2-1.8c1,0,1.7,0.4,2.2,1l-0.6,0.6c-0.3-0.4-0.8-0.8-1.6-0.8s-1.2,0.4-1.2,1s0.4,0.8,1.2,1
				l0.5,0.1c1.4,0.2,1.9,0.8,1.9,1.7c0,1.2-0.9,1.9-2.3,1.9C135.7,130.1,134.9,129.6,134.4,128.9z"/>
		</g>
	</g>
	<g>
		<g>
			<path class="st1" d="M140.6,131.6h-0.9c1.3-1.2,2.2-3.2,2.2-4.9v-1c0-1.7-0.9-3.7-2.2-4.9h0.9c1.2,1,2.2,3.1,2.2,5.4
				C142.8,128.5,141.8,130.6,140.6,131.6z"/>
		</g>
	</g>
</g>
<g>
	<g>
		<g>
			<path class="st2" d="M369,102.8c0-1.5,0.7-2.4,1.9-2.4s1.9,0.8,1.9,2.4s-0.7,2.4-1.9,2.4S369,104.3,369,102.8z M371.9,103.1v-0.7
				c0-0.9-0.3-1.4-1-1.4s-1,0.5-1,1.4v0.7c0,0.9,0.3,1.4,1,1.4S371.9,104.1,371.9,103.1z M370.4,108.9l5.8-8.4h0.9l-5.8,8.4H370.4z
				 M374.8,106.7c0-1.5,0.7-2.4,1.9-2.4c1.2,0,1.9,0.8,1.9,2.4c0,1.6-0.7,2.4-1.9,2.4S374.8,108.2,374.8,106.7z M377.7,107.1v-0.7
				c0-0.9-0.3-1.4-1-1.4s-1,0.5-1,1.4v0.7c0,0.9,0.3,1.4,1,1.4C377.4,108.4,377.7,108,377.7,107.1z"/>
		</g>
	</g>
	<g>
		<g>
			<path class="st2" d="M385.4,99.8h0.9c-1.3,1.2-2.2,3.2-2.2,4.9v1c0,1.7,0.9,3.7,2.2,4.9h-0.9c-1.2-1-2.2-3-2.2-5.4
				C383.2,102.9,384.1,100.9,385.4,99.8z"/>
		</g>
	</g>
	<g>
		<g>
			<path class="st2" d="M392.6,108.9h-5.5v-1l2.7-2.5c0.8-0.7,1.4-1.6,1.4-2.4v-0.1c0-0.9-0.5-1.6-1.5-1.6s-1.5,0.6-1.7,1.4
				l-0.9-0.3c0.3-1,1.1-2,2.7-2s2.6,1,2.6,2.4c0,1.3-0.8,2.2-1.8,3.2l-2.3,2h4.4v0.9L392.6,108.9L392.6,108.9z"/>
		</g>
	</g>
	<g>
		<g>
			<path class="st2" d="M396.5,104.1c1.1,0,1.7-0.6,1.7-1.4v-0.1c0-0.9-0.6-1.3-1.5-1.3s-1.4,0.4-1.7,1l-0.7-0.6
				c0.4-0.7,1.2-1.4,2.5-1.4c1.4,0,2.5,0.8,2.5,2.1c0,1.1-0.7,1.7-1.6,2l0,0c0.9,0.2,1.8,0.9,1.8,2.1c0,1.4-1.1,2.4-2.8,2.4
				c-1.5,0-2.2-0.7-2.7-1.4l0.8-0.6c0.4,0.7,0.9,1.1,1.9,1.1c1.2,0,1.8-0.6,1.8-1.5v-0.1c0-1-0.6-1.5-1.8-1.5h-1V104L396.5,104.1
				L396.5,104.1z"/>
		</g>
	</g>
	<g>
		<g>
			<path class="st2" d="M401.3,104.7c0-2.7,0.9-4.3,2.9-4.3s2.9,1.6,2.9,4.3c0,2.7-0.9,4.3-2.9,4.3S401.3,107.5,401.3,104.7z
				 M406,105.4V104c0-1.6-0.5-2.8-1.8-2.8s-1.8,1.2-1.8,2.8v1.4c0,1.6,0.5,2.8,1.8,2.8S406,107,406,105.4z"/>
		</g>
	</g>
	<g>
		<g>
			<path class="st2" d="M412.3,108.9v-1.6h-4v-0.9l3.5-5.8h1.5v5.9h1.2v0.8h-1.2v1.6H412.3z M409.2,106.4h3.1v-5.1h-0.1L409.2,106.4
				z"/>
		</g>
	</g>
	<g>
		<g>
			<path class="st2" d="M420.2,108.9c-0.7,0-1-0.4-1-1v-4.3h-1v-0.9h0.6c0.4,0,0.5-0.1,0.5-0.6v-1.2h0.9v1.7h1.4v0.8h-1.4v4.5h1.3
				v0.8h-1.3V108.9z"/>
		</g>
	</g>
	<g>
		<g>
			<path class="st2" d="M422.4,102.7h0.9l0.7,2.7l0.7,2.7l0,0l0.8-2.7l0.8-2.7h0.9l0.8,2.7l0.8,2.7l0,0l0.6-2.7l0.7-2.7h0.9
				l-1.6,6.2h-1.2l-0.9-3l-0.5-1.9l0,0l-0.5,1.9l-0.9,3h-1.2L422.4,102.7z"/>
		</g>
	</g>
	<g>
		<g>
			<path class="st2" d="M431.8,105.8c0-2,1.1-3.2,2.8-3.2c1.7,0,2.7,1.3,2.7,3v0.5h-4.4v0.3c0,1.1,0.7,1.9,1.8,1.9
				c0.8,0,1.4-0.4,1.7-1.1l0.7,0.5c-0.4,0.8-1.3,1.4-2.4,1.4C432.9,109.1,431.8,107.8,431.8,105.8z M432.8,105.3L432.8,105.3
				l3.4,0.1v-0.1c0-1.1-0.7-1.8-1.6-1.8C433.5,103.4,432.8,104.2,432.8,105.3z"/>
		</g>
	</g>
	<g>
		<g>
			<path class="st2" d="M438.4,105.8c0-2,1.1-3.2,2.8-3.2c1.7,0,2.7,1.3,2.7,3v0.5h-4.4v0.3c0,1.1,0.7,1.9,1.8,1.9
				c0.8,0,1.4-0.4,1.7-1.1l0.7,0.5c-0.4,0.8-1.3,1.4-2.4,1.4C439.5,109.1,438.4,107.8,438.4,105.8z M439.4,105.3L439.4,105.3
				l3.4,0.1v-0.1c0-1.1-0.7-1.8-1.6-1.8C440.1,103.4,439.4,104.2,439.4,105.3z"/>
		</g>
	</g>
	<g>
		<g>
			<path class="st2" d="M446.8,108.9c-0.7,0-1-0.4-1-1v-4.3h-1v-0.9h0.6c0.4,0,0.5-0.1,0.5-0.6v-1.2h0.9v1.7h1.4v0.8h-1.4v4.5h1.3
				v0.8h-1.3V108.9z"/>
		</g>
	</g>
	<g>
		<g>
			<path class="st2" d="M449,107.9l0.7-0.6c0.5,0.6,1.1,0.9,1.8,0.9c0.8,0,1.3-0.4,1.3-1c0-0.5-0.3-0.9-1.1-1l-0.5-0.1
				c-1.1-0.2-2-0.6-2-1.8c0-1.2,0.9-1.8,2.2-1.8c1,0,1.7,0.4,2.2,1l-0.6,0.6c-0.3-0.4-0.8-0.8-1.6-0.8c-0.8,0-1.2,0.4-1.2,1
				s0.4,0.8,1.2,1l0.5,0.1c1.4,0.2,1.9,0.8,1.9,1.7c0,1.2-0.9,1.9-2.3,1.9C450.3,109.1,449.6,108.6,449,107.9z"/>
		</g>
	</g>
	<g>
		<g>
			<path class="st2" d="M455.3,110.6h-0.9c1.3-1.2,2.2-3.2,2.2-4.9v-1c0-1.7-0.9-3.7-2.2-4.9h0.9c1.2,1,2.2,3.1,2.2,5.4
				C457.5,107.5,456.5,109.6,455.3,110.6z"/>
		</g>
	</g>
</g>
<g>
	<g>
		<g>
			<path class="st0" d="M52.7,2.6v5.1c0,1.6,0.5,2.4,2,2.4s2-0.8,2-2.4V2.5h1v4.9c0,2.4-0.8,3.6-3,3.6s-3-1.1-3-3.6V2.5h1V2.6z"/>
		</g>
	</g>
	<g>
		<g>
			<path class="st0" d="M59.8,10.9V4.7h1v1l0,0c0.3-0.7,0.8-1.2,1.8-1.2c1.3,0,2.1,0.9,2.1,2.4v4h-1V7.1c0-1.1-0.5-1.7-1.4-1.7
				c-0.8,0-1.5,0.4-1.5,1.2v4.3C60.8,10.9,59.8,10.9,59.8,10.9z"/>
		</g>
	</g>
	<g>
		<g>
			<path class="st0" d="M66.2,7.8c0-2,1-3.2,2.8-3.2c1.2,0,2,0.6,2.3,1.5l-0.8,0.4c-0.2-0.6-0.8-1-1.5-1c-1.1,0-1.7,0.8-1.7,1.9v1.1
				c0,1.1,0.6,1.9,1.7,1.9c0.8,0,1.3-0.4,1.7-1.1l0.7,0.5c-0.4,0.9-1.2,1.5-2.4,1.5C67.2,11.1,66.2,9.8,66.2,7.8z"/>
		</g>
	</g>
	<g>
		<g>
			<path class="st0" d="M77.2,10.9c-0.7,0-1-0.4-1.1-1H76c-0.3,0.8-0.9,1.2-1.8,1.2c-1.3,0-2.1-0.7-2.1-1.9c0-1.2,0.8-1.8,2.6-1.8
				h1.2V6.8c0-0.9-0.5-1.4-1.5-1.4c-0.7,0-1.2,0.4-1.6,0.9l-0.6-0.5c0.3-0.7,1.1-1.2,2.2-1.2c1.5,0,2.4,0.8,2.4,2.1v3.4h0.7v0.8
				H77.2z M76.1,9.1v-1h-1.3c-1.1,0-1.6,0.3-1.6,0.9v0.3c0,0.6,0.5,1,1.2,1C75.4,10.3,76.1,9.8,76.1,9.1z"/>
		</g>
	</g>
	<g>
		<g>
			<path class="st0" d="M80.5,10.9c-0.7,0-1-0.4-1-1V5.6h-1V4.7H79c0.4,0,0.5-0.1,0.5-0.6V2.9h0.9v1.8h1.4v0.8h-1.4V10h1.3v0.8h-1.2
				C80.5,10.8,80.5,10.9,80.5,10.9z"/>
		</g>
	</g>
	<g>
		<g>
			<path class="st0" d="M82.8,7.8c0-2,1.1-3.2,2.8-3.2c1.7,0,2.7,1.3,2.7,3v0.5h-4.4v0.3c0,1.1,0.7,1.9,1.8,1.9
				c0.8,0,1.4-0.4,1.7-1.1L88,9.7c-0.4,0.8-1.3,1.4-2.4,1.4C83.9,11.1,82.8,9.8,82.8,7.8z M83.8,7.3L83.8,7.3l3.4,0.1V7.3
				c0-1.1-0.7-1.8-1.6-1.8C84.5,5.4,83.8,6.2,83.8,7.3z"/>
		</g>
	</g>
	<g>
		<g>
			<path class="st0" d="M92.1,13.5c-1.9,0-2.7-0.6-2.7-1.5c0-0.7,0.4-1,1-1.2v-0.1c-0.3-0.2-0.6-0.4-0.6-0.9c0-0.6,0.4-0.9,1.1-1.1
				l0,0c-0.7-0.3-1.2-1-1.2-1.9c0-1.3,0.9-2.1,2.3-2.1c0.4,0,0.8,0.1,1.2,0.2V4.7c0-0.5,0.2-0.8,0.7-0.8h0.9v0.8h-1.2v0.4
				C94,5.5,94.3,6,94.3,6.7c0,1.3-0.9,2.1-2.3,2.1c-0.2,0-0.4,0-0.6-0.1C91,8.8,90.6,9,90.6,9.4c0,0.4,0.4,0.5,0.9,0.5h1.3
				c1.5,0,2.2,0.6,2.2,1.6C95.1,12.9,94.1,13.5,92.1,13.5z M92.9,10.9h-2.1c-0.4,0.2-0.6,0.5-0.6,0.8c0,0.5,0.4,1,1.3,1h0.9
				c1.1,0,1.7-0.3,1.7-1C94.2,11.2,93.8,10.9,92.9,10.9z M93.3,6.9V6.6c0-0.8-0.5-1.2-1.3-1.2s-1.3,0.4-1.3,1.2v0.3
				c0,0.8,0.5,1.2,1.3,1.2C92.8,8.1,93.3,7.7,93.3,6.9z"/>
		</g>
	</g>
	<g>
		<g>
			<path class="st0" d="M95.7,7.8c0-2,1.1-3.2,2.8-3.2s2.8,1.3,2.8,3.2s-1.1,3.2-2.8,3.2S95.7,9.8,95.7,7.8z M100.2,8.3V7.4
				c0-1.3-0.7-1.9-1.8-1.9s-1.8,0.6-1.8,1.9v0.9c0,1.3,0.7,1.9,1.8,1.9S100.2,9.6,100.2,8.3z"/>
		</g>
	</g>
	<g>
		<g>
			<path class="st0" d="M102.8,10.9V4.7h1v1.1h0.1c0.2-0.6,0.8-1.1,1.8-1.1h0.3v1h-0.6c-1,0-1.7,0.4-1.7,1v4.2H102.8z"/>
		</g>
	</g>
	<g>
		<g>
			<path class="st0" d="M107.1,2.7V2.5c0-0.3,0.2-0.5,0.6-0.5s0.6,0.2,0.6,0.5v0.2c0,0.3-0.2,0.5-0.6,0.5
				C107.3,3.3,107.1,3.1,107.1,2.7z M107.2,4.7h1v6.2h-1V4.7z"/>
		</g>
	</g>
	<g>
		<g>
			<path class="st0" d="M109.6,10.9v-0.8l3.5-4.5h-3.4V4.7h4.6v0.7l-3.6,4.6h3.7v0.8L109.6,10.9L109.6,10.9z"/>
		</g>
	</g>
	<g>
		<g>
			<path class="st0" d="M115.2,7.8c0-2,1.1-3.2,2.8-3.2c1.7,0,2.7,1.3,2.7,3v0.5h-4.4v0.3c0,1.1,0.7,1.9,1.8,1.9
				c0.8,0,1.4-0.4,1.7-1.1l0.7,0.5c-0.4,0.8-1.3,1.4-2.4,1.4C116.3,11.1,115.2,9.8,115.2,7.8z M116.2,7.3L116.2,7.3l3.4,0.1V7.3
				c0-1.1-0.7-1.8-1.6-1.8C117,5.4,116.2,6.2,116.2,7.3z"/>
		</g>
	</g>
	<g>
		<g>
			<path class="st0" d="M126.2,9.9L126.2,9.9c-0.4,0.8-1,1.2-1.9,1.2c-1.5,0-2.5-1.3-2.5-3.2s1-3.2,2.5-3.2c0.9,0,1.5,0.4,1.8,1.2
				l0,0V2.2h1v8.9h-1L126.2,9.9L126.2,9.9z M126.2,8.9V6.6c0-0.7-0.7-1.2-1.6-1.2c-1.1,0-1.8,0.7-1.8,1.8v1.1c0,1.1,0.7,1.8,1.8,1.8
				C125.5,10.2,126.2,9.8,126.2,8.9z"/>
		</g>
	</g>
	<g>
		<g>
			<path class="st0" d="M135,3.4v7.5h-1V3.4h-2.7V2.5h6.3v0.9H135z"/>
		</g>
	</g>
	<g>
		<g>
			<path class="st0" d="M137.8,4.7h0.9l0.7,2.7l0.7,2.7l0,0l0.8-2.7l0.8-2.7h0.9l0.8,2.7l0.8,2.7l0,0l0.6-2.7l0.7-2.7h0.9l-1.6,6.2
				h-1.2l-0.9-3L142.2,6l0,0l-0.5,1.9l-0.9,3h-1.2L137.8,4.7z"/>
		</g>
	</g>
	<g>
		<g>
			<path class="st0" d="M147.1,7.8c0-2,1.1-3.2,2.8-3.2s2.7,1.3,2.7,3v0.5h-4.4v0.3c0,1.1,0.7,1.9,1.8,1.9c0.8,0,1.4-0.4,1.7-1.1
				l0.7,0.5c-0.4,0.8-1.3,1.4-2.4,1.4C148.3,11.1,147.1,9.8,147.1,7.8z M148.2,7.3L148.2,7.3l3.4,0.1V7.3c0-1.1-0.7-1.8-1.6-1.8
				C148.9,5.4,148.2,6.2,148.2,7.3z"/>
		</g>
	</g>
	<g>
		<g>
			<path class="st0" d="M153.7,7.8c0-2,1.1-3.2,2.8-3.2s2.7,1.3,2.7,3v0.5h-4.4v0.3c0,1.1,0.7,1.9,1.8,1.9c0.8,0,1.4-0.4,1.7-1.1
				l0.7,0.5c-0.4,0.8-1.3,1.4-2.4,1.4C154.8,11.1,153.7,9.8,153.7,7.8z M154.7,7.3L154.7,7.3l3.4,0.1V7.3c0-1.1-0.7-1.8-1.6-1.8
				C155.5,5.4,154.7,6.2,154.7,7.3z"/>
		</g>
	</g>
	<g>
		<g>
			<path class="st0" d="M162.1,10.9c-0.7,0-1-0.4-1-1V5.6h-1V4.7h0.6c0.4,0,0.5-0.1,0.5-0.6V2.9h0.9v1.8h1.4v0.8h-1.4V10h1.3v0.8
				h-1.3V10.9z"/>
		</g>
	</g>
	<g>
		<g>
			<path class="st0" d="M164.4,9.9l0.7-0.6c0.5,0.6,1.1,0.9,1.8,0.9c0.8,0,1.3-0.4,1.3-1c0-0.5-0.3-0.9-1.1-1l-0.5-0.1
				c-1.1-0.2-2-0.6-2-1.8c0-1.2,0.9-1.8,2.2-1.8c1,0,1.7,0.4,2.2,1l-0.6,0.6c-0.3-0.4-0.8-0.8-1.6-0.8s-1.2,0.4-1.2,1s0.4,0.8,1.2,1
				l0.5,0.1c1.4,0.2,1.9,0.8,1.9,1.7c0,1.2-0.9,1.9-2.3,1.9C165.7,11.1,165,10.6,164.4,9.9z"/>
		</g>
	</g>
</g>
<g>
	<g>
		<g>
			<path class="st0" d="M89.6,25.8c0-1.5,0.7-2.4,1.9-2.4s1.9,0.8,1.9,2.4s-0.7,2.4-1.9,2.4S89.6,27.3,89.6,25.8z M92.5,26.1v-0.7
				c0-0.9-0.3-1.4-1-1.4s-1,0.5-1,1.4v0.7c0,0.9,0.3,1.4,1,1.4S92.5,27.1,92.5,26.1z M91,31.9l5.8-8.4h0.9l-5.8,8.4
				C91.9,31.9,91,31.9,91,31.9z M95.3,29.7c0-1.5,0.7-2.4,1.9-2.4c1.2,0,1.9,0.8,1.9,2.4s-0.7,2.4-1.9,2.4S95.3,31.2,95.3,29.7z
				 M98.3,30.1v-0.7c0-0.9-0.3-1.4-1-1.4s-1,0.5-1,1.4v0.7c0,0.9,0.3,1.4,1,1.4C97.9,31.4,98.3,31,98.3,30.1z"/>
		</g>
	</g>
	<g>
		<g>
			<path class="st0" d="M105.9,22.8h0.9c-1.3,1.2-2.2,3.2-2.2,4.9v1c0,1.7,0.9,3.7,2.2,4.9h-0.9c-1.2-1-2.2-3-2.2-5.4
				C103.7,25.9,104.7,23.9,105.9,22.8z"/>
		</g>
	</g>
	<g>
		<g>
			<path class="st0" d="M133.6,31.9c-0.7,0-1-0.4-1-1v-4.3h-1v-0.9h0.6c0.4,0,0.5-0.1,0.5-0.6v-1.2h0.9v1.8h1.4v0.8h-1.4V31h1.3v0.8
				h-1.3V31.9z"/>
		</g>
	</g>
	<g>
		<g>
			<path class="st0" d="M135.8,25.7h0.9l0.7,2.7l0.7,2.7l0,0l0.8-2.7l0.8-2.7h0.9l0.8,2.7l0.8,2.7l0,0l0.6-2.7l0.7-2.7h0.9l-1.6,6.2
				h-1.2l-0.9-3l-0.5-1.9l0,0l-0.5,1.9l-0.9,3h-1.2L135.8,25.7z"/>
		</g>
	</g>
	<g>
		<g>
			<path class="st0" d="M145.1,28.8c0-2,1.1-3.2,2.8-3.2s2.7,1.3,2.7,3v0.5h-4.4v0.3c0,1.1,0.7,1.9,1.8,1.9c0.8,0,1.4-0.4,1.7-1.1
				l0.7,0.5c-0.4,0.8-1.3,1.4-2.4,1.4C146.2,32.1,145.1,30.8,145.1,28.8z M146.1,28.3L146.1,28.3l3.4,0.1v-0.1
				c0-1.1-0.7-1.8-1.6-1.8C146.9,26.4,146.1,27.2,146.1,28.3z"/>
		</g>
	</g>
	<g>
		<g>
			<path class="st0" d="M151.7,28.8c0-2,1.1-3.2,2.8-3.2s2.7,1.3,2.7,3v0.5h-4.4v0.3c0,1.1,0.7,1.9,1.8,1.9c0.8,0,1.4-0.4,1.7-1.1
				l0.7,0.5c-0.4,0.8-1.3,1.4-2.4,1.4C152.8,32.1,151.7,30.8,151.7,28.8z M152.7,28.3L152.7,28.3l3.4,0.1v-0.1
				c0-1.1-0.7-1.8-1.6-1.8C153.5,26.4,152.7,27.2,152.7,28.3z"/>
		</g>
	</g>
	<g>
		<g>
			<path class="st0" d="M160.1,31.9c-0.7,0-1-0.4-1-1v-4.3h-1v-0.9h0.6c0.4,0,0.5-0.1,0.5-0.6v-1.2h0.9v1.8h1.4v0.8h-1.4V31h1.3v0.8
				h-1.3V31.9z"/>
		</g>
	</g>
	<g>
		<g>
			<path class="st0" d="M162.4,30.9l0.7-0.6c0.5,0.6,1.1,0.9,1.8,0.9c0.8,0,1.3-0.4,1.3-1c0-0.5-0.3-0.9-1.1-1l-0.5-0.1
				c-1.1-0.2-2-0.6-2-1.8s0.9-1.8,2.2-1.8c1,0,1.7,0.4,2.2,1l-0.6,0.6c-0.3-0.4-0.8-0.8-1.6-0.8s-1.2,0.4-1.2,1s0.4,0.8,1.2,1
				l0.5,0.1c1.4,0.2,1.9,0.8,1.9,1.7c0,1.2-0.9,1.9-2.3,1.9C163.7,32.1,162.9,31.6,162.4,30.9z"/>
		</g>
	</g>
	<g>
		<g>
			<path class="st0" d="M168.6,33.6h-0.9c1.3-1.2,2.2-3.2,2.2-4.9v-1c0-1.7-0.9-3.7-2.2-4.9h0.9c1.2,1,2.2,3.1,2.2,5.4
				C170.8,30.5,169.8,32.6,168.6,33.6z"/>
		</g>
	</g>
</g>
<g>
	<g>
		<path d="M207.6,85.5c2.2,0,3.3-1.1,3.3-2.5v-0.2c0-1.6-1.1-2.6-2.9-2.6c-1.7,0-2.9,0.8-3.7,2.2l-2-1.7c1.1-1.6,2.8-3,5.8-3
			c3.4,0,5.9,1.7,5.9,4.7c0,2.3-1.6,3.7-3.5,4.2v0.1c2.1,0.4,3.8,1.9,3.8,4.5c0,3.2-2.6,5.3-6.5,5.3c-3.4,0-5.1-1.6-6.2-3.3l2.2-1.7
			c0.9,1.5,2,2.5,4.1,2.5c2.2,0,3.4-1.1,3.4-3v-0.2c0-1.8-1.3-2.9-3.6-2.9h-1.9v-2.5L207.6,85.5L207.6,85.5z"/>
	</g>
	<g>
		<path d="M228.6,80.6h-8.1L220,87h0.2c0.8-1.4,1.7-2.4,3.8-2.4c3.1,0,5.5,2.1,5.5,5.7s-2.4,6.2-6.5,6.2c-3.2,0-4.9-1.6-6-3.3
			l2.1-1.7C220,92.9,221,94,223,94c2.1,0,3.4-1.2,3.4-3.3v-0.3c0-2.1-1.2-3.3-3.4-3.3c-1.6,0-2.4,0.7-3.1,1.4l-2.4-0.3l0.7-10.1
			h10.3v2.5H228.6z"/>
	</g>
	<g>
		<path d="M253.2,96.2h-3.9c4.1-3,6.5-5.4,7.4-9.3l-0.2-0.1c-0.8,1.4-2,2.7-4.2,2.7c-3.1,0-5.3-2.2-5.3-5.6c0-3.6,2.5-6.2,6.4-6.2
			c4,0,6.4,2.7,6.4,7.1C259.7,90.1,256.2,94.2,253.2,96.2z M256.7,83.8v-0.4c0-2.2-1.2-3.3-3.4-3.3c-2.1,0-3.4,1.2-3.4,3.3v0.4
			c0,2.2,1.2,3.3,3.4,3.3C255.5,87.2,256.7,86,256.7,83.8z"/>
	</g>
</g>
<g>
	<g>
		<path class="st0" d="M41.4,31.9v-1.7H45v-9.4h-0.1L42,23.9l-1.2-1.1l3.2-3.5h3v10.9h3v1.7H41.4z"/>
	</g>
	<g>
		<path class="st0" d="M55.9,31.9h-2.7c2.8-2.1,4.5-3.7,5.1-6.4h-0.1c-0.5,1-1.4,1.8-2.9,1.8c-2.1,0-3.7-1.5-3.7-3.9
			c0-2.5,1.7-4.3,4.4-4.3c2.8,0,4.4,1.9,4.4,4.9C60.4,27.7,58,30.5,55.9,31.9z M58.3,23.3V23c0-1.5-0.9-2.3-2.3-2.3
			s-2.3,0.8-2.3,2.3v0.3c0,1.5,0.9,2.3,2.3,2.3S58.3,24.8,58.3,23.3z"/>
	</g>
	<g>
		<path class="st0" d="M62.7,30.9v-0.3c0-0.7,0.4-1.2,1.3-1.2c0.9,0,1.3,0.5,1.3,1.2v0.3c0,0.7-0.4,1.2-1.3,1.2
			C63.1,32.1,62.7,31.6,62.7,30.9z"/>
	</g>
	<g>
		<path class="st0" d="M67.7,27.2c0-3.6,2.4-6.5,4.5-7.9h2.7c-2.8,2.1-4.5,3.7-5.1,6.4h0.1c0.5-1,1.4-1.8,2.9-1.8
			c2.1,0,3.7,1.5,3.7,3.9c0,2.5-1.7,4.3-4.4,4.3C69.3,32.1,67.7,30.2,67.7,27.2z M74.4,28.2v-0.3c0-1.5-0.9-2.3-2.3-2.3
			c-1.5,0-2.3,0.8-2.3,2.3v0.3c0,1.5,0.9,2.3,2.3,2.3C73.6,30.5,74.4,29.6,74.4,28.2z"/>
	</g>
	<g>
		<path class="st0" d="M83.9,31.9v-2.4h-5.8v-1.8l5.1-8.4h2.7v8.5h1.7v1.6h-1.7v2.4h-2V31.9z M79.8,27.8h4.1v-6.7h-0.1L79.8,27.8z"
			/>
	</g>
</g>
<g>
	<g>
		<path class="st0" d="M108.9,32l3.2-7.5h-3.6v1.6h-0.9v-2.4h5.5v0.9L110,32H108.9z"/>
	</g>
	<g>
		<path class="st0" d="M114.7,27.8c0-2.7,0.9-4.3,2.9-4.3s2.9,1.6,2.9,4.3s-0.9,4.3-2.9,4.3S114.7,30.5,114.7,27.8z M119.4,28.5
			v-1.4c0-1.6-0.5-2.8-1.8-2.8s-1.8,1.2-1.8,2.8v1.4c0,1.6,0.5,2.8,1.8,2.8C118.9,31.2,119.4,30.1,119.4,28.5z"/>
	</g>
	<g>
		<path class="st0" d="M127.2,24.5h-3.7l-0.2,3.2h0.1c0.4-0.6,0.8-0.9,1.7-0.9c1.4,0,2.5,1,2.5,2.6s-1.1,2.8-2.8,2.8
			c-1.4,0-2.1-0.7-2.6-1.4l0.8-0.6c0.4,0.7,0.9,1.1,1.9,1.1c1.1,0,1.8-0.6,1.8-1.7v-0.1c0-1.1-0.6-1.7-1.8-1.7
			c-0.8,0-1.2,0.3-1.5,0.7l-0.9-0.1l0.3-4.6h4.5v0.7H127.2z"/>
	</g>
</g>
<g>
	<g>
		<path class="st1" d="M84.8,122.4h-3.7l-0.2,3.2H81c0.4-0.6,0.8-0.9,1.7-0.9c1.4,0,2.5,1,2.5,2.6s-1.1,2.8-2.8,2.8
			c-1.4,0-2.1-0.7-2.6-1.4l0.8-0.6c0.4,0.7,0.9,1.1,1.9,1.1c1.1,0,1.8-0.6,1.8-1.7v-0.1c0-1.1-0.6-1.7-1.8-1.7
			c-0.8,0-1.2,0.3-1.5,0.7l-0.9-0.1l0.3-4.6h4.5v0.7H84.8z"/>
	</g>
	<g>
		<path class="st1" d="M86.7,127.6c0-1.1,0.7-1.8,1.7-2.1v-0.1c-0.9-0.3-1.4-1-1.4-2c0-1.3,1-2.1,2.7-2.1s2.7,0.8,2.7,2.1
			c0,1-0.6,1.7-1.4,2v0.1c1,0.3,1.7,0.9,1.7,2.1c0,1.4-1,2.4-2.9,2.4C87.7,130,86.7,129,86.7,127.6z M91.4,127.7v-0.3
			c0-0.9-0.7-1.5-1.8-1.5c-1.2,0-1.8,0.6-1.8,1.5v0.3c0,0.9,0.7,1.5,1.8,1.5C90.8,129.2,91.4,128.6,91.4,127.7z M91.2,123.8v-0.2
			c0-0.9-0.6-1.3-1.6-1.3s-1.6,0.4-1.6,1.3v0.2c0,0.9,0.6,1.3,1.6,1.3S91.2,124.6,91.2,123.8z"/>
	</g>
</g>
<g>
	<g>
		<path d="M231.8,91.2c0-2.4,1.4-3.9,3.6-4.4v-0.2c-1.8-0.6-3.1-2.1-3.1-4.2c0-2.8,2.2-4.6,5.9-4.6s5.9,1.9,5.9,4.6
			c0,2.1-1.2,3.5-3.1,4.2v0.2c2.2,0.6,3.6,2,3.6,4.4c0,3-2.3,5.2-6.5,5.2S231.8,94.2,231.8,91.2z M241.7,91.2v-0.5
			c0-1.8-1.2-2.8-3.4-2.8s-3.4,1.1-3.4,2.8v0.5c0,1.8,1.2,2.8,3.4,2.8S241.7,93,241.7,91.2z M241.3,83.1v-0.4c0-1.6-1.1-2.5-3.1-2.5
			s-3.1,0.9-3.1,2.5v0.4c0,1.6,1.1,2.5,3.1,2.5S241.3,84.7,241.3,83.1z"/>
	</g>
</g>
<g>
	<path class="st2" d="M320.3,104.3c0-3.6,2.4-6.5,4.5-7.9h2.7c-2.8,2.1-4.5,3.7-5.1,6.4l0.1,0c0.5-1,1.4-1.8,2.9-1.8
		c2.1,0,3.7,1.5,3.7,3.9c0,2.5-1.7,4.3-4.4,4.3C322,109.2,320.3,107.3,320.3,104.3z M327.1,105.3V105c0-1.5-0.9-2.3-2.3-2.3
		c-1.5,0-2.3,0.8-2.3,2.3v0.3c0,1.5,0.9,2.3,2.3,2.3C326.2,107.6,327.1,106.7,327.1,105.3z"/>
	<path class="st2" d="M336.6,109v-2.4h-5.8v-1.7l5.1-8.4h2.7v8.5h1.7v1.6h-1.7v2.4H336.6z M332.5,104.9h4.1v-6.7h-0.1L332.5,104.9z"
		/>
	<path class="st2" d="M342.2,108v-0.3c0-0.7,0.4-1.2,1.3-1.2c0.9,0,1.3,0.5,1.3,1.2v0.3c0,0.7-0.4,1.2-1.3,1.2
		C342.6,109.2,342.2,108.7,342.2,108z"/>
	<path class="st2" d="M355.9,109h-8.5v-1.9l4-3.6c1.3-1.1,2-2.1,2-3.3v-0.2c0-1.2-0.8-2-2-2c-1.4,0-2.1,0.9-2.4,2l-1.8-0.7
		c0.5-1.6,1.8-3.1,4.3-3.1c2.6,0,4,1.5,4,3.7c0,2-1.3,3.4-3,4.8l-3,2.5h6.3V109z"/>
	<path class="st2" d="M357.8,102.7c0-4.1,1.4-6.5,4.6-6.5s4.6,2.4,4.6,6.5c0,4.1-1.4,6.5-4.6,6.5S357.8,106.8,357.8,102.7z
		 M364.7,103.8v-2.2c0-2.2-0.6-3.7-2.4-3.7c-1.7,0-2.4,1.5-2.4,3.7v2.2c0,2.2,0.6,3.7,2.4,3.7C364.1,107.5,364.7,106,364.7,103.8z"
		/>
</g>
<g>
	<path class="st1" d="M14.2,129.9v-1.7h3.5v-9.4h-0.1l-2.9,3.1l-1.2-1.1l3.2-3.5h3.1v10.9h3.1v1.7H14.2z"/>
	<path class="st1" d="M24.4,125.2c0-3.6,2.4-6.5,4.5-7.9h2.7c-2.8,2.1-4.5,3.7-5.1,6.4l0.1,0c0.5-1,1.4-1.8,2.9-1.8
		c2.1,0,3.7,1.5,3.7,3.9c0,2.5-1.7,4.3-4.4,4.3C26.1,130.1,24.4,128.2,24.4,125.2z M31.2,126.2v-0.3c0-1.5-0.9-2.3-2.3-2.3
		c-1.5,0-2.3,0.8-2.3,2.3v0.3c0,1.5,0.9,2.3,2.3,2.3C30.3,128.5,31.2,127.6,31.2,126.2z"/>
	<path class="st1" d="M35.5,128.9v-0.3c0-0.7,0.4-1.2,1.3-1.2c0.9,0,1.3,0.5,1.3,1.2v0.3c0,0.7-0.4,1.2-1.3,1.2
		C35.9,130.1,35.5,129.6,35.5,128.9z"/>
	<path class="st1" d="M41,129.9v-1.7h3.5v-9.4h-0.1l-2.9,3.1l-1.2-1.1l3.2-3.5h3.1v10.9h3.1v1.7H41z"/>
	<path class="st1" d="M51.2,125.2c0-3.6,2.4-6.5,4.5-7.9h2.7c-2.8,2.1-4.5,3.7-5.1,6.4l0.1,0c0.5-1,1.4-1.8,2.9-1.8
		c2.1,0,3.7,1.5,3.7,3.9c0,2.5-1.7,4.3-4.4,4.3C52.9,130.1,51.2,128.2,51.2,125.2z M58,126.2v-0.3c0-1.5-0.9-2.3-2.3-2.3
		c-1.5,0-2.3,0.8-2.3,2.3v0.3c0,1.5,0.9,2.3,2.3,2.3C57.1,128.5,58,127.6,58,126.2z"/>
</g>
<g>
	<g>
		<path class="st1" d="M93.9,125.7c0-2.7,0.9-4.3,2.9-4.3s2.9,1.6,2.9,4.3s-0.9,4.3-2.9,4.3S93.9,128.4,93.9,125.7z M98.6,126.3V125
			c0-1.6-0.5-2.8-1.8-2.8c-1.3,0-1.8,1.2-1.8,2.8v1.4c0,1.6,0.5,2.8,1.8,2.8C98.1,129.1,98.6,128,98.6,126.3z"/>
	</g>
</g>
</svg>
