<?xml version="1.0" encoding="utf-8"?>
<!-- Generator: Adobe Illustrator 23.0.3, SVG Export Plug-In . SVG Version: 6.00 Build 0)  -->
<svg version="1.1" id="Layer_1" xmlns="http://www.w3.org/2000/svg" xmlns:xlink="http://www.w3.org/1999/xlink" x="0px" y="0px"
	 viewBox="0 0 445.2 212" style="enable-background:new 0 0 445.2 212;" xml:space="preserve">
<style type="text/css">
	.st0{fill:#DF1F26;}
	.st1{fill:#353D42;}
</style>
<g>
	<g>
		<g>
			<rect y="42.9" class="st0" width="229.9" height="37.9"/>
		</g>
	</g>
</g>
<g>
	<g>
		<g>
			<rect class="st0" width="278.2" height="37.9"/>
		</g>
	</g>
</g>
<g>
	<g>
		<g>
			<rect y="86.3" class="st0" width="29" height="37.9"/>
		</g>
	</g>
</g>
<g>
	<g>
		<g>
			<rect y="174.1" class="st0" width="6.8" height="37.9"/>
		</g>
	</g>
</g>
<g>
	<g>
		<g>
			<rect y="130.2" class="st0" width="17.4" height="37.9"/>
		</g>
	</g>
</g>
<g>
	<path class="st1" d="M284.8,32.5c0-2.4,1.3-4.4,3.4-4.4c1.1,0,1.9,0.5,2.2,1.6l-0.7,0.3c-0.3-0.8-0.7-1.2-1.6-1.2
		c-1.1,0-1.9,0.8-2.2,2.1l-0.2,1.1c0,0.3-0.1,0.5-0.1,0.7c0,1.1,0.6,1.8,1.6,1.8s1.5-0.5,1.9-1.3l0.7,0.3c-0.6,1.2-1.4,1.7-2.6,1.7
		C285.8,35.3,284.8,34.3,284.8,32.5z"/>
	<path class="st1" d="M294.5,35.2c-0.4,0-0.7-0.3-0.7-0.6c0-0.1,0-0.2,0-0.3l0.1-0.2l0,0c-0.4,0.9-0.9,1.2-1.7,1.2
		c-0.9,0-1.6-0.8-1.6-2c0-1.5,0.8-3.4,2.5-3.4c0.6,0,1.2,0.3,1.3,1l0,0l0.2-0.8h0.8l-0.9,4.5h0.7l-0.1,0.7h-0.6V35.2z M293.5,34.1
		c0.3-0.3,0.5-0.7,0.6-1.2l0.3-1.2c0.1-0.4-0.4-1-1.1-1c-0.9,0-1.4,0.6-1.6,1.6l-0.1,0.8c0,0.2-0.1,0.3-0.1,0.5c0,0.7,0.3,1.2,1,1.2
		C292.9,34.6,293.2,34.4,293.5,34.1z"/>
	<path class="st1" d="M297.4,35.2c-0.5,0-0.7-0.3-0.7-0.6c0-0.1,0-0.2,0-0.3l0.7-3.5h-0.8l0.1-0.7h0.4c0.4,0,0.4-0.1,0.5-0.5
		l0.2-0.9h0.7l-0.3,1.4h1.1l-0.1,0.7h-1.1l-0.8,3.8h1l-0.1,0.7h-0.8V35.2z"/>
	<path class="st1" d="M299.9,30h0.8l0.2-1.1c0.1-0.7,0.5-1.1,1.3-1.1h0.8l-0.1,0.7h-1l-0.3,1.6h2.7l-0.9,4.5h0.7l-0.1,0.7h-0.7
		c-0.5,0-0.7-0.3-0.7-0.6c0-0.1,0-0.2,0-0.2l0.7-3.6h-1.9l-1.1,5.3c-0.1,0.7-0.5,1.1-1.3,1.1h-0.7l0.1-0.7h0.9l1.2-5.8h-0.8
		L299.9,30z M303.7,28.4c0,0,0-0.1,0-0.3c0-0.3,0.2-0.4,0.5-0.4s0.4,0.2,0.4,0.3c0,0,0,0.1,0,0.3c0,0.3-0.2,0.4-0.5,0.4
		C303.8,28.8,303.7,28.6,303.7,28.4z"/>
	<path class="st1" d="M304.8,34.3l0.5-0.5c0.4,0.5,0.8,0.7,1.4,0.7c0.7,0,1.2-0.3,1.2-1c0-0.3-0.2-0.6-0.8-0.7l-0.4-0.1
		c-0.8-0.2-1.4-0.5-1.4-1.3c0-0.9,0.6-1.6,1.9-1.6c0.8,0,1.3,0.3,1.7,0.8l-0.5,0.5c-0.2-0.3-0.6-0.6-1.2-0.6c-0.7,0-1.1,0.4-1.1,0.9
		c0,0.4,0.2,0.6,0.7,0.7l0.4,0.1c0.8,0.2,1.4,0.5,1.4,1.4c0,1-0.8,1.7-1.9,1.7C306,35.3,305.2,34.9,304.8,34.3z"/>
	<path class="st1" d="M311.3,27.8h0.8l-0.7,3.3l0,0c0.4-0.8,0.8-1.1,1.6-1.1c0.9,0,1.3,0.5,1.3,1.4c0,0.2,0,0.4-0.1,0.7l-0.5,2.5
		h0.7l-0.1,0.7h-0.7c-0.4,0-0.6-0.2-0.6-0.6c0-0.1,0-0.1,0-0.2l0.5-2.4c0-0.2,0-0.4,0-0.5c0-0.6-0.2-0.9-0.8-0.9
		c-0.4,0-0.7,0.1-0.9,0.4c-0.3,0.3-0.6,0.9-0.7,1.3l-0.6,2.9h-0.8L311.3,27.8z"/>
	<path class="st1" d="M316.3,35.2c-0.5,0-0.7-0.3-0.7-0.6c0-0.1,0-0.1,0-0.2l0.9-4.3h0.8l-0.9,4.5h0.7l-0.1,0.7h-0.7V35.2z
		 M316.7,28.4c0,0,0-0.1,0-0.3c0.1-0.3,0.2-0.4,0.5-0.4s0.4,0.2,0.4,0.3c0,0,0,0.1,0,0.3c0,0.3-0.2,0.4-0.5,0.4
		C316.8,28.8,316.7,28.6,316.7,28.4z"/>
	<path class="st1" d="M318.1,35.2l1-5.2h0.8l-0.2,1l0,0c0.4-0.8,0.8-1.1,1.6-1.1c0.9,0,1.3,0.5,1.3,1.4c0,0.2,0,0.4-0.1,0.7
		l-0.5,2.5h0.7l-0.1,0.7h-0.7c-0.4,0-0.6-0.2-0.6-0.6c0-0.1,0-0.1,0-0.2l0.5-2.4c0-0.2,0-0.4,0-0.5c0-0.6-0.2-0.9-0.8-0.9
		c-0.4,0-0.7,0.1-0.9,0.4c-0.3,0.3-0.6,0.9-0.7,1.3l-0.6,2.9H318.1z"/>
	<path class="st1" d="M325.3,37.3c-1.4,0-2.1-0.4-2.1-1.1c0-0.5,0.3-0.9,1-1.1V35c-0.3-0.1-0.4-0.3-0.4-0.6c0-0.5,0.3-0.8,1-1v-0.1
		c-0.5-0.2-0.7-0.7-0.7-1.3c0-1.2,0.9-2.1,2.2-2.1c0.4,0,0.7,0.1,1,0.2V30c0.1-0.4,0.3-0.7,0.7-0.7h0.7l-0.1,0.7h-0.9l-0.1,0.4
		c0.2,0.3,0.3,0.6,0.3,1c0,1.2-0.9,2-2.2,2c-0.1,0-0.2,0-0.4,0c-0.5,0.1-0.8,0.3-0.8,0.6s0.2,0.4,0.7,0.4h1.1c1.1,0,1.6,0.4,1.6,1.2
		C328,36.4,327.3,37.3,325.3,37.3z M326.3,35.1h-1.8c-0.4,0.2-0.6,0.4-0.6,0.8c0,0.4,0.3,0.7,1.1,0.7h0.5c1.1,0,1.6-0.4,1.6-1
		C327.2,35.3,327,35.1,326.3,35.1z M327.1,31.8c0.1-0.4,0.1-0.4,0.1-0.6c0-0.5-0.3-0.8-0.9-0.8c-0.7,0-1.1,0.4-1.2,1
		c-0.1,0.4-0.1,0.4-0.1,0.6c0,0.5,0.3,0.8,0.9,0.8C326.6,32.8,327,32.4,327.1,31.8z"/>
	<path class="st1" d="M332.2,35.2c-0.5,0-0.7-0.3-0.7-0.6c0-0.1,0-0.2,0-0.3l0.7-3.5h-0.8l0.1-0.7h0.4c0.4,0,0.4-0.1,0.5-0.5
		l0.2-0.9h0.7l-0.3,1.4h1.1l-0.1,0.7h-1l-0.8,3.8h1l-0.1,0.7h-0.9V35.2z"/>
	<path class="st1" d="M334.8,30h0.7l0.1,2.5l0.1,1.9l0,0l0.8-1.7l1.3-2.7h0.7l0.2,2.6l0.1,1.8l0,0l0.8-1.7l1.2-2.6h0.7l-2.3,5.2
		h-0.9l-0.3-2.8l-0.1-1.3l0,0l-0.6,1.3l-1.3,2.8h-1L334.8,30z"/>
	<path class="st1" d="M341.7,33.1c0-1.7,1.1-3.2,2.7-3.2c0.9,0,1.7,0.5,1.7,1.4c0,1.1-1.2,1.7-3.6,1.7c0,0.1,0,0.3,0,0.4
		c0,0.7,0.4,1.2,1.2,1.2c0.7,0,1.2-0.3,1.6-0.8l0.5,0.5c-0.6,0.8-1.4,1.1-2.1,1.1C342.4,35.3,341.7,34.5,341.7,33.1z M342.7,32.1
		l-0.1,0.3c2.2-0.1,2.7-0.4,2.7-1.1c0-0.5-0.5-0.7-0.9-0.7C343.5,30.5,342.9,31.1,342.7,32.1z"/>
	<path class="st1" d="M346.8,33.1c0-1.7,1.1-3.2,2.7-3.2c0.9,0,1.7,0.5,1.7,1.4c0,1.1-1.2,1.7-3.6,1.7c0,0.1,0,0.3,0,0.4
		c0,0.7,0.4,1.2,1.2,1.2c0.7,0,1.2-0.3,1.6-0.8l0.5,0.5c-0.6,0.8-1.4,1.1-2.1,1.1C347.5,35.3,346.8,34.5,346.8,33.1z M347.8,32.1
		l-0.1,0.3c2.2-0.1,2.7-0.4,2.7-1.1c0-0.5-0.5-0.7-0.9-0.7C348.6,30.5,348,31.1,347.8,32.1z"/>
	<path class="st1" d="M352.8,35.2c-0.5,0-0.7-0.3-0.7-0.6c0-0.1,0-0.2,0-0.3l0.7-3.5H352l0.1-0.7h0.4c0.4,0,0.4-0.1,0.5-0.5l0.2-0.9
		h0.7l-0.3,1.4h1.1l-0.1,0.7h-1.1l-0.8,3.8h1l-0.1,0.7h-0.8V35.2z"/>
	<path class="st1" d="M354.8,34.3l0.5-0.5c0.4,0.5,0.8,0.7,1.4,0.7c0.7,0,1.2-0.3,1.2-1c0-0.3-0.2-0.6-0.8-0.7l-0.4-0.1
		c-0.8-0.2-1.4-0.5-1.4-1.3c0-0.9,0.6-1.6,1.9-1.6c0.8,0,1.3,0.3,1.7,0.8l-0.5,0.5c-0.2-0.3-0.6-0.6-1.2-0.6c-0.7,0-1.1,0.4-1.1,0.9
		c0,0.4,0.2,0.6,0.7,0.7l0.4,0.1c0.8,0.2,1.4,0.5,1.4,1.4c0,1-0.8,1.7-1.9,1.7C355.9,35.3,355.2,34.9,354.8,34.3z"/>
</g>
<g>
	<path class="st1" d="M238.9,62.2l-1.2,6.3h-0.8l1.2-6.3H236l0.1-0.7h5.1l-0.1,0.7H238.9z"/>
	<path class="st1" d="M240.9,63.3h0.7l0.1,2.5l0.1,1.9l0,0l0.8-1.7l1.3-2.7h0.7l0.2,2.6l0.1,1.8l0,0l0.8-1.7l1.2-2.6h0.7l-2.3,5.2
		h-0.9l-0.3-2.8l-0.1-1.3l0,0l-0.6,1.3l-1.3,2.8h-1L240.9,63.3z"/>
	<path class="st1" d="M247.8,66.4c0-1.7,1.1-3.2,2.7-3.2c0.9,0,1.7,0.5,1.7,1.4c0,1.1-1.2,1.7-3.6,1.7c0,0.1,0,0.3,0,0.4
		c0,0.7,0.4,1.2,1.2,1.2c0.7,0,1.2-0.3,1.6-0.8l0.5,0.5c-0.6,0.8-1.4,1.1-2.1,1.1C248.5,68.6,247.8,67.8,247.8,66.4z M248.8,65.4
		l-0.1,0.3c2.2-0.1,2.7-0.4,2.7-1.1c0-0.5-0.5-0.7-0.9-0.7C249.6,63.9,249,64.5,248.8,65.4z"/>
	<path class="st1" d="M252.9,66.4c0-1.7,1.1-3.2,2.7-3.2c0.9,0,1.7,0.5,1.7,1.4c0,1.1-1.2,1.7-3.6,1.7c0,0.1,0,0.3,0,0.4
		c0,0.7,0.4,1.2,1.2,1.2c0.7,0,1.2-0.3,1.6-0.8l0.5,0.5c-0.6,0.8-1.4,1.1-2.1,1.1C253.7,68.6,252.9,67.8,252.9,66.4z M253.9,65.4
		l-0.1,0.3c2.2-0.1,2.7-0.4,2.7-1.1c0-0.5-0.5-0.7-0.9-0.7C254.7,63.9,254.1,64.5,253.9,65.4z"/>
	<path class="st1" d="M258.9,68.5c-0.5,0-0.7-0.3-0.7-0.6c0-0.1,0-0.2,0-0.3L259,64h-0.8l0.1-0.7h0.4c0.4,0,0.4-0.1,0.5-0.5l0.2-0.9
		h0.7l-0.3,1.4h1.1l-0.1,0.7h-1.1l-0.8,3.8h1l-0.1,0.7H258.9z"/>
	<path class="st1" d="M260.9,67.7l0.5-0.5c0.4,0.5,0.8,0.7,1.4,0.7c0.7,0,1.2-0.3,1.2-1c0-0.3-0.2-0.6-0.8-0.7l-0.4-0.1
		c-0.8-0.2-1.4-0.5-1.4-1.3c0-0.9,0.6-1.6,1.9-1.6c0.8,0,1.3,0.3,1.7,0.8l-0.5,0.5c-0.2-0.3-0.6-0.6-1.2-0.6c-0.7,0-1.1,0.4-1.1,0.9
		c0,0.4,0.2,0.6,0.7,0.7l0.4,0.1c0.8,0.2,1.4,0.5,1.4,1.4c0,1-0.8,1.7-1.9,1.7C262.1,68.6,261.3,68.3,260.9,67.7z"/>
	<path class="st1" d="M269.2,63.3h0.8l-0.2,1.1l0,0c0.4-0.9,0.9-1.2,1.7-1.2c0.9,0,1.6,0.8,1.6,2c0,1.5-0.8,3.4-2.5,3.4
		c-0.6,0-1.2-0.3-1.3-1l0,0l-0.6,2.8h-0.8L269.2,63.3z M272,66.3l0.1-0.8c0-0.2,0.1-0.3,0.1-0.5c0-0.7-0.3-1.2-1-1.2
		c-0.4,0-0.8,0.2-1.1,0.5c-0.3,0.3-0.5,0.7-0.6,1.2l-0.2,1c-0.1,0.6,0.2,1.2,1.1,1.2C271.3,67.9,271.8,67.3,272,66.3z"/>
	<path class="st1" d="M273.9,68.5l1-5.2h0.8l-0.2,1l0,0c0.3-0.5,0.7-1,1.5-1h0.3l-0.2,0.8h-0.4c-1,0-1.5,0.6-1.6,1.3l-0.6,3.1
		C274.5,68.5,273.9,68.5,273.9,68.5z"/>
	<path class="st1" d="M277.6,66.5c0-1.7,1.1-3.3,2.7-3.3c1.1,0,1.9,0.7,1.9,2.1c0,1.7-1.1,3.3-2.7,3.3
		C278.4,68.6,277.6,67.9,277.6,66.5z M281.2,66.3l0.1-0.8c0-0.1,0.1-0.3,0.1-0.4c0-0.7-0.4-1.2-1.2-1.2c-0.7,0-1.4,0.6-1.6,1.6
		l-0.2,0.8c0,0.1,0,0.3,0,0.4c0,0.7,0.4,1.2,1.2,1.2C280.3,67.9,281,67.3,281.2,66.3z"/>
	<path class="st1" d="M283.8,68.5l-0.8-5.2h0.7l0.4,2.5l0.2,1.9l0,0l0.9-1.9l1.4-2.5h0.8l-2.8,5.2H283.8z"/>
	<path class="st1" d="M288.4,68.5c-0.5,0-0.7-0.3-0.7-0.6c0-0.1,0-0.1,0-0.2l0.9-4.3h0.8l-0.9,4.5h0.7l-0.1,0.7L288.4,68.5
		L288.4,68.5z M288.9,61.8c0,0,0-0.1,0-0.3c0.1-0.3,0.2-0.4,0.5-0.4s0.4,0.2,0.4,0.3c0,0,0,0.1,0,0.3c0,0.3-0.2,0.4-0.5,0.4
		C289,62.1,288.9,62,288.9,61.8z"/>
	<path class="st1" d="M294.2,68.5c-0.4,0-0.7-0.3-0.7-0.6c0-0.1,0-0.2,0-0.3l0.1-0.2l0,0c-0.4,0.9-0.9,1.2-1.7,1.2
		c-0.9,0-1.6-0.8-1.6-2c0-1.5,0.8-3.4,2.5-3.4c0.6,0,1.2,0.3,1.3,1l0,0l0.6-3.1h0.8l-1.3,6.7h0.7l-0.1,0.7
		C294.8,68.5,294.2,68.5,294.2,68.5z M293.2,67.4c0.3-0.3,0.5-0.7,0.6-1.2l0.2-1c0.1-0.6-0.2-1.2-1.1-1.2c-0.8,0-1.4,0.6-1.6,1.6
		l-0.1,0.8c0,0.2-0.1,0.3-0.1,0.5c0,0.7,0.3,1.2,1,1.2C292.6,67.9,292.9,67.7,293.2,67.4z"/>
	<path class="st1" d="M296.9,68.5c-0.5,0-0.7-0.3-0.7-0.6c0-0.1,0-0.1,0-0.2l0.9-4.3h0.8l-0.9,4.5h0.7l-0.1,0.7L296.9,68.5
		L296.9,68.5z M297.3,61.8c0,0,0-0.1,0-0.3c0.1-0.3,0.2-0.4,0.5-0.4s0.4,0.2,0.4,0.3c0,0,0,0.1,0,0.3c0,0.3-0.2,0.4-0.5,0.4
		C297.4,62.1,297.3,62,297.3,61.8z"/>
	<path class="st1" d="M298.7,68.5l1-5.2h0.8l-0.2,1l0,0c0.4-0.8,0.8-1.1,1.6-1.1c0.9,0,1.3,0.5,1.3,1.4c0,0.2,0,0.4-0.1,0.7
		l-0.5,2.5h0.7l-0.1,0.7h-0.7c-0.4,0-0.6-0.2-0.6-0.6c0-0.1,0-0.1,0-0.2l0.5-2.4c0-0.2,0-0.4,0-0.5c0-0.6-0.2-0.9-0.8-0.9
		c-0.4,0-0.7,0.1-0.9,0.4c-0.3,0.3-0.6,0.9-0.7,1.3l-0.6,2.9C299.4,68.5,298.7,68.5,298.7,68.5z"/>
	<path class="st1" d="M305.9,70.6c-1.4,0-2.1-0.4-2.1-1.1c0-0.5,0.3-0.9,1-1.1v-0.1c-0.3-0.1-0.4-0.3-0.4-0.6c0-0.5,0.3-0.8,1-1
		v-0.1c-0.5-0.2-0.7-0.7-0.7-1.3c0-1.2,0.9-2.1,2.2-2.1c0.4,0,0.7,0.1,1,0.2v-0.1c0.1-0.4,0.3-0.7,0.7-0.7h0.7l-0.1,0.7h-0.9
		l-0.1,0.4c0.2,0.3,0.3,0.6,0.3,1c0,1.2-0.9,2-2.2,2c-0.1,0-0.2,0-0.4,0c-0.5,0.1-0.8,0.3-0.8,0.6c0,0.3,0.2,0.4,0.7,0.4h1.1
		c1.1,0,1.6,0.4,1.6,1.2C308.6,69.8,308,70.6,305.9,70.6z M307,68.4h-1.8c-0.4,0.2-0.6,0.4-0.6,0.8s0.3,0.7,1.1,0.7h0.5
		c1.1,0,1.6-0.4,1.6-1C307.8,68.6,307.6,68.4,307,68.4z M307.7,65.2c0.1-0.4,0.1-0.4,0.1-0.6c0-0.5-0.3-0.8-0.9-0.8
		c-0.7,0-1.1,0.4-1.2,1c-0.1,0.4-0.1,0.4-0.1,0.6c0,0.5,0.3,0.8,0.9,0.8C307.2,66.1,307.6,65.8,307.7,65.2z"/>
	<path class="st1" d="M311.9,66.5c0-1.7,1.1-3.3,2.7-3.3c1.1,0,1.9,0.7,1.9,2.1c0,1.7-1.1,3.3-2.7,3.3
		C312.7,68.6,311.9,67.9,311.9,66.5z M315.5,66.3l0.1-0.8c0-0.1,0.1-0.3,0.1-0.4c0-0.7-0.4-1.2-1.2-1.2c-0.7,0-1.4,0.6-1.6,1.6
		l-0.2,0.8c0,0.1,0,0.3,0,0.4c0,0.7,0.4,1.2,1.2,1.2C314.6,67.9,315.3,67.3,315.5,66.3z"/>
	<path class="st1" d="M318,69.3c-0.1,0.7-0.5,1.1-1.3,1.1H316l0.1-0.7h0.9l1.2-5.8h-0.8l0.1-0.7h0.8l0.2-1.1
		c0.1-0.7,0.5-1.1,1.3-1.1h0.8l-0.1,0.7h-1l-0.3,1.6h1l-0.1,0.7h-1L318,69.3z"/>
	<path class="st1" d="M321.1,69.3c-0.1,0.7-0.5,1.1-1.3,1.1h-0.7l0.1-0.7h0.9l1.2-5.8h-0.8l0.1-0.7h0.8l0.2-1.1
		c0.1-0.7,0.5-1.1,1.3-1.1h0.8l-0.1,0.7h-1l-0.3,1.6h1l-0.1,0.7h-1L321.1,69.3z"/>
	<path class="st1" d="M323.4,66.4c0-1.7,1.1-3.2,2.7-3.2c0.9,0,1.7,0.5,1.7,1.4c0,1.1-1.2,1.7-3.6,1.7c0,0.1,0,0.3,0,0.4
		c0,0.7,0.4,1.2,1.2,1.2c0.7,0,1.2-0.3,1.6-0.8l0.5,0.5c-0.6,0.8-1.4,1.1-2.1,1.1C324.2,68.6,323.4,67.8,323.4,66.4z M324.4,65.4
		l-0.1,0.3c2.2-0.1,2.7-0.4,2.7-1.1c0-0.5-0.5-0.7-0.9-0.7C325.3,63.9,324.6,64.5,324.4,65.4z"/>
	<path class="st1" d="M328.4,68.5l1-5.2h0.8l-0.2,1l0,0c0.3-0.5,0.7-1,1.5-1h0.3l-0.2,0.8h-0.4c-1,0-1.5,0.6-1.6,1.3l-0.6,3.1
		C329,68.5,328.4,68.5,328.4,68.5z"/>
	<path class="st1" d="M331.8,67.7l0.5-0.5c0.4,0.5,0.8,0.7,1.4,0.7c0.7,0,1.2-0.3,1.2-1c0-0.3-0.2-0.6-0.8-0.7l-0.4-0.1
		c-0.8-0.2-1.4-0.5-1.4-1.3c0-0.9,0.6-1.6,1.9-1.6c0.8,0,1.3,0.3,1.7,0.8l-0.5,0.5c-0.2-0.3-0.6-0.6-1.2-0.6c-0.7,0-1.1,0.4-1.1,0.9
		c0,0.4,0.2,0.6,0.7,0.7l0.4,0.1c0.8,0.2,1.4,0.5,1.4,1.4c0,1-0.8,1.7-1.9,1.7C333,68.6,332.3,68.3,331.8,67.7z"/>
	<path class="st1" d="M238.9,72h0.8c-1.3,1-2.3,2.6-2.6,3.9l-0.2,0.8c-0.1,0.3-0.1,0.6-0.1,0.9c0,1.2,0.4,2.4,1,3.3H237
		c-0.6-0.7-1-1.9-1-3.3C236.1,75.1,237.5,73.1,238.9,72z"/>
	<path class="st1" d="M241.6,75.4l-0.5-1.7l0,0l-1.2,5.9h-0.8l1.4-7h0.9l1.5,4.2l0.5,1.7h0.1l1.2-5.9h0.8l-1.4,7h-0.9L241.6,75.4z"
		/>
	<path class="st1" d="M246,77.5c0-1.7,1.1-3.2,2.7-3.2c0.9,0,1.7,0.5,1.7,1.4c0,1.1-1.2,1.7-3.6,1.7c0,0.1,0,0.3,0,0.4
		c0,0.7,0.4,1.2,1.2,1.2c0.7,0,1.2-0.3,1.6-0.8l0.5,0.5c-0.6,0.8-1.4,1.1-2.1,1.1C246.7,79.7,246,78.9,246,77.5z M246.9,76.5
		l-0.1,0.3c2.2-0.1,2.7-0.4,2.7-1.1c0-0.5-0.5-0.7-0.9-0.7C247.8,75,247.1,75.6,246.9,76.5z"/>
	<path class="st1" d="M252,79.6c-0.5,0-0.7-0.3-0.7-0.6c0-0.1,0-0.2,0-0.3l0.7-3.5h-0.8l0.1-0.7h0.4c0.4,0,0.4-0.1,0.5-0.5l0.2-0.9
		h0.7l-0.3,1.4h1.1l-0.1,0.7h-1.1l-0.8,3.8h1l-0.1,0.7L252,79.6L252,79.6z"/>
	<path class="st1" d="M254.9,80.4c-0.1,0.7-0.5,1.1-1.3,1.1h-0.7l0.1-0.7h0.9l1.2-5.8h-0.8l0.1-0.7h0.8l0.2-1.1
		c0.1-0.7,0.5-1.1,1.3-1.1h0.8l-0.1,0.7h-1l-0.3,1.6h1l-0.1,0.7h-1L254.9,80.4z"/>
	<path class="st1" d="M258,79.6c-0.5,0-0.7-0.3-0.7-0.6c0-0.1,0-0.1,0-0.2l1.3-6.5h0.8l-1.3,6.7h0.8l-0.1,0.7L258,79.6L258,79.6z"/>
	<path class="st1" d="M260.7,79.6c-0.5,0-0.7-0.3-0.7-0.6c0-0.1,0-0.1,0-0.2l0.9-4.3h0.8l-0.9,4.5h0.7l-0.1,0.7L260.7,79.6
		L260.7,79.6z M261.1,72.9c0,0,0-0.1,0-0.3c0.1-0.3,0.2-0.4,0.5-0.4s0.4,0.2,0.4,0.3c0,0,0,0.1,0,0.3c0,0.3-0.2,0.4-0.5,0.4
		C261.2,73.2,261.1,73.1,261.1,72.9z"/>
	<path class="st1" d="M261.8,79.6l2.3-2.7l-1.3-2.5h0.8l0.9,2l0,0l1.7-2h0.9l-2.2,2.6l1.4,2.6h-0.7l-1-2.1l0,0l-1.8,2.1H261.8z"/>
	<path class="st1" d="M269.5,78.8l0.5-0.5c0.4,0.5,0.8,0.7,1.4,0.7c0.7,0,1.2-0.3,1.2-1c0-0.3-0.2-0.6-0.8-0.7l-0.4-0.1
		c-0.8-0.2-1.4-0.5-1.4-1.3c0-0.9,0.6-1.6,1.9-1.6c0.8,0,1.3,0.3,1.7,0.8l-0.5,0.5c-0.2-0.3-0.6-0.6-1.2-0.6c-0.7,0-1.1,0.4-1.1,0.9
		c0,0.4,0.2,0.6,0.7,0.7l0.4,0.1c0.8,0.2,1.4,0.5,1.4,1.4c0,1-0.8,1.7-1.9,1.7C270.7,79.7,270,79.4,269.5,78.8z"/>
	<path class="st1" d="M276.2,74.4l-0.6,3.2c0,0.2,0,0.4,0,0.5c0,0.6,0.2,0.9,0.8,0.9c0.4,0,0.7-0.1,0.9-0.4c0.4-0.4,0.6-0.9,0.7-1.3
		l0.6-2.9h0.8l-0.9,4.5h0.7l-0.1,0.7h-0.7c-0.4,0-0.7-0.3-0.7-0.6c0-0.1,0-0.1,0-0.3v-0.1l0,0c-0.4,0.8-0.8,1.1-1.5,1.1
		c-0.9,0-1.3-0.5-1.3-1.4c0-0.2,0-0.4,0.1-0.7l0.6-3.2C275.6,74.3,276.2,74.3,276.2,74.4z"/>
	<path class="st1" d="M281.6,72.2h0.8l-0.7,3.4l0,0c0.4-0.9,0.9-1.2,1.7-1.2c0.9,0,1.6,0.8,1.6,2c0,1.5-0.8,3.4-2.5,3.4
		c-0.6,0-1.2-0.3-1.3-1l0,0l-0.2,0.8h-0.8L281.6,72.2z M284,77.4l0.1-0.8c0-0.2,0.1-0.3,0.1-0.5c0-0.7-0.3-1.2-1-1.2
		c-0.4,0-0.8,0.2-1.1,0.5c-0.3,0.3-0.5,0.7-0.6,1.2l-0.2,1c-0.1,0.6,0.2,1.2,1.1,1.2C283.2,79,283.8,78.4,284,77.4z"/>
	<path class="st1" d="M285.9,77.6c0-1.8,1-3.3,2.5-3.3c0.9,0,1.5,0.5,1.7,1.2l-0.6,0.3c-0.2-0.5-0.5-0.8-1.1-0.8
		c-0.8,0-1.3,0.6-1.5,1.5l-0.2,0.8c0,0.1,0,0.3,0,0.4c0,0.7,0.4,1.3,1.2,1.3c0.5,0,0.9-0.2,1.3-1l0.6,0.3c-0.4,0.9-1.1,1.4-2,1.4
		C286.6,79.7,285.9,78.9,285.9,77.6z"/>
	<path class="st1" d="M290.7,79.6l1-5.2h0.8l-0.2,1l0,0c0.3-0.5,0.7-1,1.5-1h0.3l-0.2,0.8h-0.4c-1,0-1.5,0.6-1.6,1.3l-0.6,3.1
		C291.3,79.6,290.7,79.6,290.7,79.6z"/>
	<path class="st1" d="M295.2,79.6c-0.5,0-0.7-0.3-0.7-0.6c0-0.1,0-0.1,0-0.2l0.9-4.3h0.8l-0.9,4.5h0.7l-0.1,0.7L295.2,79.6
		L295.2,79.6z M295.6,72.9c0,0,0-0.1,0-0.3c0.1-0.3,0.2-0.4,0.5-0.4s0.4,0.2,0.4,0.3c0,0,0,0.1,0,0.3c0,0.3-0.2,0.4-0.5,0.4
		C295.7,73.2,295.6,73.1,295.6,72.9z"/>
	<path class="st1" d="M298,74.4h0.8l-0.2,1.1l0,0c0.4-0.9,0.9-1.2,1.7-1.2c0.9,0,1.6,0.8,1.6,2c0,1.5-0.8,3.4-2.5,3.4
		c-0.6,0-1.2-0.3-1.3-1l0,0l-0.6,2.8h-0.9L298,74.4z M300.8,77.4l0.1-0.8c0-0.2,0.1-0.3,0.1-0.5c0-0.7-0.3-1.2-1-1.2
		c-0.4,0-0.8,0.2-1.1,0.5c-0.3,0.3-0.5,0.7-0.6,1.2l-0.2,1c-0.1,0.6,0.2,1.2,1.1,1.2C300.1,79,300.6,78.4,300.8,77.4z"/>
	<path class="st1" d="M303.7,79.6c-0.5,0-0.7-0.3-0.7-0.6c0-0.1,0-0.2,0-0.3l0.7-3.5h-0.8l0.1-0.7h0.4c0.4,0,0.4-0.1,0.5-0.5
		l0.2-0.9h0.7l-0.3,1.4h1.1l0,0.6h-1.1l-0.8,3.8h1l-0.1,0.7H303.7z"/>
	<path class="st1" d="M306.7,79.6c-0.5,0-0.7-0.3-0.7-0.6c0-0.1,0-0.1,0-0.2l0.9-4.3h0.8l-0.9,4.5h0.7l-0.1,0.7L306.7,79.6
		L306.7,79.6z M307.1,72.9c0,0,0-0.1,0-0.3c0.1-0.3,0.2-0.4,0.5-0.4s0.4,0.2,0.4,0.3c0,0,0,0.1,0,0.3c0,0.3-0.2,0.4-0.5,0.4
		C307.2,73.2,307.1,73.1,307.1,72.9z"/>
	<path class="st1" d="M308.6,77.6c0-1.7,1.1-3.3,2.7-3.3c1.1,0,1.9,0.7,1.9,2.1c0,1.7-1.1,3.3-2.7,3.3
		C309.4,79.7,308.6,79,308.6,77.6z M312.2,77.4l0.1-0.8c0-0.1,0.1-0.3,0.1-0.4c0-0.7-0.4-1.2-1.2-1.2c-0.7,0-1.4,0.6-1.6,1.6
		l-0.2,0.8c0,0.1,0,0.3,0,0.4c0,0.7,0.4,1.2,1.2,1.2C311.3,79,312,78.4,312.2,77.4z"/>
	<path class="st1" d="M314,79.6l1-5.2h0.8l-0.2,1l0,0c0.4-0.8,0.8-1.1,1.6-1.1c0.9,0,1.3,0.5,1.3,1.4c0,0.2,0,0.4-0.1,0.7l-0.5,2.5
		h0.7l-0.1,0.7h-0.7c-0.4,0-0.6-0.2-0.6-0.6c0-0.1,0-0.1,0-0.2l0.5-2.4c0-0.2,0-0.4,0-0.5c0-0.6-0.2-0.9-0.8-0.9
		c-0.4,0-0.7,0.1-0.9,0.4c-0.3,0.3-0.6,0.9-0.7,1.3l-0.6,2.9C314.6,79.6,314,79.6,314,79.6z"/>
	<path class="st1" d="M322.4,74.4h0.7l0.1,2.5l0.1,1.9l0,0l0.8-1.7l1.3-2.7h0.7l0.2,2.6l0.1,1.8l0,0l0.8-1.7l1.2-2.6h0.7l-2.3,5.2
		h-0.9l-0.3-2.8l-0.1-1.3l0,0l-0.6,1.3l-1.3,2.8h-1L322.4,74.4z"/>
	<path class="st1" d="M333.2,79.6c-0.4,0-0.7-0.3-0.7-0.6c0-0.1,0-0.2,0-0.3l0.1-0.2l0,0c-0.4,0.9-0.9,1.2-1.7,1.2
		c-0.9,0-1.6-0.8-1.6-2c0-1.5,0.8-3.4,2.5-3.4c0.6,0,1.2,0.3,1.3,1l0,0l0.2-0.8h0.8l-0.9,4.5h0.7l-0.1,0.7L333.2,79.6L333.2,79.6z
		 M332.2,78.5c0.3-0.3,0.5-0.7,0.6-1.2l0.3-1.2c0.1-0.4-0.4-1-1.1-1c-0.9,0-1.4,0.6-1.6,1.6l-0.1,0.8c0,0.2-0.1,0.3-0.1,0.5
		c0,0.7,0.3,1.2,1,1.2C331.6,79,331.9,78.8,332.2,78.5z"/>
	<path class="st1" d="M334.8,78.8l0.5-0.5c0.4,0.5,0.8,0.7,1.4,0.7c0.7,0,1.2-0.3,1.2-1c0-0.3-0.2-0.6-0.8-0.7l-0.4-0.1
		c-0.8-0.2-1.4-0.5-1.4-1.3c0-0.9,0.6-1.6,1.9-1.6c0.8,0,1.3,0.3,1.7,0.8l-0.5,0.5c-0.2-0.3-0.6-0.6-1.2-0.6c-0.7,0-1.1,0.4-1.1,0.9
		c0,0.4,0.2,0.6,0.7,0.7l0.4,0.1c0.8,0.2,1.4,0.5,1.4,1.4c0,1-0.8,1.7-1.9,1.7C336,79.7,335.2,79.4,334.8,78.8z"/>
	<path class="st1" d="M343.1,79.6c-0.5,0-0.7-0.3-0.7-0.6c0-0.1,0-0.2,0-0.3l0.7-3.5h-0.8l0.1-0.7h0.4c0.4,0,0.4-0.1,0.5-0.5
		l0.2-0.9h0.7l-0.3,1.4h1.1l-0.1,0.7h-1.1L343,79h1l-0.1,0.7L343.1,79.6L343.1,79.6z"/>
	<path class="st1" d="M346.8,72.2h0.8l-0.7,3.3l0,0c0.4-0.8,0.8-1.1,1.6-1.1c0.9,0,1.3,0.5,1.3,1.4c0,0.2,0,0.4-0.1,0.7l-0.5,2.5
		h0.7l-0.1,0.7h-0.7c-0.4,0-0.6-0.2-0.6-0.6c0-0.1,0-0.1,0-0.2l0.5-2.4c0-0.2,0-0.4,0-0.5c0-0.6-0.2-0.9-0.8-0.9
		c-0.4,0-0.7,0.1-0.9,0.4c-0.3,0.3-0.6,0.9-0.7,1.3l-0.6,2.9h-0.8L346.8,72.2z"/>
	<path class="st1" d="M351.1,77.5c0-1.7,1.1-3.2,2.7-3.2c0.9,0,1.7,0.5,1.7,1.4c0,1.1-1.2,1.7-3.6,1.7c0,0.1,0,0.3,0,0.4
		c0,0.7,0.4,1.2,1.2,1.2c0.7,0,1.2-0.3,1.6-0.8l0.5,0.5c-0.6,0.8-1.4,1.1-2.1,1.1C351.8,79.7,351.1,78.9,351.1,77.5z M352.1,76.5
		l-0.1,0.3c2.2-0.1,2.7-0.4,2.7-1.1c0-0.5-0.5-0.7-0.9-0.7C352.9,75,352.3,75.6,352.1,76.5z"/>
	<path class="st1" d="M358.4,79.6l1-5.2h0.8l-0.2,1l0,0c0.4-0.8,0.8-1.1,1.6-1.1c0.7,0,1.1,0.4,1.2,1.1h0.1c0.4-0.8,0.8-1.1,1.6-1.1
		c0.9,0,1.3,0.5,1.3,1.4c0,0.2,0,0.4-0.1,0.7l-0.5,2.5h0.7l-0.1,0.7h-0.7c-0.4,0-0.7-0.2-0.7-0.6c0-0.1,0-0.1,0-0.2l0.5-2.4
		c0-0.2,0.1-0.4,0.1-0.5c0-0.5-0.2-0.8-0.8-0.8c-0.3,0-0.6,0.1-0.9,0.4s-0.6,0.9-0.6,1.3l-0.6,2.9h-0.8l0.6-3.2
		c0-0.2,0.1-0.4,0.1-0.6c0-0.5-0.2-0.8-0.7-0.8c-0.3,0-0.7,0.2-0.9,0.4c-0.4,0.4-0.6,0.9-0.7,1.3l-0.6,2.9h-0.7V79.6z"/>
	<path class="st1" d="M367.1,77.6c0-1.7,1.1-3.3,2.7-3.3c1.1,0,1.9,0.7,1.9,2.1c0,1.7-1.1,3.3-2.7,3.3
		C367.8,79.7,367.1,79,367.1,77.6z M370.6,77.4l0.1-0.8c0-0.1,0.1-0.3,0.1-0.4c0-0.7-0.4-1.2-1.2-1.2c-0.7,0-1.4,0.6-1.6,1.6
		l-0.2,0.8c0,0.1,0,0.3,0,0.4c0,0.7,0.4,1.2,1.2,1.2S370.4,78.4,370.6,77.4z"/>
	<path class="st1" d="M372.2,78.8l0.5-0.5c0.4,0.5,0.8,0.7,1.4,0.7c0.7,0,1.2-0.3,1.2-1c0-0.3-0.2-0.6-0.8-0.7l-0.4-0.1
		c-0.8-0.2-1.4-0.5-1.4-1.3c0-0.9,0.6-1.6,1.9-1.6c0.8,0,1.3,0.3,1.7,0.8l-0.5,0.5c-0.2-0.3-0.6-0.6-1.2-0.6c-0.7,0-1.1,0.4-1.1,0.9
		c0,0.4,0.2,0.6,0.7,0.7l0.4,0.1c0.8,0.2,1.4,0.5,1.4,1.4c0,1-0.8,1.7-1.9,1.7C373.4,79.7,372.6,79.4,372.2,78.8z"/>
	<path class="st1" d="M378,79.6c-0.5,0-0.7-0.3-0.7-0.6c0-0.1,0-0.2,0-0.3l0.7-3.5h-0.8l0.1-0.7h0.4c0.4,0,0.4-0.1,0.5-0.5l0.2-0.9
		h0.7l-0.3,1.4h1.1l-0.1,0.7h-1.1l-0.8,3.8h1l-0.1,0.7L378,79.6L378,79.6z"/>
	<path class="st1" d="M383.6,74.4h0.8l-0.2,1.1l0,0c0.4-0.9,0.9-1.2,1.7-1.2c0.9,0,1.6,0.8,1.6,2c0,1.5-0.8,3.4-2.5,3.4
		c-0.6,0-1.2-0.3-1.3-1l0,0l-0.6,2.8h-0.8L383.6,74.4z M386.4,77.4l0.1-0.8c0-0.2,0.1-0.3,0.1-0.5c0-0.7-0.3-1.2-1-1.2
		c-0.4,0-0.8,0.2-1.1,0.5c-0.3,0.3-0.5,0.7-0.6,1.2l-0.2,1c-0.1,0.6,0.2,1.2,1.1,1.2C385.6,79,386.2,78.4,386.4,77.4z"/>
	<path class="st1" d="M388.4,77.6c0-1.7,1.1-3.3,2.7-3.3c1.1,0,1.9,0.7,1.9,2.1c0,1.7-1.1,3.3-2.7,3.3
		C389.2,79.7,388.4,79,388.4,77.6z M391.9,77.4l0.1-0.8c0-0.1,0.1-0.3,0.1-0.4c0-0.7-0.4-1.2-1.2-1.2c-0.7,0-1.4,0.6-1.6,1.6
		l-0.2,0.8c0,0.1,0,0.3,0,0.4c0,0.7,0.4,1.2,1.2,1.2S391.7,78.4,391.9,77.4z"/>
	<path class="st1" d="M394.8,74.4h0.8l-0.2,1.1l0,0c0.4-0.9,0.9-1.2,1.7-1.2c0.9,0,1.6,0.8,1.6,2c0,1.5-0.8,3.4-2.5,3.4
		c-0.6,0-1.2-0.3-1.3-1l0,0l-0.6,2.8h-0.8L394.8,74.4z M397.6,77.4l0.1-0.8c0-0.2,0.1-0.3,0.1-0.5c0-0.7-0.3-1.2-1-1.2
		c-0.4,0-0.8,0.2-1.1,0.5c-0.3,0.3-0.5,0.7-0.6,1.2l-0.2,1c-0.1,0.6,0.2,1.2,1.1,1.2C396.8,79,397.4,78.4,397.6,77.4z"/>
	<path class="st1" d="M401.2,74.4l-0.6,3.2c0,0.2,0,0.4,0,0.5c0,0.6,0.2,0.9,0.8,0.9c0.4,0,0.7-0.1,0.9-0.4c0.4-0.4,0.6-0.9,0.7-1.3
		l0.6-2.9h0.8l-0.9,4.5h0.7l-0.1,0.7h-0.7c-0.4,0-0.7-0.3-0.7-0.6c0-0.1,0-0.1,0-0.3v-0.1l0,0c-0.4,0.8-0.8,1.1-1.5,1.1
		c-0.9,0-1.3-0.5-1.3-1.4c0-0.2,0-0.4,0.1-0.7l0.6-3.2C400.6,74.3,401.2,74.3,401.2,74.4z"/>
	<path class="st1" d="M405.9,79.6c-0.5,0-0.7-0.3-0.7-0.6c0-0.1,0-0.1,0-0.2l1.3-6.5h0.8L406,79h0.8l-0.1,0.7L405.9,79.6L405.9,79.6
		z"/>
	<path class="st1" d="M411.7,79.6c-0.4,0-0.7-0.3-0.7-0.6c0-0.1,0-0.2,0-0.3l0.1-0.2l0,0c-0.4,0.9-0.9,1.2-1.7,1.2
		c-0.9,0-1.6-0.8-1.6-2c0-1.5,0.8-3.4,2.5-3.4c0.6,0,1.2,0.3,1.3,1l0,0l0.2-0.8h0.8l-0.9,4.5h0.7l-0.1,0.7L411.7,79.6L411.7,79.6z
		 M410.7,78.5c0.3-0.3,0.5-0.7,0.6-1.2l0.3-1.2c0.1-0.4-0.4-1-1.1-1c-0.9,0-1.4,0.6-1.6,1.6l-0.1,0.8c0,0.2-0.1,0.3-0.1,0.5
		c0,0.7,0.3,1.2,1,1.2C410.1,79,410.4,78.8,410.7,78.5z"/>
	<path class="st1" d="M413.6,79.6l1-5.2h0.8l-0.2,1l0,0c0.3-0.5,0.7-1,1.5-1h0.3l-0.2,0.8h-0.2c-1,0-1.5,0.6-1.6,1.3l-0.6,3.1
		C414.4,79.6,413.6,79.6,413.6,79.6z"/>
	<path class="st1" d="M416.8,80.9H416c1.3-1,2.3-2.6,2.6-3.9l0.2-0.8c0.1-0.3,0.1-0.6,0.1-0.9c0-1.2-0.4-2.4-1-3.3h0.7
		c0.6,0.7,1,1.9,1,3.3C419.6,77.8,418.3,79.8,416.8,80.9z"/>
</g>
<g>
	<path class="st0" d="M294.2,17.8h-8.9v-2.5l3.9-3.3c1.4-1.2,1.9-1.9,1.9-3V8.8c0-1-0.8-1.4-1.7-1.4c-1.2,0-1.8,0.8-2,1.8L285,8.3
		c0.6-1.7,2-3.2,4.6-3.2c2.7,0,4.3,1.6,4.3,3.8s-1.5,3.5-3.3,4.9l-2.3,1.8h5.9V17.8z"/>
	<path class="st0" d="M295.8,14.4c0-1.6,1-2.6,2.5-3v-0.1c-1.2-0.5-2.1-1.4-2.1-2.8c0-1.9,1.5-3.3,4.3-3.3s4.3,1.4,4.3,3.3
		c0,1.5-0.9,2.4-2.1,2.8v0.1c1.5,0.4,2.5,1.4,2.5,3c0,2.1-1.7,3.7-4.7,3.7S295.8,16.5,295.8,14.4z M302.3,14.4V14
		c0-1-0.7-1.6-1.9-1.6s-1.9,0.6-1.9,1.6v0.4c0,1,0.7,1.6,1.9,1.6S302.3,15.4,302.3,14.4z M302.2,8.9V8.6c0-0.9-0.6-1.5-1.8-1.5
		c-1.1,0-1.8,0.6-1.8,1.5v0.3c0,0.9,0.6,1.5,1.8,1.5C301.6,10.4,302.2,9.9,302.2,8.9z"/>
	<path class="st0" d="M306.6,14.4c0-1.6,1-2.6,2.5-3v-0.1c-1.2-0.5-2.1-1.4-2.1-2.8c0-1.9,1.5-3.3,4.3-3.3s4.3,1.4,4.3,3.3
		c0,1.5-0.9,2.4-2.1,2.8v0.1c1.5,0.4,2.5,1.4,2.5,3c0,2.1-1.7,3.7-4.7,3.7S306.6,16.5,306.6,14.4z M313.1,14.4V14
		c0-1-0.7-1.6-1.9-1.6s-1.9,0.6-1.9,1.6v0.4c0,1,0.7,1.6,1.9,1.6S313.1,15.4,313.1,14.4z M313,8.9V8.6c0-0.9-0.6-1.5-1.8-1.5
		c-1.1,0-1.8,0.6-1.8,1.5v0.3c0,0.9,0.6,1.5,1.8,1.5C312.4,10.4,313,9.9,313,8.9z"/>
	<path class="st0" d="M322.5,10.2h1.1c-1.3,1-2.4,2.5-2.7,3.9l-0.2,0.9c-0.1,0.3-0.1,0.5-0.1,0.7c0,1.3,0.4,2.5,1.2,3.4h-1
		c-0.6-0.8-1.1-2-1.1-3.5C319.7,13.3,321.1,11.3,322.5,10.2z"/>
	<path class="st0" d="M322.9,17.8l0.2-0.9h1.9l1.1-5.2H326l-1.9,1.7l-0.6-0.6l2.1-1.9h1.7l-1.2,6h1.7l-0.2,0.9H322.9z"/>
	<path class="st0" d="M331.2,15.8c0-1.8,1.1-3.3,2.7-3.3c1.2,0,2,0.8,2,2.1c0,1.8-1.1,3.3-2.7,3.3C332,18,331.2,17.2,331.2,15.8z
		 M334.6,15.7l0.2-0.8c0-0.1,0-0.3,0-0.4c0-0.6-0.3-1-1-1c-0.6,0-1.2,0.5-1.4,1.4l-0.2,0.8c0,0.1,0,0.3,0,0.4c0,0.6,0.3,1,1,1
		C333.9,17.1,334.4,16.6,334.6,15.7z"/>
	<path class="st0" d="M338.5,12.6l-0.6,3.2c0,0.2-0.1,0.4-0.1,0.5c0,0.5,0.2,0.7,0.6,0.7c0.3,0,0.6-0.2,0.9-0.4
		c0.3-0.3,0.5-0.8,0.6-1.2l0.6-2.8h1l-0.9,4.3h0.7l-0.2,0.9h-0.8c-0.5,0-0.7-0.3-0.7-0.7c0-0.1,0-0.2,0-0.3v-0.1h-0.1
		c-0.4,0.8-0.9,1.2-1.6,1.2c-0.8,0-1.3-0.5-1.3-1.4c0-0.2,0-0.5,0.1-0.7l0.6-3.2C337.3,12.6,338.5,12.6,338.5,12.6z"/>
	<path class="st0" d="M343.5,17.8c-0.6,0-0.9-0.3-0.9-0.8c0-0.1,0-0.3,0-0.4l0.6-3.2h-0.8l0.2-0.9h0.4c0.4,0,0.5-0.1,0.5-0.5
		l0.2-0.9h1l-0.3,1.4h1l-0.2,0.9h-1l-0.7,3.5h1l-0.2,0.9C344.3,17.8,343.5,17.8,343.5,17.8z"/>
	<path class="st0" d="M348,15.8c0-1.8,1.1-3.3,2.7-3.3c1.2,0,2,0.8,2,2.1c0,1.8-1.1,3.3-2.7,3.3C348.8,18,348,17.2,348,15.8z
		 M351.4,15.7l0.2-0.8c0-0.1,0-0.3,0-0.4c0-0.6-0.3-1-1-1c-0.6,0-1.2,0.5-1.4,1.4l-0.2,0.8c0,0.1,0,0.3,0,0.4c0,0.6,0.3,1,1,1
		S351.3,16.6,351.4,15.7z"/>
	<path class="st0" d="M354.5,18.5c-0.2,0.8-0.6,1.3-1.5,1.3h-0.7l0.2-0.9h0.9l1.1-5.5h-0.8l0.2-0.9h0.8l0.2-0.9
		c0.2-0.8,0.6-1.3,1.5-1.3h0.8l-0.2,0.9h-1l-0.3,1.3h1l-0.2,0.9h-1L354.5,18.5z"/>
	<path class="st0" d="M359.1,15.8c0-1.7,1.1-3.2,2.8-3.2c0.8,0,1.7,0.4,1.7,1.4c0,1.1-1.1,1.7-3.4,1.7c0,0.1,0,0.2,0,0.3
		c0,0.6,0.3,1.1,1.1,1.1c0.6,0,1-0.3,1.4-0.8l0.7,0.5c-0.6,0.8-1.4,1.1-2.2,1.1C359.8,18,359.1,17.1,359.1,15.8z M360.3,14.7
		l-0.1,0.3c1.9-0.1,2.3-0.4,2.3-1c0-0.5-0.4-0.6-0.8-0.6C361,13.4,360.5,13.9,360.3,14.7z"/>
	<path class="st0" d="M365,17.8l-0.7-5.2h1l0.3,2.3l0.2,1.9l0,0l0.9-1.9l1.2-2.3h1.1l-2.8,5.2H365z"/>
	<path class="st0" d="M369,15.8c0-1.7,1.1-3.2,2.8-3.2c0.8,0,1.7,0.4,1.7,1.4c0,1.1-1.1,1.7-3.4,1.7c0,0.1,0,0.2,0,0.3
		c0,0.6,0.3,1.1,1.1,1.1c0.6,0,1-0.3,1.4-0.8l0.7,0.5c-0.6,0.8-1.4,1.1-2.2,1.1C369.7,18,369,17.1,369,15.8z M370.3,14.7V15
		c1.9-0.1,2.3-0.4,2.3-1c0-0.5-0.4-0.6-0.8-0.6C371,13.4,370.4,13.9,370.3,14.7z"/>
	<path class="st0" d="M374,17.8l1-5.2h1l-0.2,1.1h0.1c0.3-0.5,0.7-1.1,1.5-1.1h0.3l-0.2,1h-0.3c-0.9,0-1.4,0.5-1.6,1.2l-0.6,2.9h-1
		V17.8z"/>
	<path class="st0" d="M381.9,12.6h1.1l-3.4,6.2c-0.4,0.7-0.7,1-1.4,1h-0.8l0.2-0.9h1l0.5-0.9l-0.8-5.4h1l0.3,2.3l0.2,1.9l0,0
		l0.9-1.9L381.9,12.6z"/>
	<path class="st0" d="M385.4,17.8l0.2-0.9h1.9l1.1-5.2h-0.1l-1.9,1.7l-0.6-0.6l2.1-1.9h1.7l-1.2,6h1.7l-0.2,0.9H385.4z"/>
	<path class="st0" d="M393.9,13.7c0.8,0,1.2-0.3,1.3-1c0-0.1,0-0.2,0-0.3c0-0.5-0.3-0.8-0.9-0.8s-1.1,0.2-1.5,0.8l-0.7-0.7
		c0.5-0.6,1.2-1.1,2.3-1.1c1.2,0,1.9,0.6,1.9,1.6s-0.7,1.6-1.6,1.8l0,0c0.7,0.1,1.1,0.6,1.1,1.4c0,1.3-1,2.3-2.6,2.3
		c-1.2,0-1.9-0.6-2.2-1.3l0.8-0.6c0.2,0.6,0.6,0.9,1.4,0.9s1.2-0.4,1.4-1.1c0-0.1,0-0.2,0-0.3c0-0.5-0.4-0.9-1.1-0.9h-0.7l0.2-0.9
		h0.9V13.7z"/>
	<path class="st0" d="M400.9,17.8c-0.6,0-0.9-0.3-0.9-0.8c0-0.1,0-0.3,0-0.4l0.6-3.2h-0.8l0.2-0.9h0.4c0.4,0,0.5-0.1,0.5-0.5
		l0.2-0.9h1l-0.3,1.4h1l-0.2,0.9h-1L401,17h1l-0.2,0.9h-0.9V17.8z"/>
	<path class="st0" d="M403.3,12.6h1l0.1,2.2l0.1,1.9l0,0l0.7-1.6l1.1-2.5h1l0.2,2.3l0.1,1.8l0,0l0.7-1.7l1.1-2.4h1l-2.4,5.2h-1
		l-0.2-2.3l-0.1-1.5l0,0l-0.6,1.4l-1.1,2.4h-1.2L403.3,12.6z"/>
	<path class="st0" d="M410.6,15.8c0-1.7,1.1-3.2,2.8-3.2c0.8,0,1.7,0.4,1.7,1.4c0,1.1-1.1,1.7-3.4,1.7c0,0.1,0,0.2,0,0.3
		c0,0.6,0.3,1.1,1.1,1.1c0.6,0,1-0.3,1.4-0.8l0.7,0.5c-0.6,0.8-1.4,1.1-2.2,1.1C411.3,18,410.6,17.1,410.6,15.8z M411.8,14.7
		l-0.1,0.3c1.9-0.1,2.3-0.4,2.3-1c0-0.5-0.4-0.6-0.8-0.6C412.5,13.4,412,13.9,411.8,14.7z"/>
	<path class="st0" d="M415.7,15.8c0-1.7,1.1-3.2,2.8-3.2c0.8,0,1.7,0.4,1.7,1.4c0,1.1-1.1,1.7-3.4,1.7c0,0.1,0,0.2,0,0.3
		c0,0.6,0.3,1.1,1.1,1.1c0.6,0,1-0.3,1.4-0.8l0.7,0.5c-0.6,0.8-1.4,1.1-2.2,1.1C416.4,18,415.7,17.1,415.7,15.8z M416.9,14.7V15
		c1.9-0.1,2.3-0.4,2.3-1c0-0.5-0.4-0.6-0.8-0.6C417.7,13.4,417.1,13.9,416.9,14.7z"/>
	<path class="st0" d="M422,17.8c-0.6,0-0.9-0.3-0.9-0.8c0-0.1,0-0.3,0-0.4l0.6-3.2H421l0.2-0.9h0.4c0.4,0,0.5-0.1,0.5-0.5l0.2-0.9h1
		l-0.3,1.4h1l-0.2,0.9h-1l-0.7,3.5h1l-0.2,0.9C422.9,17.8,422,17.8,422,17.8z"/>
	<path class="st0" d="M423.8,17l0.7-0.6c0.3,0.4,0.8,0.7,1.3,0.7c0.7,0,1-0.3,1-0.8c0-0.3-0.1-0.5-0.6-0.6l-0.4-0.1
		c-0.8-0.1-1.4-0.5-1.4-1.4s0.6-1.7,2-1.7c0.8,0,1.4,0.3,1.8,0.8l-0.7,0.6c-0.2-0.3-0.6-0.5-1.2-0.5s-0.9,0.3-0.9,0.8
		c0,0.3,0.1,0.5,0.6,0.6l0.4,0.1c0.9,0.1,1.4,0.5,1.4,1.4c0,1-0.8,1.8-2.1,1.8C425,18,424.2,17.6,423.8,17z"/>
	<path class="st0" d="M428.6,19.2h-1.1c1.3-1,2.4-2.5,2.7-3.9l0.2-0.9c0-0.3,0.1-0.5,0.1-0.7c0-1.3-0.5-2.5-1.2-3.4h0.9
		c0.6,0.8,1.2,2,1.2,3.4C431.5,16.1,430.1,18.1,428.6,19.2z"/>
</g>
<g>
	<path class="st0" d="M244.9,54.7H236v-2.5l3.9-3.3c1.4-1.2,1.9-1.9,1.9-3v-0.3c0-1-0.8-1.4-1.7-1.4c-1.2,0-1.8,0.8-2,1.8l-2.4-0.9
		c0.6-1.7,2-3.2,4.6-3.2c2.7,0,4.3,1.6,4.3,3.8s-1.5,3.5-3.3,4.9l-2.3,1.8h5.9V54.7z"/>
	<path class="st0" d="M250.5,47.1c1.3,0,1.9-0.6,1.9-1.3v-0.1c0-0.9-0.6-1.5-1.7-1.5c-1,0-1.9,0.5-2.6,1.5l-1.7-1.6
		c1-1.2,2.2-2.1,4.3-2.1c2.7,0,4.4,1.3,4.4,3.3c0,1.6-1.1,2.6-2.4,2.8v0.1c1.5,0.3,2.6,1.3,2.6,3c0,2.3-1.9,3.7-4.8,3.7
		c-2.6,0-3.8-1.1-4.6-2.4l2-1.5c0.5,1,1.3,1.8,2.6,1.8c1.2,0,1.9-0.7,1.9-1.7V51c0-1-0.8-1.5-2.2-1.5h-1.1v-2.3h1.4V47.1z"/>
	<path class="st0" d="M271.2,47.1h1.1c-1.3,1-2.4,2.5-2.7,3.9l-0.2,0.9c-0.1,0.3-0.1,0.5-0.1,0.7c0,1.3,0.4,2.5,1.2,3.4h-1
		c-0.6-0.8-1.1-2-1.1-3.5C268.4,50.2,269.7,48.1,271.2,47.1z"/>
	<path class="st0" d="M271.6,54.7l0.2-0.9h1.9l1.1-5.2h-0.1l-1.9,1.7l-0.6-0.6l2.1-1.9h1.7l-1.2,6h1.7l-0.2,0.9H271.6z"/>
	<path class="st0" d="M279.9,52.6c0-1.8,1.1-3.3,2.7-3.3c1.2,0,2,0.8,2,2.1c0,1.8-1.1,3.3-2.7,3.3C280.7,54.8,279.9,54,279.9,52.6z
		 M283.3,52.5l0.2-0.8c0-0.1,0-0.3,0-0.4c0-0.6-0.3-1-1-1c-0.6,0-1.2,0.5-1.4,1.4l-0.2,0.8c0,0.1,0,0.3,0,0.4c0,0.6,0.3,1,1,1
		S283.1,53.4,283.3,52.5z"/>
	<path class="st0" d="M287.2,49.5l-0.6,3.2c0,0.2-0.1,0.4-0.1,0.5c0,0.5,0.2,0.7,0.6,0.7c0.3,0,0.6-0.2,0.9-0.4
		c0.3-0.3,0.5-0.8,0.6-1.2l0.6-2.8h1l-0.9,4.3h0.7l-0.2,0.9H289c-0.5,0-0.7-0.3-0.7-0.7c0-0.1,0-0.2,0-0.3v-0.1h-0.1
		c-0.4,0.8-0.9,1.2-1.6,1.2c-0.8,0-1.3-0.5-1.3-1.4c0-0.2,0-0.5,0.1-0.7l0.6-3.2H287.2z"/>
	<path class="st0" d="M292.2,54.7c-0.6,0-0.9-0.3-0.9-0.8c0-0.1,0-0.3,0-0.4l0.6-3.2h-0.8l0.2-0.9h0.4c0.4,0,0.5-0.1,0.5-0.5
		l0.2-0.9h1l-0.3,1.4h1l-0.2,0.9h-1l-0.7,3.5h1l-0.2,0.9H292.2z"/>
	<path class="st0" d="M296.7,52.6c0-1.8,1.1-3.3,2.7-3.3c1.2,0,2,0.8,2,2.1c0,1.8-1.1,3.3-2.7,3.3C297.5,54.8,296.7,54,296.7,52.6z
		 M300.1,52.5l0.2-0.8c0-0.1,0-0.3,0-0.4c0-0.6-0.3-1-1-1c-0.6,0-1.2,0.5-1.4,1.4l-0.2,0.8c0,0.1,0,0.3,0,0.4c0,0.6,0.3,1,1,1
		C299.4,53.9,300,53.4,300.1,52.5z"/>
	<path class="st0" d="M303.2,55.4c-0.2,0.8-0.6,1.3-1.5,1.3H301l0.2-0.9h0.9l1.1-5.5h-0.8l0.2-0.9h0.8l0.2-0.9
		c0.2-0.8,0.6-1.3,1.5-1.3h0.8l-0.2,0.9h-1l-0.3,1.3h1l-0.2,0.9h-1L303.2,55.4z"/>
	<path class="st0" d="M307.8,52.6c0-1.7,1.1-3.2,2.8-3.2c0.8,0,1.7,0.4,1.7,1.4c0,1.1-1.1,1.7-3.4,1.7c0,0.1,0,0.2,0,0.3
		c0,0.6,0.3,1.1,1.1,1.1c0.6,0,1-0.3,1.4-0.8l0.7,0.5c-0.6,0.8-1.4,1.1-2.2,1.1C308.5,54.8,307.8,54,307.8,52.6z M309,51.5l-0.1,0.3
		c1.9-0.1,2.3-0.4,2.3-1c0-0.5-0.4-0.6-0.8-0.6C309.7,50.2,309.2,50.7,309,51.5z"/>
	<path class="st0" d="M313.7,54.7l-0.7-5.2h1l0.3,2.3l0.2,1.9l0,0l0.9-1.9l1.2-2.3h1.1l-2.8,5.2H313.7z"/>
	<path class="st0" d="M317.7,52.6c0-1.7,1.1-3.2,2.8-3.2c0.8,0,1.7,0.4,1.7,1.4c0,1.1-1.1,1.7-3.4,1.7c0,0.1,0,0.2,0,0.3
		c0,0.6,0.3,1.1,1.1,1.1c0.6,0,1-0.3,1.4-0.8l0.7,0.5c-0.6,0.8-1.4,1.1-2.2,1.1C318.4,54.8,317.7,54,317.7,52.6z M318.9,51.5v0.3
		c1.9-0.1,2.3-0.4,2.3-1c0-0.5-0.4-0.6-0.8-0.6C319.7,50.2,319.1,50.7,318.9,51.5z"/>
	<path class="st0" d="M322.7,54.7l1-5.2h1l-0.2,1.1h0.1c0.3-0.5,0.7-1.1,1.5-1.1h0.3l-0.2,1h-0.3c-0.9,0-1.4,0.5-1.6,1.2l-0.6,2.9
		L322.7,54.7L322.7,54.7z"/>
	<path class="st0" d="M330.6,49.5h1.1l-3.4,6.2c-0.4,0.7-0.7,1-1.4,1h-0.8l0.2-0.9h1l0.5-0.9l-0.8-5.4h1l0.3,2.3l0.2,1.9l0,0
		l0.9-1.9L330.6,49.5z"/>
	<path class="st0" d="M334.1,54.7l0.2-0.9h1.9l1.1-5.2h-0.1l-1.9,1.7l-0.6-0.6l2.1-1.9h1.7l-1.2,6h1.7l-0.2,0.9H334.1z"/>
	<path class="st0" d="M345.2,48.6h-3l-0.6,2.5h0.1c0.4-0.6,0.8-0.9,1.5-0.9c1,0,1.7,0.7,1.7,1.8c0,1.4-1,2.7-2.7,2.7
		c-1.3,0-1.9-0.6-2.2-1.3l0.9-0.6c0.2,0.5,0.6,0.9,1.4,0.9s1.3-0.5,1.4-1.3c0-0.2,0.1-0.3,0.1-0.5c0-0.6-0.3-1-1-1
		c-0.5,0-0.9,0.3-1.3,0.6l-0.9-0.1l1-3.9h3.8L345.2,48.6z"/>
	<path class="st0" d="M349.6,54.7c-0.6,0-0.9-0.3-0.9-0.8c0-0.1,0-0.3,0-0.4l0.6-3.2h-0.8l0.2-0.9h0.4c0.4,0,0.5-0.1,0.5-0.5
		l0.2-0.9h1l-0.3,1.4h1l-0.2,0.9h-1l-0.7,3.5h1l-0.2,0.9H349.6z"/>
	<path class="st0" d="M352,49.5h1l0.1,2.2l0.1,1.9l0,0l0.7-1.6l1.1-2.5h1l0.2,2.3l0.1,1.8l0,0l0.7-1.7l1.1-2.4h1l-2.4,5.2h-1.2
		l-0.2-2.3l-0.1-1.5l0,0l-0.6,1.4l-1.1,2.4h-1.2L352,49.5z"/>
	<path class="st0" d="M359.3,52.6c0-1.7,1.1-3.2,2.8-3.2c0.8,0,1.7,0.4,1.7,1.4c0,1.1-1.1,1.7-3.4,1.7c0,0.1,0,0.2,0,0.3
		c0,0.6,0.3,1.1,1.1,1.1c0.6,0,1-0.3,1.4-0.8l0.7,0.5c-0.6,0.8-1.4,1.1-2.2,1.1C360,54.8,359.3,54,359.3,52.6z M360.5,51.5l-0.1,0.3
		c1.9-0.1,2.3-0.4,2.3-1c0-0.5-0.4-0.6-0.8-0.6C361.2,50.2,360.7,50.7,360.5,51.5z"/>
	<path class="st0" d="M364.4,52.6c0-1.7,1.1-3.2,2.8-3.2c0.8,0,1.7,0.4,1.7,1.4c0,1.1-1.1,1.7-3.4,1.7c0,0.1,0,0.2,0,0.3
		c0,0.6,0.3,1.1,1.1,1.1c0.6,0,1-0.3,1.4-0.8l0.7,0.5c-0.6,0.8-1.4,1.1-2.2,1.1C365.1,54.8,364.4,54,364.4,52.6z M365.6,51.5v0.3
		c1.9-0.1,2.3-0.4,2.3-1c0-0.5-0.4-0.6-0.8-0.6C366.3,50.2,365.8,50.7,365.6,51.5z"/>
	<path class="st0" d="M370.7,54.7c-0.6,0-0.9-0.3-0.9-0.8c0-0.1,0-0.3,0-0.4l0.6-3.2h-0.8l0.2-0.9h0.4c0.4,0,0.5-0.1,0.5-0.5
		l0.2-0.9h1l-0.3,1.4h1l-0.2,0.9h-1l-0.7,3.5h1l-0.2,0.9H370.7z"/>
	<path class="st0" d="M372.5,53.8l0.7-0.6c0.3,0.4,0.8,0.7,1.3,0.7c0.7,0,1-0.3,1-0.8c0-0.3-0.1-0.5-0.6-0.6l-0.4-0.1
		c-0.8-0.1-1.4-0.5-1.4-1.4s0.6-1.7,2-1.7c0.8,0,1.4,0.3,1.8,0.8l-0.7,0.6c-0.2-0.3-0.6-0.5-1.2-0.5s-0.9,0.3-0.9,0.8
		c0,0.3,0.1,0.5,0.6,0.6l0.4,0.1c0.9,0.1,1.4,0.5,1.4,1.4c0,1-0.8,1.8-2.1,1.8C373.7,54.8,372.9,54.4,372.5,53.8z"/>
	<path class="st0" d="M377.3,56h-1.1c1.3-1,2.4-2.5,2.7-3.9l0.2-0.9c0-0.3,0.1-0.5,0.1-0.7c0-1.3-0.5-2.5-1.2-3.4h0.9
		c0.6,0.8,1.2,2,1.2,3.4C380.2,52.9,378.8,54.9,377.3,56z"/>
</g>
<g>
	<path class="st1" d="M26.3,156.9l-1.2,6.3h-0.8l1.2-6.3h-2.1l0.1-0.7h5.1l-0.1,0.7H26.3z"/>
	<path class="st1" d="M28.3,158H29l0.1,2.5l0.1,1.9l0,0l0.8-1.7l1.3-2.7H32l0.2,2.6l0.1,1.8l0,0l0.8-1.7l1.2-2.6H35l-2.3,5.2h-0.9
		l-0.3-2.8l-0.1-1.3l0,0l-0.6,1.3l-1.3,2.8h-1L28.3,158z"/>
	<path class="st1" d="M35.3,161.1c0-1.7,1.1-3.2,2.7-3.2c0.9,0,1.7,0.5,1.7,1.4c0,1.1-1.2,1.7-3.6,1.7c0,0.1,0,0.3,0,0.4
		c0,0.7,0.4,1.2,1.2,1.2c0.7,0,1.2-0.3,1.6-0.8l0.5,0.5c-0.6,0.8-1.4,1.1-2.1,1.1C36,163.2,35.3,162.5,35.3,161.1z M36.2,160
		l-0.1,0.3c2.2-0.1,2.7-0.4,2.7-1.1c0-0.5-0.5-0.7-0.9-0.7C37.1,158.5,36.4,159.1,36.2,160z"/>
	<path class="st1" d="M40.4,161.1c0-1.7,1.1-3.2,2.7-3.2c0.9,0,1.7,0.5,1.7,1.4c0,1.1-1.2,1.7-3.6,1.7c0,0.1,0,0.3,0,0.4
		c0,0.7,0.4,1.2,1.2,1.2c0.7,0,1.2-0.3,1.6-0.8l0.5,0.5c-0.6,0.8-1.4,1.1-2.1,1.1C41.1,163.2,40.4,162.5,40.4,161.1z M41.3,160
		l-0.1,0.3c2.2-0.1,2.7-0.4,2.7-1.1c0-0.5-0.5-0.7-0.9-0.7C42.2,158.5,41.5,159.1,41.3,160z"/>
	<path class="st1" d="M46.4,163.1c-0.5,0-0.7-0.3-0.7-0.6c0-0.1,0-0.2,0-0.3l0.7-3.5h-0.8l0.1-0.7h0.4c0.4,0,0.4-0.1,0.5-0.5
		l0.2-0.9h0.7l-0.3,1.4h1.1l-0.1,0.7h-1.1l-0.8,3.8h1l-0.1,0.7L46.4,163.1L46.4,163.1z"/>
	<path class="st1" d="M48.3,162.3l0.5-0.5c0.4,0.5,0.8,0.7,1.4,0.7c0.7,0,1.2-0.3,1.2-1c0-0.3-0.2-0.6-0.8-0.7l-0.4-0.1
		c-0.8-0.2-1.4-0.5-1.4-1.3c0-0.9,0.6-1.6,1.9-1.6c0.8,0,1.3,0.3,1.7,0.8l-0.5,0.5c-0.2-0.3-0.6-0.6-1.2-0.6c-0.7,0-1.1,0.4-1.1,0.9
		c0,0.4,0.2,0.6,0.7,0.7l0.4,0.1c0.8,0.2,1.4,0.5,1.4,1.4c0,1-0.8,1.7-1.9,1.7C49.5,163.2,48.8,162.9,48.3,162.3z"/>
	<path class="st1" d="M55.6,163.1l1-5.2h0.8l-0.2,1l0,0c0.3-0.5,0.7-1,1.5-1H59l-0.2,0.8h-0.4c-1,0-1.5,0.6-1.6,1.3l-0.6,3.1
		L55.6,163.1L55.6,163.1z"/>
	<path class="st1" d="M59.4,161.1c0-1.7,1.1-3.2,2.7-3.2c0.9,0,1.7,0.5,1.7,1.4c0,1.1-1.2,1.7-3.6,1.7c0,0.1,0,0.3,0,0.4
		c0,0.7,0.4,1.2,1.2,1.2c0.7,0,1.2-0.3,1.6-0.8l0.5,0.5c-0.6,0.8-1.4,1.1-2.1,1.1C60.1,163.2,59.4,162.5,59.4,161.1z M60.3,160
		l-0.1,0.3c2.2-0.1,2.7-0.4,2.7-1.1c0-0.5-0.5-0.7-0.9-0.7C61.2,158.5,60.5,159.1,60.3,160z"/>
	<path class="st1" d="M65.2,163.1c-0.5,0-0.7-0.3-0.7-0.6c0-0.1,0-0.1,0-0.2l1.3-6.5h0.8l-1.3,6.7H66l-0.1,0.7L65.2,163.1
		L65.2,163.1z"/>
	<path class="st1" d="M71,163.1c-0.4,0-0.7-0.3-0.7-0.6c0-0.1,0-0.2,0-0.3l0.1-0.2l0,0c-0.4,0.9-0.9,1.2-1.7,1.2
		c-0.9,0-1.6-0.8-1.6-2c0-1.5,0.8-3.4,2.5-3.4c0.6,0,1.2,0.3,1.3,1l0,0l0.2-0.8H72l-0.9,4.5h0.7l-0.1,0.7L71,163.1L71,163.1z
		 M70,162c0.3-0.3,0.5-0.7,0.6-1.2l0.3-1.2c0.1-0.4-0.4-1-1.1-1c-0.9,0-1.4,0.6-1.6,1.6l-0.1,0.8c0,0.2-0.1,0.3-0.1,0.5
		c0,0.7,0.3,1.2,1,1.2C69.4,162.5,69.7,162.3,70,162z"/>
	<path class="st1" d="M73.8,163.1c-0.5,0-0.7-0.3-0.7-0.6c0-0.1,0-0.2,0-0.3l0.7-3.5H73l0.1-0.7h0.4c0.4,0,0.4-0.1,0.5-0.5l0.2-0.9
		H75l-0.3,1.4h1.1l-0.1,0.7h-1.1l-0.8,3.8h1l-0.1,0.7L73.8,163.1L73.8,163.1z"/>
	<path class="st1" d="M76.1,161.1c0-1.7,1.1-3.2,2.7-3.2c0.9,0,1.7,0.5,1.7,1.4c0,1.1-1.2,1.7-3.6,1.7c0,0.1,0,0.3,0,0.4
		c0,0.7,0.4,1.2,1.2,1.2c0.7,0,1.2-0.3,1.6-0.8l0.5,0.5c-0.6,0.8-1.4,1.1-2.1,1.1C76.8,163.2,76.1,162.5,76.1,161.1z M77,160
		l-0.1,0.3c2.2-0.1,2.7-0.4,2.7-1.1c0-0.5-0.5-0.7-0.9-0.7C77.9,158.5,77.2,159.1,77,160z"/>
	<path class="st1" d="M85.1,163.1c-0.4,0-0.7-0.3-0.7-0.6c0-0.1,0-0.2,0-0.3l0.1-0.2l0,0c-0.4,0.9-0.9,1.2-1.7,1.2
		c-0.9,0-1.6-0.8-1.6-2c0-1.5,0.8-3.4,2.5-3.4c0.6,0,1.2,0.3,1.3,1l0,0l0.6-3.1h0.8l-1.3,6.7h0.7l-0.1,0.7L85.1,163.1L85.1,163.1z
		 M84.1,162c0.3-0.3,0.5-0.7,0.6-1.2l0.2-1c0.1-0.6-0.2-1.2-1.1-1.2c-0.8,0-1.4,0.6-1.6,1.6l-0.1,0.8c0,0.2-0.1,0.3-0.1,0.5
		c0,0.7,0.3,1.2,1,1.2C83.4,162.5,83.8,162.3,84.1,162z"/>
	<path class="st1" d="M90.3,163.1c-0.5,0-0.7-0.3-0.7-0.6c0-0.1,0-0.2,0-0.3l0.7-3.5h-0.8l0.1-0.7H90c0.4,0,0.4-0.1,0.5-0.5l0.2-0.9
		h0.7l-0.3,1.4h1.1l-0.1,0.7H91l-0.8,3.8h1l-0.1,0.7L90.3,163.1L90.3,163.1z"/>
	<path class="st1" d="M92.5,161.1c0-1.7,1.1-3.3,2.7-3.3c1.1,0,1.9,0.7,1.9,2.1c0,1.7-1.1,3.3-2.7,3.3
		C93.3,163.2,92.5,162.5,92.5,161.1z M96.1,160.9l0.1-0.8c0-0.1,0.1-0.3,0.1-0.4c0-0.7-0.4-1.2-1.2-1.2c-0.7,0-1.4,0.6-1.6,1.6
		l-0.2,0.8c0,0.1,0,0.3,0,0.4c0,0.7,0.4,1.2,1.2,1.2C95.2,162.6,95.9,162,96.1,160.9z"/>
	<path class="st1" d="M101.7,156.2h2.6c1.1,0,1.7,0.6,1.7,1.5c0,0.8-0.5,1.6-1.4,1.8l0,0c0.6,0.2,1,0.5,1,1.2c0,1.3-1,2.4-2.3,2.4
		h-2.9L101.7,156.2z M103.2,162.4c0.7,0,1.2-0.4,1.3-1.1c0.1-0.3,0.1-0.5,0.1-0.6c0-0.5-0.4-0.8-1-0.8h-1.9l-0.5,2.5L103.2,162.4
		L103.2,162.4z M103.6,159.2c0.7,0,1.3-0.3,1.4-1c0.1-0.3,0.1-0.5,0.1-0.5c0-0.5-0.3-0.8-0.9-0.8h-1.8l-0.5,2.3H103.6z"/>
	<path class="st1" d="M107.4,163.1c-0.5,0-0.7-0.3-0.7-0.6c0-0.1,0-0.1,0-0.2l0.9-4.3h0.8l-0.9,4.5h0.7l-0.1,0.7L107.4,163.1
		L107.4,163.1z M107.8,156.4c0,0,0-0.1,0-0.3c0.1-0.3,0.2-0.4,0.5-0.4s0.4,0.2,0.4,0.3c0,0,0,0.1,0,0.3c0,0.3-0.2,0.4-0.5,0.4
		C107.9,156.8,107.8,156.6,107.8,156.4z"/>
	<path class="st1" d="M110.7,165.2c-1.4,0-2.1-0.4-2.1-1.1c0-0.5,0.3-0.9,1-1.1v-0.1c-0.3-0.1-0.4-0.3-0.4-0.6c0-0.5,0.3-0.8,1-1
		v-0.1c-0.5-0.2-0.7-0.7-0.7-1.3c0-1.2,0.9-2.1,2.2-2.1c0.4,0,0.7,0.1,1,0.2v-0.1c0.1-0.4,0.3-0.7,0.7-0.7h0.7l-0.1,0.7h-0.9
		l-0.1,0.4c0.2,0.3,0.3,0.6,0.3,1c0,1.2-0.9,2-2.2,2c-0.1,0-0.2,0-0.4,0c-0.5,0.1-0.8,0.3-0.8,0.6s0.2,0.4,0.7,0.4h1.1
		c1.1,0,1.6,0.4,1.6,1.2C113.4,164.4,112.8,165.2,110.7,165.2z M111.8,163.1H110c-0.4,0.2-0.6,0.4-0.6,0.8c0,0.4,0.3,0.7,1.1,0.7
		h0.5c1.1,0,1.6-0.4,1.6-1C112.6,163.3,112.4,163.1,111.8,163.1z M112.6,159.8c0.1-0.4,0.1-0.4,0.1-0.6c0-0.5-0.3-0.8-0.9-0.8
		c-0.7,0-1.1,0.4-1.2,1c-0.1,0.4-0.1,0.4-0.1,0.6c0,0.5,0.3,0.8,0.9,0.8C112.1,160.8,112.5,160.4,112.6,159.8z"/>
	<path class="st1" d="M115.8,165.2c-1.4,0-2.1-0.4-2.1-1.1c0-0.5,0.3-0.9,1-1.1v-0.1c-0.3-0.1-0.4-0.3-0.4-0.6c0-0.5,0.3-0.8,1-1
		v-0.1c-0.5-0.2-0.7-0.7-0.7-1.3c0-1.2,0.9-2.1,2.2-2.1c0.4,0,0.7,0.1,1,0.2v-0.1c0.1-0.4,0.3-0.7,0.7-0.7h0.7l-0.1,0.7h-0.9
		l-0.1,0.4c0.2,0.3,0.3,0.6,0.3,1c0,1.2-0.9,2-2.2,2c-0.1,0-0.2,0-0.4,0c-0.5,0.1-0.8,0.3-0.8,0.6s0.2,0.4,0.7,0.4h1.1
		c1.1,0,1.6,0.4,1.6,1.2C118.5,164.4,117.9,165.2,115.8,165.2z M116.9,163.1h-1.8c-0.4,0.2-0.6,0.4-0.6,0.8c0,0.4,0.3,0.7,1.1,0.7
		h0.5c1.1,0,1.6-0.4,1.6-1C117.7,163.3,117.5,163.1,116.9,163.1z M117.7,159.8c0.1-0.4,0.1-0.4,0.1-0.6c0-0.5-0.3-0.8-0.9-0.8
		c-0.7,0-1.1,0.4-1.2,1c-0.1,0.4-0.1,0.4-0.1,0.6c0,0.5,0.3,0.8,0.9,0.8C117.2,160.8,117.6,160.4,117.7,159.8z"/>
	<path class="st1" d="M123.1,156.2h2.6c1.1,0,1.7,0.6,1.7,1.5c0,0.8-0.5,1.6-1.4,1.8l0,0c0.6,0.2,1,0.5,1,1.2c0,1.3-1,2.4-2.3,2.4
		h-2.9L123.1,156.2z M124.7,162.4c0.7,0,1.2-0.4,1.3-1.1c0.1-0.3,0.1-0.5,0.1-0.6c0-0.5-0.4-0.8-1-0.8h-1.9l-0.5,2.5L124.7,162.4
		L124.7,162.4z M125,159.2c0.7,0,1.3-0.3,1.4-1c0.1-0.3,0.1-0.5,0.1-0.5c0-0.5-0.3-0.8-0.9-0.8h-1.8l-0.5,2.3H125z"/>
	<path class="st1" d="M128.1,161.1c0-1.7,1.1-3.3,2.7-3.3c1.1,0,1.9,0.7,1.9,2.1c0,1.7-1.1,3.3-2.7,3.3
		C128.8,163.2,128.1,162.5,128.1,161.1z M131.6,160.9l0.1-0.8c0-0.1,0.1-0.3,0.1-0.4c0-0.7-0.4-1.2-1.2-1.2c-0.7,0-1.4,0.6-1.6,1.6
		l-0.2,0.8c0,0.1,0,0.3,0,0.4c0,0.7,0.4,1.2,1.2,1.2C130.8,162.6,131.4,162,131.6,160.9z"/>
	<path class="st1" d="M133.2,162.3l0.5-0.5c0.4,0.5,0.8,0.7,1.4,0.7c0.7,0,1.2-0.3,1.2-1c0-0.3-0.2-0.6-0.8-0.7l-0.4-0.1
		c-0.8-0.2-1.4-0.5-1.4-1.3c0-0.9,0.6-1.6,1.9-1.6c0.8,0,1.3,0.3,1.7,0.8l-0.5,0.5c-0.2-0.3-0.6-0.6-1.2-0.6c-0.7,0-1.1,0.4-1.1,0.9
		c0,0.4,0.2,0.6,0.7,0.7l0.4,0.1c0.8,0.2,1.4,0.5,1.4,1.4c0,1-0.8,1.7-1.9,1.7C134.4,163.2,133.6,162.9,133.2,162.3z"/>
	<path class="st1" d="M137.9,162.3l0.5-0.5c0.4,0.5,0.8,0.7,1.4,0.7c0.7,0,1.2-0.3,1.2-1c0-0.3-0.2-0.6-0.8-0.7l-0.4-0.1
		c-0.8-0.2-1.4-0.5-1.4-1.3c0-0.9,0.6-1.6,1.9-1.6c0.8,0,1.3,0.3,1.7,0.8l-0.5,0.5c-0.2-0.3-0.6-0.6-1.2-0.6c-0.7,0-1.1,0.4-1.1,0.9
		c0,0.4,0.2,0.6,0.7,0.7l0.4,0.1c0.8,0.2,1.4,0.5,1.4,1.4c0,1-0.8,1.7-1.9,1.7C139,163.2,138.3,162.9,137.9,162.3z"/>
</g>
<g>
	<path class="st0" d="M24.1,149.3v-2.2h3.4v-8.4h-0.2l-2.6,3.3l-1.7-1.4l3-4h4.1V147h2.7v2.2L24.1,149.3L24.1,149.3z"/>
	<path class="st0" d="M33.9,145.9c0-1.6,1-2.6,2.5-3v-0.1c-1.2-0.5-2.1-1.4-2.1-2.8c0-1.9,1.5-3.3,4.3-3.3s4.3,1.4,4.3,3.3
		c0,1.5-0.9,2.4-2.1,2.8v0.1c1.5,0.4,2.5,1.4,2.5,3c0,2.1-1.7,3.7-4.7,3.7S33.9,148,33.9,145.9z M40.4,145.8v-0.4
		c0-1-0.7-1.6-1.9-1.6s-1.9,0.6-1.9,1.6v0.4c0,1,0.7,1.6,1.9,1.6S40.4,146.8,40.4,145.8z M40.4,140.4v-0.3c0-0.9-0.6-1.5-1.8-1.5
		c-1.1,0-1.8,0.6-1.8,1.5v0.3c0,0.9,0.6,1.5,1.8,1.5C39.7,141.9,40.4,141.3,40.4,140.4z"/>
</g>
<g>
	<path class="st1" d="M16.6,200.6l-1.2,6.3h-0.8l1.2-6.3h-2.1l0.1-0.7h5.1l-0.1,0.7H16.6z"/>
	<path class="st1" d="M18.6,201.7h0.7l0.1,2.5l0.1,1.9l0,0l0.8-1.7l1.3-2.7h0.7l0.2,2.6l0.1,1.8l0,0l0.8-1.7l1.2-2.6h0.7L23,207
		h-0.9l-0.3-2.8l-0.1-1.3l0,0l-0.6,1.3l-1.3,2.8h-1L18.6,201.7z"/>
	<path class="st1" d="M25.6,204.8c0-1.7,1.1-3.2,2.7-3.2c0.9,0,1.7,0.5,1.7,1.4c0,1.1-1.2,1.7-3.6,1.7c0,0.1,0,0.3,0,0.4
		c0,0.7,0.4,1.2,1.2,1.2c0.7,0,1.2-0.3,1.6-0.8l0.5,0.5c-0.6,0.8-1.4,1.1-2.1,1.1C26.3,207,25.6,206.2,25.6,204.8z M26.5,203.8
		l-0.1,0.3c2.2-0.1,2.7-0.4,2.7-1.1c0-0.5-0.5-0.7-0.9-0.7C27.4,202.3,26.7,202.9,26.5,203.8z"/>
	<path class="st1" d="M30.7,204.8c0-1.7,1.1-3.2,2.7-3.2c0.9,0,1.7,0.5,1.7,1.4c0,1.1-1.2,1.7-3.6,1.7c0,0.1,0,0.3,0,0.4
		c0,0.7,0.4,1.2,1.2,1.2c0.7,0,1.2-0.3,1.6-0.8l0.5,0.5c-0.6,0.8-1.4,1.1-2.1,1.1C31.4,207,30.7,206.2,30.7,204.8z M31.7,203.8
		l-0.1,0.3c2.2-0.1,2.7-0.4,2.7-1.1c0-0.5-0.5-0.7-0.9-0.7C32.5,202.3,31.8,202.9,31.7,203.8z"/>
	<path class="st1" d="M36.7,206.9c-0.5,0-0.7-0.3-0.7-0.6c0-0.1,0-0.2,0-0.3l0.7-3.5H36l0.1-0.7h0.4c0.4,0,0.4-0.1,0.5-0.5l0.2-0.9
		h0.7l-0.3,1.4h1.1l-0.1,0.7h-1.1l-0.8,3.8h1l-0.1,0.7L36.7,206.9L36.7,206.9z"/>
	<path class="st1" d="M38.7,206.1l0.5-0.5c0.4,0.5,0.8,0.7,1.4,0.7c0.7,0,1.2-0.3,1.2-1c0-0.3-0.2-0.6-0.8-0.7l-0.4-0.1
		c-0.8-0.2-1.4-0.5-1.4-1.3c0-0.9,0.6-1.6,1.9-1.6c0.8,0,1.3,0.3,1.7,0.8l-0.5,0.5c-0.2-0.3-0.6-0.6-1.2-0.6c-0.7,0-1.1,0.4-1.1,0.9
		c0,0.4,0.2,0.6,0.7,0.7l0.4,0.1c0.8,0.2,1.4,0.5,1.4,1.4c0,1-0.8,1.7-1.9,1.7C39.8,207,39.1,206.7,38.7,206.1z"/>
	<path class="st1" d="M45.9,206.9l1-5.2h0.8l-0.2,1l0,0c0.3-0.5,0.7-1,1.5-1h0.3l-0.2,0.8h-0.4c-1,0-1.5,0.6-1.6,1.3l-0.6,3.1
		L45.9,206.9L45.9,206.9z"/>
	<path class="st1" d="M49.7,204.8c0-1.7,1.1-3.2,2.7-3.2c0.9,0,1.7,0.5,1.7,1.4c0,1.1-1.2,1.7-3.6,1.7c0,0.1,0,0.3,0,0.4
		c0,0.7,0.4,1.2,1.2,1.2c0.7,0,1.2-0.3,1.6-0.8l0.5,0.5c-0.6,0.8-1.4,1.1-2.1,1.1C50.4,207,49.7,206.2,49.7,204.8z M50.6,203.8
		l-0.1,0.3c2.2-0.1,2.7-0.4,2.7-1.1c0-0.5-0.5-0.7-0.9-0.7C51.5,202.3,50.8,202.9,50.6,203.8z"/>
	<path class="st1" d="M55.5,206.9c-0.5,0-0.7-0.3-0.7-0.6c0-0.1,0-0.1,0-0.2l1.3-6.5h0.8l-1.3,6.7h0.8l-0.1,0.7L55.5,206.9
		L55.5,206.9z"/>
	<path class="st1" d="M61.3,206.9c-0.4,0-0.7-0.3-0.7-0.6c0-0.1,0-0.2,0-0.3l0.1-0.2l0,0c-0.4,0.9-0.9,1.2-1.7,1.2
		c-0.9,0-1.6-0.8-1.6-2c0-1.5,0.8-3.4,2.5-3.4c0.6,0,1.2,0.3,1.3,1l0,0l0.2-0.8h0.8l-0.9,4.5H62l-0.1,0.7L61.3,206.9L61.3,206.9z
		 M60.3,205.8c0.3-0.3,0.5-0.7,0.6-1.2l0.3-1.2c0.1-0.4-0.4-1-1.1-1c-0.9,0-1.4,0.6-1.6,1.6l-0.1,0.8c0,0.2-0.1,0.3-0.1,0.5
		c0,0.7,0.3,1.2,1,1.2C59.7,206.3,60,206.1,60.3,205.8z"/>
	<path class="st1" d="M64.1,206.9c-0.5,0-0.7-0.3-0.7-0.6c0-0.1,0-0.2,0-0.3l0.7-3.5h-0.8l0.1-0.7h0.4c0.4,0,0.4-0.1,0.5-0.5
		l0.2-0.9h0.7l-0.3,1.4H66l-0.1,0.7h-1.1l-0.8,3.8h1l-0.1,0.7L64.1,206.9L64.1,206.9z"/>
	<path class="st1" d="M66.4,204.8c0-1.7,1.1-3.2,2.7-3.2c0.9,0,1.7,0.5,1.7,1.4c0,1.1-1.2,1.7-3.6,1.7c0,0.1,0,0.3,0,0.4
		c0,0.7,0.4,1.2,1.2,1.2c0.7,0,1.2-0.3,1.6-0.8l0.5,0.5c-0.6,0.8-1.4,1.1-2.1,1.1C67.1,207,66.4,206.2,66.4,204.8z M67.4,203.8
		l-0.1,0.3c2.2-0.1,2.7-0.4,2.7-1.1c0-0.5-0.5-0.7-0.9-0.7C68.2,202.3,67.5,202.9,67.4,203.8z"/>
	<path class="st1" d="M75.4,206.9c-0.4,0-0.7-0.3-0.7-0.6c0-0.1,0-0.2,0-0.3l0.1-0.2l0,0c-0.4,0.9-0.9,1.2-1.7,1.2
		c-0.9,0-1.6-0.8-1.6-2c0-1.5,0.8-3.4,2.5-3.4c0.6,0,1.2,0.3,1.3,1l0,0l0.6-3.1h0.8l-1.3,6.7h0.7l-0.1,0.7L75.4,206.9L75.4,206.9z
		 M74.4,205.8c0.3-0.3,0.5-0.7,0.6-1.2l0.2-1c0.1-0.6-0.2-1.2-1.1-1.2c-0.8,0-1.4,0.6-1.6,1.6l-0.1,0.8c0,0.2-0.1,0.3-0.1,0.5
		c0,0.7,0.3,1.2,1,1.2C73.8,206.3,74.1,206.1,74.4,205.8z"/>
	<path class="st1" d="M80.6,206.9c-0.5,0-0.7-0.3-0.7-0.6c0-0.1,0-0.2,0-0.3l0.7-3.5h-0.8l0.1-0.7h0.4c0.4,0,0.4-0.1,0.5-0.5
		l0.2-0.9h0.7l-0.3,1.4h1.1l-0.1,0.7h-1.1l-0.8,3.8h1l-0.1,0.7L80.6,206.9L80.6,206.9z"/>
	<path class="st1" d="M82.8,204.9c0-1.7,1.1-3.3,2.7-3.3c1.1,0,1.9,0.7,1.9,2.1c0,1.7-1.1,3.3-2.7,3.3
		C83.6,207,82.8,206.3,82.8,204.9z M86.4,204.7l0.1-0.8c0-0.1,0.1-0.3,0.1-0.4c0-0.7-0.4-1.2-1.2-1.2c-0.7,0-1.4,0.6-1.6,1.6
		l-0.2,0.8c0,0.1,0,0.3,0,0.4c0,0.7,0.4,1.2,1.2,1.2C85.5,206.3,86.2,205.8,86.4,204.7z"/>
	<path class="st1" d="M92,199.9h2.6c1.1,0,1.7,0.6,1.7,1.5c0,0.8-0.5,1.6-1.4,1.8l0,0c0.6,0.2,1,0.5,1,1.2c0,1.3-1,2.4-2.3,2.4h-2.9
		L92,199.9z M93.5,206.2c0.7,0,1.2-0.4,1.3-1.1c0.1-0.3,0.1-0.5,0.1-0.6c0-0.5-0.4-0.8-1-0.8H92l-0.5,2.5L93.5,206.2L93.5,206.2z
		 M93.9,202.9c0.7,0,1.3-0.3,1.4-1c0.1-0.3,0.1-0.5,0.1-0.5c0-0.5-0.3-0.8-0.9-0.8h-1.8l-0.5,2.3H93.9z"/>
	<path class="st1" d="M100.8,206.9c-0.4,0-0.7-0.3-0.7-0.6c0-0.1,0-0.2,0-0.3l0.1-0.2l0,0c-0.4,0.9-0.9,1.2-1.7,1.2
		c-0.9,0-1.6-0.8-1.6-2c0-1.5,0.8-3.4,2.5-3.4c0.6,0,1.2,0.3,1.3,1l0,0l0.2-0.8h0.8l-0.9,4.5h0.7l-0.1,0.7L100.8,206.9L100.8,206.9z
		 M99.8,205.8c0.3-0.3,0.5-0.7,0.6-1.2l0.3-1.2c0.1-0.4-0.4-1-1.1-1c-0.9,0-1.4,0.6-1.6,1.6l-0.1,0.8c0,0.2-0.1,0.3-0.1,0.5
		c0,0.7,0.3,1.2,1,1.2C99.2,206.3,99.5,206.1,99.8,205.8z"/>
	<path class="st1" d="M104.1,199.5h0.8l-0.7,3.4l0,0c0.4-0.9,0.9-1.2,1.7-1.2c0.9,0,1.6,0.8,1.6,2c0,1.5-0.8,3.4-2.5,3.4
		c-0.6,0-1.2-0.3-1.3-1l0,0l-0.2,0.8h-0.8L104.1,199.5z M106.5,204.7l0.1-0.8c0-0.2,0.1-0.3,0.1-0.5c0-0.7-0.3-1.2-1-1.2
		c-0.4,0-0.8,0.2-1.1,0.5c-0.3,0.3-0.5,0.7-0.6,1.2l-0.2,1c-0.1,0.6,0.2,1.2,1.1,1.2C105.7,206.3,106.3,205.7,106.5,204.7z"/>
	<path class="st1" d="M108.3,206.9l1-5.2h0.8l-0.2,1l0,0c0.3-0.5,0.7-1,1.5-1h0.3l-0.2,0.8h-0.4c-1,0-1.5,0.6-1.6,1.3l-0.6,3.1
		L108.3,206.9L108.3,206.9z"/>
	<path class="st1" d="M112.8,206.9c-0.5,0-0.7-0.3-0.7-0.6c0-0.1,0-0.1,0-0.2l0.9-4.3h0.8l-0.9,4.5h0.7l-0.1,0.7L112.8,206.9
		L112.8,206.9z M113.3,200.2c0,0,0-0.1,0-0.3c0.1-0.3,0.2-0.4,0.5-0.4s0.4,0.2,0.4,0.3c0,0,0,0.1,0,0.3c0,0.3-0.2,0.4-0.5,0.4
		S113.3,200.4,113.3,200.2z"/>
	<path class="st1" d="M123.4,201L123.4,201l-0.9,1.2l-2.2,3l-1-3L119,201l0,0l-1.2,5.8H117l1.4-7h1l1.2,3.8l0,0l2.6-3.8h1.1l-1.4,7
		h-0.8L123.4,201z"/>
	<path class="st1" d="M128.8,206.9c-0.4,0-0.7-0.3-0.7-0.6c0-0.1,0-0.2,0-0.3l0.1-0.2l0,0c-0.4,0.9-0.9,1.2-1.7,1.2
		c-0.9,0-1.6-0.8-1.6-2c0-1.5,0.8-3.4,2.5-3.4c0.6,0,1.2,0.3,1.3,1l0,0l0.2-0.8h0.8l-0.9,4.5h0.7l-0.1,0.7L128.8,206.9L128.8,206.9z
		 M127.8,205.8c0.3-0.3,0.5-0.7,0.6-1.2l0.3-1.2c0.1-0.4-0.4-1-1.1-1c-0.9,0-1.4,0.6-1.6,1.6l-0.1,0.8c0,0.2-0.1,0.3-0.1,0.5
		c0,0.7,0.3,1.2,1,1.2C127.2,206.3,127.5,206.1,127.8,205.8z"/>
	<path class="st1" d="M130.4,206.1l0.5-0.5c0.4,0.5,0.8,0.7,1.4,0.7c0.7,0,1.2-0.3,1.2-1c0-0.3-0.2-0.6-0.8-0.7l-0.4-0.1
		c-0.8-0.2-1.4-0.5-1.4-1.3c0-0.9,0.6-1.6,1.9-1.6c0.8,0,1.3,0.3,1.7,0.8l-0.5,0.5c-0.2-0.3-0.6-0.6-1.2-0.6c-0.7,0-1.1,0.4-1.1,0.9
		c0,0.4,0.2,0.6,0.7,0.7l0.4,0.1c0.8,0.2,1.4,0.5,1.4,1.4c0,1-0.8,1.7-1.9,1.7C131.6,207,130.8,206.7,130.4,206.1z"/>
	<path class="st1" d="M136.4,201.7h0.8l-1.2,6.1c-0.1,0.7-0.4,1-1.1,1h-0.7l0.1-0.7h0.8L136.4,201.7z M136.6,200.2c0,0,0-0.1,0-0.3
		c0.1-0.3,0.2-0.4,0.5-0.4s0.4,0.2,0.4,0.3c0,0,0,0.1,0,0.3c0,0.3-0.2,0.4-0.5,0.4C136.8,200.5,136.6,200.4,136.6,200.2z"/>
	<path class="st1" d="M138.7,206.9c-0.5,0-0.7-0.3-0.7-0.6c0-0.1,0-0.1,0-0.2l0.9-4.3h0.8l-0.9,4.5h0.7l-0.1,0.7L138.7,206.9
		L138.7,206.9z M139.2,200.2c0,0,0-0.1,0-0.3c0.1-0.3,0.2-0.4,0.5-0.4s0.4,0.2,0.4,0.3c0,0,0,0.1,0,0.3c0,0.3-0.2,0.4-0.5,0.4
		C139.3,200.5,139.2,200.4,139.2,200.2z"/>
	<path class="st1" d="M144.5,206.9c-0.4,0-0.7-0.3-0.7-0.6c0-0.1,0-0.2,0-0.3l0.1-0.2l0,0c-0.4,0.9-0.9,1.2-1.7,1.2
		c-0.9,0-1.6-0.8-1.6-2c0-1.5,0.8-3.4,2.5-3.4c0.6,0,1.2,0.3,1.3,1l0,0l0.6-3.1h0.8l-1.3,6.7h0.7l-0.1,0.7L144.5,206.9L144.5,206.9z
		 M143.5,205.8c0.3-0.3,0.5-0.7,0.6-1.2l0.2-1c0.1-0.6-0.2-1.2-1.1-1.2c-0.8,0-1.4,0.6-1.6,1.6l-0.1,0.8c0,0.2-0.1,0.3-0.1,0.5
		c0,0.7,0.3,1.2,1,1.2C142.9,206.3,143.2,206.1,143.5,205.8z"/>
</g>
<g>
	<path class="st0" d="M15.7,193.1l4.2-10.4H16v2.3h-2.3v-4.5h8.9v2.3L18.5,193L15.7,193.1L15.7,193.1z"/>
</g>
<g>
	<path class="st0" d="M258.8,54.8l4.2-10.4h-3.9v2.3h-2.3v-4.5h8.9v2.3l-4.1,10.2L258.8,54.8L258.8,54.8z"/>
</g>
<g>
	<path class="st1" d="M37.9,105.9l-1.2,6.3h-0.8l1.2-6.3H35l0.1-0.7h5.1l-0.1,0.7H37.9z"/>
	<path class="st1" d="M39.9,107h0.7l0.1,2.5l0.1,1.9l0,0l0.8-1.7l1.3-2.7h0.7l0.2,2.6l0.1,1.8l0,0l0.8-1.7L46,107h0.7l-2.3,5.2h-0.9
		l-0.3-2.8l-0.1-1.3l0,0l-0.6,1.3l-1.3,2.8h-1L39.9,107z"/>
	<path class="st1" d="M46.9,110.2c0-1.7,1.1-3.2,2.7-3.2c0.9,0,1.7,0.5,1.7,1.4c0,1.1-1.2,1.7-3.6,1.7c0,0.1,0,0.3,0,0.4
		c0,0.7,0.4,1.2,1.2,1.2c0.7,0,1.2-0.3,1.6-0.8l0.5,0.5c-0.6,0.8-1.4,1.1-2.1,1.1C47.6,112.3,46.9,111.6,46.9,110.2z M47.8,109.1
		l-0.1,0.3c2.2-0.1,2.7-0.4,2.7-1.1c0-0.5-0.5-0.7-0.9-0.7C48.7,107.6,48,108.2,47.8,109.1z"/>
	<path class="st1" d="M52,110.2c0-1.7,1.1-3.2,2.7-3.2c0.9,0,1.7,0.5,1.7,1.4c0,1.1-1.2,1.7-3.6,1.7c0,0.1,0,0.3,0,0.4
		c0,0.7,0.4,1.2,1.2,1.2c0.7,0,1.2-0.3,1.6-0.8l0.5,0.5c-0.6,0.8-1.4,1.1-2.1,1.1C52.7,112.3,52,111.6,52,110.2z M52.9,109.1
		l-0.1,0.3c2.2-0.1,2.7-0.4,2.7-1.1c0-0.5-0.5-0.7-0.9-0.7C53.8,107.6,53.1,108.2,52.9,109.1z"/>
	<path class="st1" d="M58,112.2c-0.5,0-0.7-0.3-0.7-0.6c0-0.1,0-0.2,0-0.3l0.7-3.5h-0.8l0.1-0.7h0.4c0.4,0,0.4-0.1,0.5-0.5l0.2-0.9
		h0.7l-0.3,1.4H60l-0.1,0.7h-1.1l-0.8,3.8h1l-0.1,0.7L58,112.2L58,112.2z"/>
	<path class="st1" d="M59.9,111.4l0.5-0.5c0.4,0.5,0.8,0.7,1.4,0.7c0.7,0,1.2-0.3,1.2-1c0-0.3-0.2-0.6-0.8-0.7l-0.4-0.1
		c-0.8-0.2-1.4-0.5-1.4-1.3c0-0.9,0.6-1.6,1.9-1.6c0.8,0,1.3,0.3,1.7,0.8l-0.5,0.5c-0.2-0.3-0.6-0.6-1.2-0.6c-0.7,0-1.1,0.4-1.1,0.9
		c0,0.4,0.2,0.6,0.7,0.7l0.4,0.1c0.8,0.2,1.4,0.5,1.4,1.4c0,1-0.8,1.7-1.9,1.7C61.1,112.3,60.4,112,59.9,111.4z"/>
	<path class="st1" d="M67,111.4l0.5-0.5c0.4,0.5,0.8,0.7,1.4,0.7c0.7,0,1.2-0.3,1.2-1c0-0.3-0.2-0.6-0.8-0.7l-0.4-0.1
		c-0.8-0.2-1.4-0.5-1.4-1.3c0-0.9,0.6-1.6,1.9-1.6c0.8,0,1.3,0.3,1.7,0.8l-0.5,0.5c-0.2-0.3-0.6-0.6-1.2-0.6c-0.7,0-1.1,0.4-1.1,0.9
		c0,0.4,0.2,0.6,0.7,0.7l0.4,0.1c0.8,0.2,1.4,0.5,1.4,1.4c0,1-0.8,1.7-1.9,1.7C68.2,112.3,67.4,112,67,111.4z"/>
	<path class="st1" d="M76,112.2c-0.4,0-0.7-0.3-0.7-0.6c0-0.1,0-0.2,0-0.3l0.1-0.2l0,0c-0.4,0.9-0.9,1.2-1.7,1.2
		c-0.9,0-1.6-0.8-1.6-2c0-1.5,0.8-3.4,2.5-3.4c0.6,0,1.2,0.3,1.3,1l0,0l0.2-0.8h0.8l-0.9,4.5h0.7l-0.1,0.7L76,112.2L76,112.2z
		 M75,111.1c0.3-0.3,0.5-0.7,0.6-1.2l0.3-1.2c0.1-0.4-0.4-1-1.1-1c-0.9,0-1.4,0.6-1.6,1.6l-0.1,0.8c0,0.2-0.1,0.3-0.1,0.5
		c0,0.7,0.3,1.2,1,1.2C74.3,111.6,74.7,111.4,75,111.1z"/>
	<path class="st1" d="M81.7,107h0.8l-3.5,6.3c-0.3,0.6-0.6,0.8-1.1,0.8h-0.8l0.1-0.7h0.9l0.6-1.2L78,107h0.8l0.4,2.5l0.2,1.9h0.1
		l0.9-1.9L81.7,107z"/>
	<path class="st1" d="M83.4,112.2c-0.5,0-0.7-0.3-0.7-0.6c0-0.1,0-0.1,0-0.2l0.9-4.3h0.8l-0.9,4.5h0.7l-0.1,0.7L83.4,112.2
		L83.4,112.2z M83.8,105.5c0,0,0-0.1,0-0.3c0.1-0.3,0.2-0.4,0.5-0.4s0.4,0.2,0.4,0.3c0,0,0,0.1,0,0.3c0,0.3-0.2,0.4-0.5,0.4
		C84,105.8,83.8,105.7,83.8,105.5z"/>
	<path class="st1" d="M85.2,112.2l1-5.2H87l-0.2,1l0,0c0.4-0.8,0.8-1.1,1.6-1.1c0.9,0,1.3,0.5,1.3,1.4c0,0.2,0,0.4-0.1,0.7l-0.5,2.5
		h0.7l-0.1,0.7H89c-0.4,0-0.6-0.2-0.6-0.6c0-0.1,0-0.1,0-0.2l0.5-2.4c0-0.2,0-0.4,0-0.5c0-0.6-0.2-0.9-0.8-0.9
		c-0.4,0-0.7,0.1-0.9,0.4c-0.3,0.3-0.6,0.9-0.7,1.3l-0.6,2.9C85.9,112.2,85.2,112.2,85.2,112.2z"/>
	<path class="st1" d="M92.4,114.3c-1.4,0-2.1-0.4-2.1-1.1c0-0.5,0.3-0.9,1-1.1V112c-0.3-0.1-0.4-0.3-0.4-0.6c0-0.5,0.3-0.8,1-1v-0.1
		c-0.5-0.2-0.7-0.7-0.7-1.3c0-1.2,0.9-2.1,2.2-2.1c0.4,0,0.7,0.1,1,0.2V107c0.1-0.4,0.3-0.7,0.7-0.7h0.7l-0.1,0.7h-0.9l-0.1,0.4
		c0.2,0.3,0.3,0.6,0.3,1c0,1.2-0.9,2-2.2,2c-0.1,0-0.2,0-0.4,0c-0.5,0.1-0.8,0.3-0.8,0.6c0,0.3,0.2,0.4,0.7,0.4h1.1
		c1.1,0,1.6,0.4,1.6,1.2C95.1,113.5,94.5,114.3,92.4,114.3z M93.5,112.1h-1.8c-0.4,0.2-0.6,0.4-0.6,0.8s0.3,0.7,1.1,0.7h0.5
		c1.1,0,1.6-0.4,1.6-1C94.3,112.4,94.1,112.1,93.5,112.1z M94.2,108.9c0.1-0.4,0.1-0.4,0.1-0.6c0-0.5-0.3-0.8-0.9-0.8
		c-0.7,0-1.1,0.4-1.2,1c-0.1,0.4-0.1,0.4-0.1,0.6c0,0.5,0.3,0.8,0.9,0.8C93.7,109.9,94.1,109.5,94.2,108.9z"/>
	<path class="st1" d="M99.3,112.2c-0.5,0-0.7-0.3-0.7-0.6c0-0.1,0-0.2,0-0.3l0.7-3.5h-0.8l0.1-0.7H99c0.4,0,0.4-0.1,0.5-0.5l0.2-0.9
		h0.7l-0.3,1.4h1.1l-0.1,0.7H100l-0.8,3.8h1l-0.1,0.7L99.3,112.2L99.3,112.2z"/>
	<path class="st1" d="M103,104.8h0.8l-0.7,3.3l0,0c0.4-0.8,0.8-1.1,1.6-1.1c0.9,0,1.3,0.5,1.3,1.4c0,0.2,0,0.4-0.1,0.7l-0.5,2.5h0.7
		l-0.1,0.7h-0.7c-0.4,0-0.6-0.2-0.6-0.6c0-0.1,0-0.1,0-0.2l0.5-2.4c0-0.2,0-0.4,0-0.5c0-0.6-0.2-0.9-0.8-0.9c-0.4,0-0.7,0.1-0.9,0.4
		c-0.3,0.3-0.6,0.9-0.7,1.3l-0.6,2.9h-0.8L103,104.8z"/>
	<path class="st1" d="M111.1,112.2c-0.4,0-0.7-0.3-0.7-0.6c0-0.1,0-0.2,0-0.3l0.1-0.2l0,0c-0.4,0.9-0.9,1.2-1.7,1.2
		c-0.9,0-1.6-0.8-1.6-2c0-1.5,0.8-3.4,2.5-3.4c0.6,0,1.2,0.3,1.3,1l0,0l0.2-0.8h0.8l-0.9,4.5h0.7l-0.1,0.7L111.1,112.2L111.1,112.2z
		 M110.2,111.1c0.3-0.3,0.5-0.7,0.6-1.2l0.3-1.2c0.1-0.4-0.4-1-1.1-1c-0.9,0-1.4,0.6-1.6,1.6l-0.1,0.8c0,0.2-0.1,0.3-0.1,0.5
		c0,0.7,0.3,1.2,1,1.2C109.5,111.6,109.9,111.4,110.2,111.1z"/>
	<path class="st1" d="M114,112.2c-0.5,0-0.7-0.3-0.7-0.6c0-0.1,0-0.2,0-0.3l0.7-3.5h-0.8l0.1-0.7h0.4c0.4,0,0.4-0.1,0.5-0.5l0.2-0.9
		h0.7l-0.3,1.4h1.1l-0.1,0.7h-1.1l-0.8,3.8h1l-0.1,0.7L114,112.2L114,112.2z"/>
	<path class="st1" d="M118.7,110.2c0-1.8,1-3.3,2.5-3.3c0.9,0,1.5,0.5,1.7,1.2l-0.6,0.3c-0.2-0.5-0.5-0.8-1.1-0.8
		c-0.8,0-1.3,0.6-1.5,1.5l-0.2,0.8c0,0.1,0,0.3,0,0.4c0,0.7,0.4,1.3,1.2,1.3c0.5,0,0.9-0.2,1.3-1l0.6,0.3c-0.4,0.9-1.1,1.4-2,1.4
		C119.4,112.3,118.7,111.5,118.7,110.2z"/>
	<path class="st1" d="M127.3,112.2c-0.4,0-0.7-0.3-0.7-0.6c0-0.1,0-0.2,0-0.3l0.1-0.2l0,0c-0.4,0.9-0.9,1.2-1.7,1.2
		c-0.9,0-1.6-0.8-1.6-2c0-1.5,0.8-3.4,2.5-3.4c0.6,0,1.2,0.3,1.3,1l0,0l0.2-0.8h0.8l-0.9,4.5h0.7l-0.1,0.7L127.3,112.2L127.3,112.2z
		 M126.4,111.1c0.3-0.3,0.5-0.7,0.6-1.2l0.3-1.2c0.1-0.4-0.4-1-1.1-1c-0.9,0-1.4,0.6-1.6,1.6l-0.1,0.8c0,0.2-0.1,0.3-0.1,0.5
		c0,0.7,0.3,1.2,1,1.2C125.7,111.6,126.1,111.4,126.4,111.1z"/>
	<path class="st1" d="M130,112.2c-0.5,0-0.7-0.3-0.7-0.6c0-0.1,0-0.1,0-0.2l1.3-6.5h0.8l-1.3,6.7h0.8l-0.1,0.7L130,112.2L130,112.2z
		"/>
	<path class="st1" d="M132.6,112.2c-0.5,0-0.7-0.3-0.7-0.6c0-0.1,0-0.1,0-0.2l1.3-6.5h0.8l-1.3,6.7h0.8l-0.1,0.7L132.6,112.2
		L132.6,112.2z"/>
	<path class="st1" d="M135.2,112.2c-0.5,0-0.7-0.3-0.7-0.6c0-0.1,0-0.1,0-0.2l0.9-4.3h0.8l-0.9,4.5h0.7l-0.1,0.7L135.2,112.2
		L135.2,112.2z M135.7,105.5c0,0,0-0.1,0-0.3c0.1-0.3,0.2-0.4,0.5-0.4s0.4,0.2,0.4,0.3c0,0,0,0.1,0,0.3c0,0.3-0.2,0.4-0.5,0.4
		C135.8,105.8,135.7,105.7,135.7,105.5z"/>
	<path class="st1" d="M137,112.2l1-5.2h0.8l-0.2,1l0,0c0.4-0.8,0.8-1.1,1.6-1.1c0.9,0,1.3,0.5,1.3,1.4c0,0.2,0,0.4-0.1,0.7l-0.5,2.5
		h0.7l-0.1,0.7h-0.7c-0.4,0-0.6-0.2-0.6-0.6c0-0.1,0-0.1,0-0.2l0.5-2.4c0-0.2,0-0.4,0-0.5c0-0.6-0.2-0.9-0.8-0.9
		c-0.4,0-0.7,0.1-0.9,0.4c-0.3,0.3-0.6,0.9-0.7,1.3l-0.6,2.9C137.7,112.2,137,112.2,137,112.2z"/>
	<path class="st1" d="M144.2,114.3c-1.4,0-2.1-0.4-2.1-1.1c0-0.5,0.3-0.9,1-1.1V112c-0.3-0.1-0.4-0.3-0.4-0.6c0-0.5,0.3-0.8,1-1
		v-0.1c-0.5-0.2-0.7-0.7-0.7-1.3c0-1.2,0.9-2.1,2.2-2.1c0.4,0,0.7,0.1,1,0.2V107c0.1-0.4,0.3-0.7,0.7-0.7h0.7l-0.1,0.7h-0.9
		l-0.1,0.4c0.2,0.3,0.3,0.6,0.3,1c0,1.2-0.9,2-2.2,2c-0.1,0-0.2,0-0.4,0c-0.5,0.1-0.8,0.3-0.8,0.6c0,0.3,0.2,0.4,0.7,0.4h1.1
		c1.1,0,1.6,0.4,1.6,1.2C146.9,113.5,146.3,114.3,144.2,114.3z M145.3,112.1h-1.8c-0.4,0.2-0.6,0.4-0.6,0.8s0.3,0.7,1.1,0.7h0.5
		c1.1,0,1.6-0.4,1.6-1C146.1,112.4,145.9,112.1,145.3,112.1z M146.1,108.9c0.1-0.4,0.1-0.4,0.1-0.6c0-0.5-0.3-0.8-0.9-0.8
		c-0.7,0-1.1,0.4-1.2,1c-0.1,0.4-0.1,0.4-0.1,0.6c0,0.5,0.3,0.8,0.9,0.8C145.6,109.9,145.9,109.5,146.1,108.9z"/>
	<path class="st1" d="M151.1,112.2c-0.5,0-0.7-0.3-0.7-0.6c0-0.1,0-0.2,0-0.3l0.7-3.5h-0.8l0.1-0.7h0.4c0.4,0,0.4-0.1,0.5-0.5
		l0.2-0.9h0.7l-0.3,1.4h1.1l-0.1,0.7h-1.1l-0.8,3.8h1l-0.1,0.7L151.1,112.2L151.1,112.2z"/>
	<path class="st1" d="M154.8,104.8h0.8l-0.7,3.3l0,0c0.4-0.8,0.8-1.1,1.6-1.1c0.9,0,1.3,0.5,1.3,1.4c0,0.2,0,0.4-0.1,0.7l-0.5,2.5
		h0.7l-0.1,0.7h-0.7c-0.4,0-0.6-0.2-0.6-0.6c0-0.1,0-0.1,0-0.2l0.5-2.4c0-0.2,0-0.4,0-0.5c0-0.6-0.2-0.9-0.8-0.9
		c-0.4,0-0.7,0.1-0.9,0.4c-0.3,0.3-0.6,0.9-0.7,1.3l-0.6,2.9h-0.8L154.8,104.8z"/>
	<path class="st1" d="M159.1,110.2c0-1.7,1.1-3.2,2.7-3.2c0.9,0,1.7,0.5,1.7,1.4c0,1.1-1.2,1.7-3.6,1.7c0,0.1,0,0.3,0,0.4
		c0,0.7,0.4,1.2,1.2,1.2c0.7,0,1.2-0.3,1.6-0.8l0.5,0.5c-0.6,0.8-1.4,1.1-2.1,1.1C159.8,112.3,159.1,111.6,159.1,110.2z
		 M160.1,109.1l-0.1,0.3c2.2-0.1,2.7-0.4,2.7-1.1c0-0.5-0.5-0.7-0.9-0.7C160.9,107.6,160.2,108.2,160.1,109.1z"/>
	<path class="st1" d="M166.4,112.2l1-5.2h0.8l-0.2,1l0,0c0.4-0.8,0.8-1.1,1.6-1.1c0.9,0,1.3,0.5,1.3,1.4c0,0.2,0,0.4-0.1,0.7
		l-0.5,2.5h0.7l-0.1,0.7h-0.7c-0.4,0-0.6-0.2-0.6-0.6c0-0.1,0-0.1,0-0.2l0.5-2.4c0-0.2,0-0.4,0-0.5c0-0.6-0.2-0.9-0.8-0.9
		c-0.4,0-0.7,0.1-0.9,0.4c-0.3,0.3-0.6,0.9-0.7,1.3l-0.6,2.9C167.1,112.2,166.4,112.2,166.4,112.2z"/>
	<path class="st1" d="M173.8,107l-0.6,3.2c0,0.2,0,0.4,0,0.5c0,0.6,0.2,0.9,0.8,0.9c0.4,0,0.7-0.1,0.9-0.4c0.4-0.4,0.6-0.9,0.7-1.3
		l0.6-2.9h0.8l-0.9,4.5h0.7l-0.1,0.7H176c-0.4,0-0.7-0.3-0.7-0.6c0-0.1,0-0.1,0-0.3v-0.1l0,0c-0.4,0.8-0.8,1.1-1.5,1.1
		c-0.9,0-1.3-0.5-1.3-1.4c0-0.2,0-0.4,0.1-0.7l0.6-3.2C173.2,107,173.8,107,173.8,107z"/>
	<path class="st1" d="M177.7,112.2l1-5.2h0.8l-0.2,1l0,0c0.4-0.8,0.8-1.1,1.6-1.1c0.7,0,1.1,0.4,1.2,1.1h0.1
		c0.4-0.8,0.8-1.1,1.6-1.1c0.9,0,1.3,0.5,1.3,1.4c0,0.2,0,0.4-0.1,0.7l-0.5,2.5h0.7l-0.1,0.7h-0.7c-0.4,0-0.7-0.2-0.7-0.6
		c0-0.1,0-0.1,0-0.2l0.5-2.4c0-0.2,0.1-0.4,0.1-0.5c0-0.5-0.2-0.8-0.8-0.8c-0.3,0-0.6,0.1-0.9,0.4c-0.3,0.3-0.6,0.9-0.6,1.3
		l-0.6,2.9h-0.8l0.6-3.2c0-0.2,0.1-0.4,0.1-0.6c0-0.5-0.2-0.8-0.7-0.8c-0.3,0-0.7,0.2-0.9,0.4c-0.4,0.4-0.6,0.9-0.7,1.3l-0.6,2.9
		h-0.7V112.2z"/>
	<path class="st1" d="M187.7,104.8h0.8l-0.7,3.4l0,0c0.4-0.9,0.9-1.2,1.7-1.2c0.9,0,1.6,0.8,1.6,2c0,1.5-0.8,3.4-2.5,3.4
		c-0.6,0-1.2-0.3-1.3-1l0,0l-0.2,0.8h-0.8L187.7,104.8z M190,110l0.1-0.8c0-0.2,0.1-0.3,0.1-0.5c0-0.7-0.3-1.2-1-1.2
		c-0.4,0-0.8,0.2-1.1,0.5s-0.5,0.7-0.6,1.2l-0.2,1c-0.1,0.6,0.2,1.2,1.1,1.2C189.3,111.6,189.8,111,190,110z"/>
	<path class="st1" d="M192,110.2c0-1.7,1.1-3.2,2.7-3.2c0.9,0,1.7,0.5,1.7,1.4c0,1.1-1.2,1.7-3.6,1.7c0,0.1,0,0.3,0,0.4
		c0,0.7,0.4,1.2,1.2,1.2c0.7,0,1.2-0.3,1.6-0.8l0.5,0.5c-0.6,0.8-1.4,1.1-2.1,1.1C192.7,112.3,192,111.6,192,110.2z M193,109.1
		l-0.1,0.3c2.2-0.1,2.7-0.4,2.7-1.1c0-0.5-0.5-0.7-0.9-0.7C193.8,107.6,193.2,108.2,193,109.1z"/>
	<path class="st1" d="M197,112.2l1-5.2h0.8l-0.2,1l0,0c0.3-0.5,0.7-1,1.5-1h0.3l-0.2,0.8H200c-1,0-1.5,0.6-1.6,1.3l-0.6,3.1
		C197.8,112.2,197,112.2,197,112.2z"/>
	<path class="st1" d="M202.8,111.4l0.5-0.5c0.4,0.5,0.8,0.7,1.4,0.7c0.7,0,1.2-0.3,1.2-1c0-0.3-0.2-0.6-0.8-0.7l-0.4-0.1
		c-0.8-0.2-1.4-0.5-1.4-1.3c0-0.9,0.6-1.6,1.9-1.6c0.8,0,1.3,0.3,1.7,0.8l-0.5,0.5c-0.2-0.3-0.6-0.6-1.2-0.6c-0.7,0-1.1,0.4-1.1,0.9
		c0,0.4,0.2,0.6,0.7,0.7l0.4,0.1c0.8,0.2,1.4,0.5,1.4,1.4c0,1-0.8,1.7-1.9,1.7C203.9,112.3,203.2,112,202.8,111.4z"/>
	<path class="st1" d="M209.2,104.8h0.8l-0.7,3.3l0,0c0.4-0.8,0.8-1.1,1.6-1.1c0.9,0,1.3,0.5,1.3,1.4c0,0.2,0,0.4-0.1,0.7l-0.5,2.5
		h0.7l-0.1,0.7h-0.7c-0.4,0-0.6-0.2-0.6-0.6c0-0.1,0-0.1,0-0.2l0.5-2.4c0-0.2,0-0.4,0-0.5c0-0.6-0.2-0.9-0.8-0.9
		c-0.4,0-0.7,0.1-0.9,0.4c-0.3,0.3-0.6,0.9-0.7,1.3l-0.6,2.9h-0.8L209.2,104.8z"/>
	<path class="st1" d="M213.5,110.2c0-1.7,1.1-3.3,2.7-3.3c1.1,0,1.9,0.7,1.9,2.1c0,1.7-1.1,3.3-2.7,3.3
		C214.3,112.3,213.5,111.6,213.5,110.2z M217.1,110l0.1-0.8c0-0.1,0.1-0.3,0.1-0.4c0-0.7-0.4-1.2-1.2-1.2c-0.7,0-1.4,0.6-1.6,1.6
		l-0.2,0.8c0,0.1,0,0.3,0,0.4c0,0.7,0.4,1.2,1.2,1.2C216.2,111.6,216.8,111.1,217.1,110z"/>
	<path class="st1" d="M219,107h0.7l0.1,2.5l0.1,1.9l0,0l0.8-1.7l1.3-2.7h0.7l0.2,2.6l0.1,1.8l0,0l0.8-1.7l1.2-2.6h0.7l-2.3,5.2h-0.9
		l-0.3-2.8l-0.1-1.3l0,0l-0.6,1.3l-1.3,2.8h-1L219,107z"/>
	<path class="st1" d="M225.8,111.4l0.5-0.5c0.4,0.5,0.8,0.7,1.4,0.7c0.7,0,1.2-0.3,1.2-1c0-0.3-0.2-0.6-0.8-0.7l-0.4-0.1
		c-0.8-0.2-1.4-0.5-1.4-1.3c0-0.9,0.6-1.6,1.9-1.6c0.8,0,1.3,0.3,1.7,0.8l-0.5,0.5c-0.2-0.3-0.6-0.6-1.2-0.6c-0.7,0-1.1,0.4-1.1,0.9
		c0,0.4,0.2,0.6,0.7,0.7l0.4,0.1c0.8,0.2,1.4,0.5,1.4,1.4c0,1-0.8,1.7-1.9,1.7C227,112.3,226.2,112,225.8,111.4z"/>
	<path class="st1" d="M237.1,107h0.8l-3.5,6.3c-0.3,0.6-0.6,0.8-1.1,0.8h-0.8l0.1-0.7h0.9l0.6-1.2l-0.8-5.3h0.8l0.4,2.5l0.2,1.9h0.1
		l0.9-1.9L237.1,107z"/>
	<path class="st1" d="M238,110.2c0-1.7,1.1-3.3,2.7-3.3c1.1,0,1.9,0.7,1.9,2.1c0,1.7-1.1,3.3-2.7,3.3
		C238.8,112.3,238,111.6,238,110.2z M241.5,110l0.1-0.8c0-0.1,0.1-0.3,0.1-0.4c0-0.7-0.4-1.2-1.2-1.2c-0.7,0-1.4,0.6-1.6,1.6
		l-0.2,0.8c0,0.1,0,0.3,0,0.4c0,0.7,0.4,1.2,1.2,1.2C240.7,111.6,241.3,111.1,241.5,110z"/>
	<path class="st1" d="M245.1,107l-0.6,3.2c0,0.2,0,0.4,0,0.5c0,0.6,0.2,0.9,0.8,0.9c0.4,0,0.7-0.1,0.9-0.4c0.4-0.4,0.6-0.9,0.7-1.3
		l0.6-2.9h0.8l-0.9,4.5h0.7l-0.1,0.7h-0.7c-0.4,0-0.7-0.3-0.7-0.6c0-0.1,0-0.1,0-0.3v-0.1l0,0c-0.4,0.8-0.8,1.1-1.5,1.1
		c-0.9,0-1.3-0.5-1.3-1.4c0-0.2,0-0.4,0.1-0.7l0.6-3.2C244.5,107,245.1,107,245.1,107z"/>
	<path class="st1" d="M249,112.2l1-5.2h0.8l-0.2,1l0,0c0.3-0.5,0.7-1,1.5-1h0.3l-0.2,0.8H252c-1,0-1.5,0.6-1.6,1.3l-0.6,3.1
		C249.8,112.2,249,112.2,249,112.2z"/>
	<path class="st1" d="M254.8,111.4l0.5-0.5c0.4,0.5,0.8,0.7,1.4,0.7c0.7,0,1.2-0.3,1.2-1c0-0.3-0.2-0.6-0.8-0.7l-0.4-0.1
		c-0.8-0.2-1.4-0.5-1.4-1.3c0-0.9,0.6-1.6,1.9-1.6c0.8,0,1.3,0.3,1.7,0.8l-0.5,0.5c-0.2-0.3-0.6-0.6-1.2-0.6c-0.7,0-1.1,0.4-1.1,0.9
		c0,0.4,0.2,0.6,0.7,0.7l0.4,0.1c0.8,0.2,1.4,0.5,1.4,1.4c0,1-0.8,1.7-1.9,1.7C255.9,112.3,255.2,112,254.8,111.4z"/>
	<path class="st1" d="M261.4,107l-0.6,3.2c0,0.2,0,0.4,0,0.5c0,0.6,0.2,0.9,0.8,0.9c0.4,0,0.7-0.1,0.9-0.4c0.4-0.4,0.6-0.9,0.7-1.3
		l0.6-2.9h0.8l-0.9,4.5h0.7l-0.1,0.7h-0.7c-0.4,0-0.7-0.3-0.7-0.6c0-0.1,0-0.1,0-0.3v-0.1l0,0c-0.4,0.8-0.8,1.1-1.5,1.1
		c-0.9,0-1.3-0.5-1.3-1.4c0-0.2,0-0.4,0.1-0.7l0.6-3.2C260.8,107,261.4,107,261.4,107z"/>
	<path class="st1" d="M266.3,107h0.8l-0.2,1.1l0,0c0.4-0.9,0.9-1.2,1.7-1.2c0.9,0,1.6,0.8,1.6,2c0,1.5-0.8,3.4-2.5,3.4
		c-0.6,0-1.2-0.3-1.3-1l0,0l-0.6,2.8H265L266.3,107z M269.2,110l0.1-0.8c0-0.2,0.1-0.3,0.1-0.5c0-0.7-0.3-1.2-1-1.2
		c-0.4,0-0.8,0.2-1.1,0.5c-0.3,0.3-0.5,0.7-0.6,1.2l-0.2,1c-0.1,0.6,0.2,1.2,1.1,1.2C268.4,111.6,269,111,269.2,110z"/>
	<path class="st1" d="M272.1,107h0.8l-0.2,1.1l0,0c0.4-0.9,0.9-1.2,1.7-1.2c0.9,0,1.6,0.8,1.6,2c0,1.5-0.8,3.4-2.5,3.4
		c-0.6,0-1.2-0.3-1.3-1l0,0l-0.6,2.8h-0.8L272.1,107z M274.9,110l0.1-0.8c0-0.2,0.1-0.3,0.1-0.5c0-0.7-0.3-1.2-1-1.2
		c-0.4,0-0.8,0.2-1.1,0.5c-0.3,0.3-0.5,0.7-0.6,1.2l-0.2,1c-0.1,0.6,0.2,1.2,1.1,1.2C274.1,111.6,274.7,111,274.9,110z"/>
	<path class="st1" d="M276.9,110.2c0-1.7,1.1-3.3,2.7-3.3c1.1,0,1.9,0.7,1.9,2.1c0,1.7-1.1,3.3-2.7,3.3
		C277.7,112.3,276.9,111.6,276.9,110.2z M280.4,110l0.1-0.8c0-0.1,0.1-0.3,0.1-0.4c0-0.7-0.4-1.2-1.2-1.2c-0.7,0-1.4,0.6-1.6,1.6
		l-0.2,0.8c0,0.1,0,0.3,0,0.4c0,0.7,0.4,1.2,1.2,1.2S280.2,111.1,280.4,110z"/>
	<path class="st1" d="M282.2,112.2l1-5.2h0.8l-0.2,1l0,0c0.3-0.5,0.7-1,1.5-1h0.3l-0.2,0.8H285c-1,0-1.5,0.6-1.6,1.3l-0.6,3.1
		C282.8,112.2,282.2,112.2,282.2,112.2z"/>
	<path class="st1" d="M286.9,112.2c-0.5,0-0.7-0.3-0.7-0.6c0-0.1,0-0.2,0-0.3l0.7-3.5h-0.8l0.1-0.7h0.4c0.4,0,0.4-0.1,0.5-0.5
		l0.2-0.9h0.7l-0.3,1.4h1.1l-0.1,0.7h-1.1l-0.8,3.8h1l-0.1,0.7L286.9,112.2L286.9,112.2z"/>
	<path class="st1" d="M35.2,125.1c-0.1,0.7-0.5,1.1-1.3,1.1h-0.7l0.1-0.7h0.9l1.2-5.8h-0.8l0.1-0.7h0.8l0.2-1.1
		c0.1-0.7,0.5-1.1,1.3-1.1h0.8l-0.1,0.7h-1l-0.3,1.6h1l-0.1,0.7h-1L35.2,125.1z"/>
	<path class="st1" d="M37.5,122.2c0-1.7,1.1-3.3,2.7-3.3c1.1,0,1.9,0.7,1.9,2.1c0,1.7-1.1,3.3-2.7,3.3
		C38.3,124.3,37.5,123.6,37.5,122.2z M41.1,122l0.1-0.8c0-0.1,0.1-0.3,0.1-0.4c0-0.7-0.4-1.2-1.2-1.2c-0.7,0-1.4,0.6-1.6,1.6
		l-0.2,0.8c0,0.1,0,0.3,0,0.4c0,0.7,0.4,1.2,1.2,1.2C40.2,123.6,40.9,123.1,41.1,122z"/>
	<path class="st1" d="M42.9,124.2l1-5.2h0.8l-0.2,1l0,0c0.3-0.5,0.7-1,1.5-1h0.3l-0.2,0.8h-0.4c-1,0-1.5,0.6-1.6,1.3l-0.6,3.1
		C43.5,124.2,42.9,124.2,42.9,124.2z"/>
	<path class="st1" d="M49.9,124.2c-0.5,0-0.7-0.3-0.7-0.6c0-0.1,0-0.2,0-0.3l0.7-3.5h-0.8l0.1-0.7h0.4c0.4,0,0.4-0.1,0.5-0.5
		l0.2-0.9H51l-0.3,1.4h1.1l-0.1,0.7h-1.1l-0.8,3.8h1l-0.1,0.7L49.9,124.2L49.9,124.2z"/>
	<path class="st1" d="M53.6,116.8h0.8l-0.7,3.3l0,0c0.4-0.8,0.8-1.1,1.6-1.1c0.9,0,1.3,0.5,1.3,1.4c0,0.2,0,0.4-0.1,0.7l-0.5,2.5
		h0.7l-0.1,0.7h-0.7c-0.4,0-0.6-0.2-0.6-0.6c0-0.1,0-0.1,0-0.2l0.5-2.4c0-0.2,0-0.4,0-0.5c0-0.6-0.2-0.9-0.8-0.9
		c-0.4,0-0.7,0.1-0.9,0.4c-0.3,0.3-0.6,0.9-0.7,1.3l-0.6,2.9H52L53.6,116.8z"/>
	<path class="st1" d="M57.9,122.2c0-1.7,1.1-3.2,2.7-3.2c0.9,0,1.7,0.5,1.7,1.4c0,1.1-1.2,1.7-3.6,1.7c0,0.1,0,0.3,0,0.4
		c0,0.7,0.4,1.2,1.2,1.2c0.7,0,1.2-0.3,1.6-0.8l0.5,0.5c-0.6,0.8-1.4,1.1-2.1,1.1C58.6,124.3,57.9,123.6,57.9,122.2z M58.8,121.1
		l-0.1,0.3c2.2-0.1,2.7-0.4,2.7-1.1c0-0.5-0.5-0.7-0.9-0.7C59.7,119.6,59,120.2,58.8,121.1z"/>
	<path class="st1" d="M66.2,119H67l-0.2,1.1l0,0c0.4-0.9,0.9-1.2,1.7-1.2c0.9,0,1.6,0.8,1.6,2c0,1.5-0.8,3.4-2.5,3.4
		c-0.6,0-1.2-0.3-1.3-1l0,0l-0.6,2.8h-0.8L66.2,119z M69.1,122l0.1-0.8c0-0.2,0.1-0.3,0.1-0.5c0-0.7-0.3-1.2-1-1.2
		c-0.4,0-0.8,0.2-1.1,0.5c-0.3,0.3-0.5,0.7-0.6,1.2l-0.2,1c-0.1,0.6,0.2,1.2,1.1,1.2C68.3,123.6,68.9,123,69.1,122z"/>
	<path class="st1" d="M70.9,124.2l1-5.2h0.8l-0.2,1l0,0c0.3-0.5,0.7-1,1.5-1h0.3l-0.2,0.8h-0.4c-1,0-1.5,0.6-1.6,1.3l-0.6,3.1
		C71.5,124.2,70.9,124.2,70.9,124.2z"/>
	<path class="st1" d="M74.6,122.2c0-1.7,1.1-3.3,2.7-3.3c1.1,0,1.9,0.7,1.9,2.1c0,1.7-1.1,3.3-2.7,3.3
		C75.4,124.3,74.6,123.6,74.6,122.2z M78.2,122l0.1-0.8c0-0.1,0.1-0.3,0.1-0.4c0-0.7-0.4-1.2-1.2-1.2c-0.7,0-1.4,0.6-1.6,1.6
		l-0.2,0.8c0,0.1,0,0.3,0,0.4c0,0.7,0.4,1.2,1.2,1.2C77.3,123.6,78,123.1,78.2,122z"/>
	<path class="st1" d="M81,124.2c-0.5,0-0.7-0.3-0.7-0.6c0-0.1,0-0.2,0-0.3l0.7-3.5h-0.8l0.1-0.7h0.4c0.4,0,0.4-0.1,0.5-0.5l0.2-0.9
		h0.7l-0.3,1.4H83l-0.1,0.7h-1.1l-0.8,3.8h1l-0.1,0.7L81,124.2L81,124.2z"/>
	<path class="st1" d="M83.2,122.2c0-1.7,1.1-3.2,2.7-3.2c0.9,0,1.7,0.5,1.7,1.4c0,1.1-1.2,1.7-3.6,1.7c0,0.1,0,0.3,0,0.4
		c0,0.7,0.4,1.2,1.2,1.2c0.7,0,1.2-0.3,1.6-0.8l0.5,0.5c-0.6,0.8-1.4,1.1-2.1,1.1C84,124.3,83.2,123.6,83.2,122.2z M84.2,121.1
		l-0.1,0.3c2.2-0.1,2.7-0.4,2.7-1.1c0-0.5-0.5-0.7-0.9-0.7C85,119.6,84.4,120.2,84.2,121.1z"/>
	<path class="st1" d="M88,123.4l0.5-0.5c0.4,0.5,0.8,0.7,1.4,0.7c0.7,0,1.2-0.3,1.2-1c0-0.3-0.2-0.6-0.8-0.7l-0.4-0.1
		c-0.8-0.2-1.4-0.5-1.4-1.3c0-0.9,0.6-1.6,1.9-1.6c0.8,0,1.3,0.3,1.7,0.8l-0.5,0.5c-0.2-0.3-0.6-0.6-1.2-0.6c-0.7,0-1.1,0.4-1.1,0.9
		c0,0.4,0.2,0.6,0.7,0.7l0.4,0.1c0.8,0.2,1.4,0.5,1.4,1.4c0,1-0.8,1.7-1.9,1.7C89.2,124.3,88.4,124,88,123.4z"/>
	<path class="st1" d="M93.8,124.2c-0.5,0-0.7-0.3-0.7-0.6c0-0.1,0-0.2,0-0.3l0.7-3.5H93l0.1-0.7h0.4c0.4,0,0.4-0.1,0.5-0.5l0.2-0.9
		H95l-0.3,1.4h1.1l-0.1,0.7h-1.1l-0.8,3.8h1l-0.1,0.7L93.8,124.2L93.8,124.2z"/>
	<path class="st1" d="M102.3,124.2c-0.4,0-0.7-0.3-0.7-0.6c0-0.1,0-0.2,0-0.3l0.1-0.2l0,0c-0.4,0.9-0.9,1.2-1.7,1.2
		c-0.9,0-1.6-0.8-1.6-2c0-1.5,0.8-3.4,2.5-3.4c0.6,0,1.2,0.3,1.3,1l0,0l0.2-0.8h0.8l-0.9,4.5h0.7l-0.1,0.7L102.3,124.2L102.3,124.2z
		 M101.3,123.1c0.3-0.3,0.5-0.7,0.6-1.2l0.3-1.2c0.1-0.4-0.4-1-1.1-1c-0.9,0-1.4,0.6-1.6,1.6l-0.1,0.8c0,0.2-0.1,0.3-0.1,0.5
		c0,0.7,0.3,1.2,1,1.2C100.7,123.6,101,123.4,101.3,123.1z"/>
	<path class="st1" d="M105.7,126.3c-1.4,0-2.1-0.4-2.1-1.1c0-0.5,0.3-0.9,1-1.1V124c-0.3-0.1-0.4-0.3-0.4-0.6c0-0.5,0.3-0.8,1-1
		v-0.1c-0.5-0.2-0.7-0.7-0.7-1.3c0-1.2,0.9-2.1,2.2-2.1c0.4,0,0.7,0.1,1,0.2V119c0.1-0.4,0.3-0.7,0.7-0.7h0.7L109,119h-0.9l-0.1,0.4
		c0.2,0.3,0.3,0.6,0.3,1c0,1.2-0.9,2-2.2,2c-0.1,0-0.2,0-0.4,0c-0.5,0.1-0.8,0.3-0.8,0.6c0,0.3,0.2,0.4,0.7,0.4h1.1
		c1.1,0,1.6,0.4,1.6,1.2C108.4,125.5,107.8,126.3,105.7,126.3z M106.8,124.1H105c-0.4,0.2-0.6,0.4-0.6,0.8s0.3,0.7,1.1,0.7h0.5
		c1.1,0,1.6-0.4,1.6-1C107.6,124.4,107.4,124.1,106.8,124.1z M107.5,120.9c0.1-0.4,0.1-0.4,0.1-0.6c0-0.5-0.3-0.8-0.9-0.8
		c-0.7,0-1.1,0.4-1.2,1c-0.1,0.4-0.1,0.4-0.1,0.6c0,0.5,0.3,0.8,0.9,0.8C107,121.9,107.4,121.5,107.5,120.9z"/>
	<path class="st1" d="M113.2,124.2c-0.4,0-0.7-0.3-0.7-0.6c0-0.1,0-0.2,0-0.3l0.1-0.2l0,0c-0.4,0.9-0.9,1.2-1.7,1.2
		c-0.9,0-1.6-0.8-1.6-2c0-1.5,0.8-3.4,2.5-3.4c0.6,0,1.2,0.3,1.3,1l0,0l0.2-0.8h0.8l-0.9,4.5h0.7l-0.1,0.7L113.2,124.2L113.2,124.2z
		 M112.2,123.1c0.3-0.3,0.5-0.7,0.6-1.2l0.3-1.2c0.1-0.4-0.4-1-1.1-1c-0.9,0-1.4,0.6-1.6,1.6l-0.1,0.8c0,0.2-0.1,0.3-0.1,0.5
		c0,0.7,0.3,1.2,1,1.2C111.6,123.6,111.9,123.4,112.2,123.1z"/>
	<path class="st1" d="M115.9,124.2c-0.5,0-0.7-0.3-0.7-0.6c0-0.1,0-0.1,0-0.2l0.9-4.3h0.8l-0.9,4.5h0.7l-0.1,0.7L115.9,124.2
		L115.9,124.2z M116.3,117.5c0,0,0-0.1,0-0.3c0.1-0.3,0.2-0.4,0.5-0.4s0.4,0.2,0.4,0.3c0,0,0,0.1,0,0.3c0,0.3-0.2,0.4-0.5,0.4
		S116.3,117.7,116.3,117.5z"/>
	<path class="st1" d="M117.7,124.2l1-5.2h0.8l-0.2,1l0,0c0.4-0.8,0.8-1.1,1.6-1.1c0.9,0,1.3,0.5,1.3,1.4c0,0.2,0,0.4-0.1,0.7
		l-0.5,2.5h0.7l-0.1,0.7h-0.7c-0.4,0-0.6-0.2-0.6-0.6c0-0.1,0-0.1,0-0.2l0.5-2.4c0-0.2,0-0.4,0-0.5c0-0.6-0.2-0.9-0.8-0.9
		c-0.4,0-0.7,0.1-0.9,0.4c-0.3,0.3-0.6,0.9-0.7,1.3l-0.6,2.9C118.4,124.2,117.7,124.2,117.7,124.2z"/>
	<path class="st1" d="M123.1,123.4l0.5-0.5c0.4,0.5,0.8,0.7,1.4,0.7c0.7,0,1.2-0.3,1.2-1c0-0.3-0.2-0.6-0.8-0.7l-0.4-0.1
		c-0.8-0.2-1.4-0.5-1.4-1.3c0-0.9,0.6-1.6,1.9-1.6c0.8,0,1.3,0.3,1.7,0.8l-0.5,0.5c-0.2-0.3-0.6-0.6-1.2-0.6c-0.7,0-1.1,0.4-1.1,0.9
		c0,0.4,0.2,0.6,0.7,0.7l0.4,0.1c0.8,0.2,1.4,0.5,1.4,1.4c0,1-0.8,1.7-1.9,1.7C124.3,124.3,123.5,124,123.1,123.4z"/>
	<path class="st1" d="M128.9,124.2c-0.5,0-0.7-0.3-0.7-0.6c0-0.1,0-0.2,0-0.3l0.7-3.5h-0.8l0.1-0.7h0.4c0.4,0,0.4-0.1,0.5-0.5
		l0.2-0.9h0.7l-0.3,1.4h1.1l-0.1,0.7h-1.1l-0.8,3.8h1l-0.1,0.7L128.9,124.2L128.9,124.2z"/>
	<path class="st1" d="M133.6,121.5c0-2.4,1.3-4.4,3.4-4.4c1.1,0,1.9,0.5,2.2,1.6l-0.7,0.3c-0.3-0.8-0.7-1.2-1.6-1.2
		c-1.1,0-1.9,0.8-2.2,2.1l-0.2,1.1c0,0.3-0.1,0.5-0.1,0.7c0,1.1,0.6,1.8,1.6,1.8s1.5-0.5,1.9-1.3l0.7,0.3c-0.6,1.2-1.4,1.7-2.6,1.7
		C134.6,124.3,133.6,123.3,133.6,121.5z"/>
	<path class="st1" d="M143.7,124.2l-0.3-2.1h-2.7l-1.1,2.1h-0.9l3.7-7h1.1l0.9,7H143.7z M143,118L143,118l-1.8,3.4h2.3L143,118z"/>
	<path class="st1" d="M150.1,124.2l-0.3-2.1h-2.7l-1.1,2.1h-0.9l3.7-7h1.1l0.9,7H150.1z M149.3,118L149.3,118l-1.8,3.4h2.3
		L149.3,118z"/>
	<path class="st1" d="M154.5,122.2c0-1.7,1.1-3.3,2.7-3.3c1.1,0,1.9,0.7,1.9,2.1c0,1.7-1.1,3.3-2.7,3.3
		C155.3,124.3,154.5,123.6,154.5,122.2z M158.1,122l0.1-0.8c0-0.1,0.1-0.3,0.1-0.4c0-0.7-0.4-1.2-1.2-1.2c-0.7,0-1.4,0.6-1.6,1.6
		l-0.2,0.8c0,0.1,0,0.3,0,0.4c0,0.7,0.4,1.2,1.2,1.2C157.2,123.6,157.9,123.1,158.1,122z"/>
	<path class="st1" d="M159.9,124.2l1-5.2h0.8l-0.2,1l0,0c0.3-0.5,0.7-1,1.5-1h0.3l-0.2,0.8h-0.4c-1,0-1.5,0.6-1.6,1.3l-0.6,3.1
		C160.5,124.2,159.9,124.2,159.9,124.2z"/>
	<path class="st1" d="M166.7,125.1c-0.1,0.7-0.5,1.1-1.3,1.1h-0.7l0.1-0.7h0.9l1.2-5.8h-0.8l0.1-0.7h0.8l0.2-1.1
		c0.1-0.7,0.5-1.1,1.3-1.1h0.8l-0.1,0.7h-1l-0.3,1.6h1l-0.1,0.7h-1L166.7,125.1z"/>
	<path class="st1" d="M169,122.2c0-1.7,1.1-3.3,2.7-3.3c1.1,0,1.9,0.7,1.9,2.1c0,1.7-1.1,3.3-2.7,3.3
		C169.8,124.3,169,123.6,169,122.2z M172.6,122l0.1-0.8c0-0.1,0.1-0.3,0.1-0.4c0-0.7-0.4-1.2-1.2-1.2c-0.7,0-1.4,0.6-1.6,1.6
		l-0.2,0.8c0,0.1,0,0.3,0,0.4c0,0.7,0.4,1.2,1.2,1.2C171.7,123.6,172.4,123.1,172.6,122z"/>
	<path class="st1" d="M174.4,124.2l1-5.2h0.8l-0.2,1l0,0c0.3-0.5,0.7-1,1.5-1h0.3l-0.2,0.8h-0.4c-1,0-1.5,0.6-1.6,1.3l-0.6,3.1
		C175,124.2,174.4,124.2,174.4,124.2z"/>
	<path class="st1" d="M185,117.2l-1,5.1c-0.3,1.3-1,2-2.2,2c-1,0-1.6-0.6-1.7-1.6l0.7-0.1c0,0.6,0.3,1.1,1,1.1
		c0.8,0,1.2-0.5,1.4-1.4l0.9-4.3h-2.3l0.1-0.7L185,117.2L185,117.2z"/>
	<path class="st1" d="M188,120l-0.5-1.7l0,0l-1.2,5.9h-0.8l1.4-7h0.9l1.5,4.2l0.5,1.7l0,0l1.2-5.9h0.8l-1.4,7h-0.9L188,120z"/>
	<path class="st1" d="M194.4,117.2l-0.9,4.3c-0.1,0.3-0.1,0.5-0.1,0.7c0,0.8,0.5,1.4,1.3,1.4c1.1,0,1.7-0.6,2-2.2l0.8-4.1h0.8
		l-0.8,4.2c-0.4,2.1-1.3,2.9-2.9,2.9c-1.2,0-2-0.7-2-2c0-0.3,0-0.7,0.1-1l0.8-4h0.9V117.2z"/>
	<path class="st1" d="M201.3,122.2c0-1.7,1.1-3.3,2.7-3.3c1.1,0,1.9,0.7,1.9,2.1c0,1.7-1.1,3.3-2.7,3.3
		C202.1,124.3,201.3,123.6,201.3,122.2z M204.8,122l0.1-0.8c0-0.1,0.1-0.3,0.1-0.4c0-0.7-0.4-1.2-1.2-1.2c-0.7,0-1.4,0.6-1.6,1.6
		L202,122c0,0.1,0,0.3,0,0.4c0,0.7,0.4,1.2,1.2,1.2C204,123.6,204.6,123.1,204.8,122z"/>
	<path class="st1" d="M206.6,124.2l1-5.2h0.8l-0.2,1l0,0c0.3-0.5,0.7-1,1.5-1h0.3l-0.2,0.8h-0.4c-1,0-1.5,0.6-1.6,1.3l-0.6,3.1
		C207.2,124.2,206.6,124.2,206.6,124.2z"/>
	<path class="st1" d="M213.5,125.1c-0.1,0.7-0.5,1.1-1.3,1.1h-0.7l0.1-0.7h0.9l1.2-5.8h-0.8l0.1-0.7h0.8l0.2-1.1
		c0.1-0.7,0.5-1.1,1.3-1.1h0.8l-0.1,0.7h-1l-0.3,1.6h1l-0.1,0.7h-1L213.5,125.1z"/>
	<path class="st1" d="M215.8,122.2c0-1.7,1.1-3.3,2.7-3.3c1.1,0,1.9,0.7,1.9,2.1c0,1.7-1.1,3.3-2.7,3.3
		C216.6,124.3,215.8,123.6,215.8,122.2z M219.4,122l0.1-0.8c0-0.1,0.1-0.3,0.1-0.4c0-0.7-0.4-1.2-1.2-1.2c-0.7,0-1.4,0.6-1.6,1.6
		l-0.2,0.8c0,0.1,0,0.3,0,0.4c0,0.7,0.4,1.2,1.2,1.2C218.5,123.6,219.2,123.1,219.4,122z"/>
	<path class="st1" d="M221.2,124.2l1-5.2h0.8l-0.2,1l0,0c0.3-0.5,0.7-1,1.5-1h0.3l-0.2,0.8H224c-1,0-1.5,0.6-1.6,1.3l-0.6,3.1
		C221.8,124.2,221.2,124.2,221.2,124.2z"/>
	<path class="st1" d="M231.8,117.2l-1,5.1c-0.3,1.3-1,2-2.2,2c-1,0-1.6-0.6-1.7-1.6l0.7-0.1c0,0.6,0.3,1.1,1,1.1
		c0.8,0,1.2-0.5,1.4-1.4l0.9-4.3h-2.3l0.1-0.7L231.8,117.2L231.8,117.2z"/>
	<path class="st1" d="M236.2,124.2c-0.4,0-0.7-0.3-0.7-0.6c0-0.1,0-0.2,0-0.3l0.1-0.2l0,0c-0.4,0.9-0.9,1.2-1.7,1.2
		c-0.9,0-1.6-0.8-1.6-2c0-1.5,0.8-3.4,2.5-3.4c0.6,0,1.2,0.3,1.3,1l0,0l0.2-0.8h0.8l-0.9,4.5h0.7l-0.1,0.7L236.2,124.2L236.2,124.2z
		 M235.2,123.1c0.3-0.3,0.5-0.7,0.6-1.2l0.3-1.2c0.1-0.4-0.4-1-1.1-1c-0.9,0-1.4,0.6-1.6,1.6l-0.1,0.8c0,0.2-0.1,0.3-0.1,0.5
		c0,0.7,0.3,1.2,1,1.2C234.5,123.6,234.9,123.4,235.2,123.1z"/>
	<path class="st1" d="M238,124.2l1-5.2h0.8l-0.2,1l0,0c0.4-0.8,0.8-1.1,1.6-1.1c0.7,0,1.1,0.4,1.2,1.1h0.1c0.4-0.8,0.8-1.1,1.6-1.1
		c0.9,0,1.3,0.5,1.3,1.4c0,0.2,0,0.4-0.1,0.7l-0.5,2.5h0.7l-0.1,0.7h-0.7c-0.4,0-0.7-0.2-0.7-0.6c0-0.1,0-0.1,0-0.2l0.5-2.4
		c0-0.2,0.1-0.4,0.1-0.5c0-0.5-0.2-0.8-0.8-0.8c-0.3,0-0.6,0.1-0.9,0.4c-0.3,0.3-0.6,0.9-0.6,1.3l-0.6,2.9h-0.8l0.6-3.2
		c0-0.2,0.1-0.4,0.1-0.6c0-0.5-0.2-0.8-0.7-0.8c-0.3,0-0.7,0.2-0.9,0.4c-0.4,0.4-0.6,0.9-0.7,1.3l-0.6,2.9H238V124.2z"/>
	<path class="st1" d="M247.3,124.2c-0.5,0-0.7-0.3-0.7-0.6c0-0.1,0-0.1,0-0.2l0.9-4.3h0.8l-0.9,4.5h0.7l-0.1,0.7L247.3,124.2
		L247.3,124.2z M247.7,117.5c0,0,0-0.1,0-0.3c0.1-0.3,0.2-0.4,0.5-0.4s0.4,0.2,0.4,0.3c0,0,0,0.1,0,0.3c0,0.3-0.2,0.4-0.5,0.4
		C247.9,117.8,247.7,117.7,247.7,117.5z"/>
	<path class="st1" d="M253.1,124.2c-0.4,0-0.7-0.3-0.7-0.6c0-0.1,0-0.2,0-0.3l0.1-0.2l0,0c-0.4,0.9-0.9,1.2-1.7,1.2
		c-0.9,0-1.6-0.8-1.6-2c0-1.5,0.8-3.4,2.5-3.4c0.6,0,1.2,0.3,1.3,1l0,0l0.2-0.8h0.8l-0.9,4.5h0.7l-0.1,0.7L253.1,124.2L253.1,124.2z
		 M252.1,123.1c0.3-0.3,0.5-0.7,0.6-1.2l0.3-1.2c0.1-0.4-0.4-1-1.1-1c-0.9,0-1.4,0.6-1.6,1.6l-0.1,0.8c0,0.2-0.1,0.3-0.1,0.5
		c0,0.7,0.3,1.2,1,1.2C251.5,123.6,251.8,123.4,252.1,123.1z"/>
	<path class="st1" d="M257.4,122.2c0-1.7,1.1-3.2,2.7-3.2c0.9,0,1.7,0.5,1.7,1.4c0,1.1-1.2,1.7-3.6,1.7c0,0.1,0,0.3,0,0.4
		c0,0.7,0.4,1.2,1.2,1.2c0.7,0,1.2-0.3,1.6-0.8l0.5,0.5c-0.6,0.8-1.4,1.1-2.1,1.1C258.1,124.3,257.4,123.6,257.4,122.2z
		 M258.4,121.1l-0.1,0.3c2.2-0.1,2.7-0.4,2.7-1.1c0-0.5-0.5-0.7-0.9-0.7C259.2,119.6,258.6,120.2,258.4,121.1z"/>
	<path class="st1" d="M263.4,124.2c-0.5,0-0.7-0.3-0.7-0.6c0-0.1,0-0.2,0-0.3l0.7-3.5h-0.8l0.1-0.7h0.4c0.4,0,0.4-0.1,0.5-0.5
		l0.2-0.9h0.7l-0.3,1.4h1.1l-0.1,0.7h-1.1l-0.8,3.8h1l-0.1,0.7L263.4,124.2L263.4,124.2z"/>
	<path class="st1" d="M265.7,122.2c0-1.8,1-3.3,2.5-3.3c0.9,0,1.5,0.5,1.7,1.2l-0.6,0.3c-0.2-0.5-0.5-0.8-1.1-0.8
		c-0.8,0-1.3,0.6-1.5,1.5l-0.2,0.8c0,0.1,0,0.3,0,0.4c0,0.7,0.4,1.3,1.2,1.3c0.5,0,0.9-0.2,1.3-1l0.6,0.3c-0.4,0.9-1.1,1.4-2,1.4
		C266.4,124.3,265.7,123.5,265.7,122.2z"/>
	<path class="st1" d="M270.4,123.9c0-0.1,0-0.2,0-0.3c0.1-0.3,0.2-0.5,0.6-0.5c0.3,0,0.5,0.1,0.5,0.4c0,0.1,0,0.2,0,0.3
		c-0.1,0.3-0.2,0.5-0.6,0.5C270.6,124.3,270.4,124.2,270.4,123.9z"/>
</g>
<g>
	<path class="st0" d="M38.7,90.8c1.3,0,1.9-0.6,1.9-1.3v-0.1c0-0.9-0.6-1.5-1.7-1.5c-1,0-1.9,0.5-2.6,1.5l-1.7-1.6
		c1-1.2,2.2-2.1,4.3-2.1c2.7,0,4.4,1.3,4.4,3.3c0,1.6-1.1,2.6-2.4,2.8v0.1c1.5,0.3,2.6,1.3,2.6,3c0,2.3-1.9,3.7-4.8,3.7
		c-2.6,0-3.8-1.1-4.6-2.4l2-1.5c0.5,1,1.3,1.8,2.6,1.8c1.2,0,1.9-0.7,1.9-1.7v-0.1c0-1-0.8-1.5-2.2-1.5h-1.1v-2.3h1.4V90.8z"/>
	<path class="st0" d="M45.3,92.1c0-4.1,1.5-6.5,4.8-6.5S55,88,55,92.1s-1.5,6.5-4.8,6.5S45.3,96.2,45.3,92.1z M52.1,93.3v-2.4
		c0-1.9-0.5-3-1.9-3s-1.9,1.1-1.9,3v2.4c0,1.9,0.5,3,1.9,3S52.1,95.2,52.1,93.3z"/>
</g>
</svg>
